M48
;Layer_Color=9474304
;FILE_FORMAT=2:5
INCH,TZ
;TYPE=PLATED
T3F00S00C0.02559
T5F00S00C0.03248
T10F00S00C0.07087
;TYPE=NON_PLATED
%
G90
G05
T03
G00X412480Y482894
M15
G01Y482106
M16
G00X430000Y482894
M15
G01Y482106
M16
T05
G00X404803Y495856
M15
G01Y493199
M16
G00X437677Y495856
M15
G01Y493199
M16
T10
G00X142331Y129177
M15
G01X133669
M16
G00X332831Y129252
M15
G01X324169
M16
G00X332831Y163897
M15
G01X324169
M16
G00X332831Y204252
M15
G01X324169
M16
G00X332831Y238897
M15
G01X324169
M16
G00X332831Y279252
M15
G01X324169
M16
G00X143831Y278980
M15
G01X135169
M16
G00X143831Y238665
M15
G01X135169
M16
G00X143831Y204020
M15
G01X135169
M16
G00X142331Y163823
M15
G01X133669
M16
G00X143831Y313626
M15
G01X135169
M16
G00X332831Y313897
M15
G01X324169
M16
M17
M30
