G04*
G04 #@! TF.GenerationSoftware,Altium Limited,Altium Designer,21.0.8 (223)*
G04*
G04 Layer_Color=16711935*
%FSLAX25Y25*%
%MOIN*%
G70*
G04*
G04 #@! TF.SameCoordinates,0C819516-2B0F-4561-8A23-745D184D752D*
G04*
G04*
G04 #@! TF.FilePolarity,Positive*
G04*
G01*
G75*
%ADD13C,0.00500*%
%ADD14C,0.00787*%
%ADD16C,0.00394*%
%ADD17C,0.00300*%
%ADD18C,0.00200*%
%ADD19C,0.00197*%
G36*
X202562Y437052D02*
X202559Y437023D01*
Y436990D01*
X202555Y436914D01*
X202544Y436834D01*
X202533Y436747D01*
X202515Y436667D01*
X202504Y436626D01*
X202493Y436594D01*
Y436590D01*
X202490Y436587D01*
X202479Y436565D01*
X202464Y436532D01*
X202439Y436492D01*
X202406Y436448D01*
X202362Y436401D01*
X202311Y436357D01*
X202253Y436313D01*
X202250D01*
X202246Y436310D01*
X202224Y436295D01*
X202188Y436281D01*
X202140Y436259D01*
X202086Y436241D01*
X202020Y436223D01*
X201951Y436211D01*
X201874Y436208D01*
X201871D01*
X201864D01*
X201849D01*
X201831Y436211D01*
X201805D01*
X201780Y436215D01*
X201718Y436230D01*
X201645Y436252D01*
X201569Y436281D01*
X201492Y436324D01*
X201456Y436353D01*
X201420Y436383D01*
X201416Y436386D01*
X201412Y436390D01*
X201401Y436401D01*
X201390Y436415D01*
X201376Y436434D01*
X201361Y436455D01*
X201343Y436485D01*
X201321Y436514D01*
X201303Y436550D01*
X201285Y436590D01*
X201263Y436634D01*
X201245Y436681D01*
X201230Y436736D01*
X201212Y436790D01*
X201201Y436852D01*
X201190Y436918D01*
X201187Y436910D01*
X201179Y436896D01*
X201165Y436874D01*
X201150Y436845D01*
X201110Y436779D01*
X201085Y436747D01*
X201063Y436718D01*
X201056Y436710D01*
X201037Y436692D01*
X201008Y436663D01*
X200972Y436626D01*
X200921Y436587D01*
X200866Y436539D01*
X200801Y436492D01*
X200728Y436441D01*
X200044Y436008D01*
Y436423D01*
X200568Y436754D01*
X200571D01*
X200579Y436761D01*
X200590Y436768D01*
X200604Y436779D01*
X200644Y436805D01*
X200695Y436838D01*
X200750Y436878D01*
X200808Y436918D01*
X200863Y436958D01*
X200914Y436994D01*
X200917Y436998D01*
X200932Y437009D01*
X200954Y437027D01*
X200979Y437052D01*
X201034Y437107D01*
X201059Y437136D01*
X201081Y437165D01*
X201085Y437169D01*
X201088Y437176D01*
X201096Y437191D01*
X201107Y437213D01*
X201117Y437234D01*
X201128Y437260D01*
X201147Y437318D01*
Y437322D01*
X201150Y437329D01*
Y437344D01*
X201154Y437362D01*
X201157Y437387D01*
Y437416D01*
X201161Y437456D01*
Y437886D01*
X200044D01*
Y438221D01*
X202562D01*
Y437052D01*
D02*
G37*
G36*
X194519D02*
X194515Y437023D01*
Y436990D01*
X194512Y436914D01*
X194501Y436834D01*
X194490Y436747D01*
X194472Y436667D01*
X194461Y436626D01*
X194450Y436594D01*
Y436590D01*
X194446Y436587D01*
X194435Y436565D01*
X194421Y436532D01*
X194395Y436492D01*
X194362Y436448D01*
X194319Y436401D01*
X194268Y436357D01*
X194209Y436313D01*
X194206D01*
X194202Y436310D01*
X194180Y436295D01*
X194144Y436281D01*
X194097Y436259D01*
X194042Y436241D01*
X193976Y436223D01*
X193907Y436211D01*
X193831Y436208D01*
X193827D01*
X193820D01*
X193805D01*
X193787Y436211D01*
X193762D01*
X193736Y436215D01*
X193674Y436230D01*
X193602Y436252D01*
X193525Y436281D01*
X193449Y436324D01*
X193412Y436353D01*
X193376Y436383D01*
X193372Y436386D01*
X193369Y436390D01*
X193358Y436401D01*
X193347Y436415D01*
X193332Y436434D01*
X193318Y436455D01*
X193299Y436485D01*
X193278Y436514D01*
X193259Y436550D01*
X193241Y436590D01*
X193219Y436634D01*
X193201Y436681D01*
X193187Y436736D01*
X193168Y436790D01*
X193157Y436852D01*
X193147Y436918D01*
X193143Y436910D01*
X193136Y436896D01*
X193121Y436874D01*
X193106Y436845D01*
X193067Y436779D01*
X193041Y436747D01*
X193019Y436718D01*
X193012Y436710D01*
X192994Y436692D01*
X192965Y436663D01*
X192928Y436626D01*
X192877Y436587D01*
X192823Y436539D01*
X192757Y436492D01*
X192684Y436441D01*
X192000Y436008D01*
Y436423D01*
X192524Y436754D01*
X192528D01*
X192535Y436761D01*
X192546Y436768D01*
X192561Y436779D01*
X192601Y436805D01*
X192651Y436838D01*
X192706Y436878D01*
X192764Y436918D01*
X192819Y436958D01*
X192870Y436994D01*
X192874Y436998D01*
X192888Y437009D01*
X192910Y437027D01*
X192935Y437052D01*
X192990Y437107D01*
X193016Y437136D01*
X193037Y437165D01*
X193041Y437169D01*
X193045Y437176D01*
X193052Y437191D01*
X193063Y437213D01*
X193074Y437234D01*
X193085Y437260D01*
X193103Y437318D01*
Y437322D01*
X193106Y437329D01*
Y437344D01*
X193110Y437362D01*
X193114Y437387D01*
Y437416D01*
X193117Y437456D01*
Y437886D01*
X192000D01*
Y438221D01*
X194519D01*
Y437052D01*
D02*
G37*
G36*
X201940Y435571D02*
X201947Y435564D01*
X201951Y435549D01*
X201962Y435531D01*
X201973Y435509D01*
X201987Y435484D01*
X202024Y435422D01*
X202064Y435349D01*
X202115Y435276D01*
X202173Y435200D01*
X202235Y435123D01*
X202239Y435119D01*
X202242Y435116D01*
X202253Y435105D01*
X202264Y435090D01*
X202300Y435058D01*
X202344Y435014D01*
X202395Y434970D01*
X202453Y434923D01*
X202512Y434883D01*
X202573Y434847D01*
Y434646D01*
X200044D01*
Y434956D01*
X202013D01*
X202009Y434959D01*
X201995Y434978D01*
X201973Y434999D01*
X201947Y435036D01*
X201915Y435076D01*
X201878Y435127D01*
X201838Y435185D01*
X201798Y435251D01*
Y435254D01*
X201795Y435258D01*
X201780Y435280D01*
X201762Y435316D01*
X201740Y435360D01*
X201714Y435411D01*
X201689Y435465D01*
X201663Y435520D01*
X201642Y435574D01*
X201940D01*
Y435571D01*
D02*
G37*
G36*
X193896D02*
X193904Y435564D01*
X193907Y435549D01*
X193918Y435531D01*
X193929Y435509D01*
X193944Y435484D01*
X193980Y435422D01*
X194020Y435349D01*
X194071Y435276D01*
X194129Y435200D01*
X194191Y435123D01*
X194195Y435119D01*
X194199Y435116D01*
X194209Y435105D01*
X194220Y435090D01*
X194257Y435058D01*
X194300Y435014D01*
X194351Y434970D01*
X194410Y434923D01*
X194468Y434883D01*
X194530Y434847D01*
Y434646D01*
X192000D01*
Y434956D01*
X193969D01*
X193966Y434959D01*
X193951Y434978D01*
X193929Y434999D01*
X193904Y435036D01*
X193871Y435076D01*
X193834Y435127D01*
X193795Y435185D01*
X193754Y435251D01*
Y435254D01*
X193751Y435258D01*
X193736Y435280D01*
X193718Y435316D01*
X193696Y435360D01*
X193671Y435411D01*
X193645Y435465D01*
X193620Y435520D01*
X193598Y435574D01*
X193896D01*
Y435571D01*
D02*
G37*
G36*
X200750Y433540D02*
X200746D01*
X200739Y433536D01*
X200724Y433532D01*
X200706Y433529D01*
X200684Y433525D01*
X200659Y433518D01*
X200604Y433500D01*
X200539Y433474D01*
X200477Y433441D01*
X200419Y433405D01*
X200368Y433361D01*
X200364Y433354D01*
X200349Y433340D01*
X200331Y433311D01*
X200313Y433274D01*
X200291Y433230D01*
X200273Y433176D01*
X200258Y433114D01*
X200255Y433048D01*
Y433027D01*
X200258Y433012D01*
X200262Y432972D01*
X200273Y432921D01*
X200291Y432863D01*
X200317Y432801D01*
X200353Y432739D01*
X200404Y432681D01*
X200411Y432674D01*
X200433Y432655D01*
X200466Y432633D01*
X200510Y432604D01*
X200564Y432575D01*
X200626Y432553D01*
X200699Y432535D01*
X200779Y432528D01*
X200782D01*
X200790D01*
X200801D01*
X200815Y432531D01*
X200855Y432535D01*
X200903Y432546D01*
X200961Y432561D01*
X201019Y432586D01*
X201077Y432622D01*
X201132Y432670D01*
X201139Y432677D01*
X201154Y432695D01*
X201176Y432724D01*
X201201Y432764D01*
X201227Y432815D01*
X201249Y432877D01*
X201263Y432946D01*
X201270Y433023D01*
Y433056D01*
X201267Y433081D01*
X201263Y433114D01*
X201256Y433150D01*
X201249Y433194D01*
X201238Y433241D01*
X201511Y433205D01*
Y433187D01*
X201507Y433172D01*
Y433125D01*
X201514Y433085D01*
X201521Y433038D01*
X201532Y432983D01*
X201551Y432921D01*
X201576Y432863D01*
X201609Y432801D01*
Y432797D01*
X201612Y432794D01*
X201627Y432775D01*
X201653Y432750D01*
X201685Y432721D01*
X201733Y432692D01*
X201787Y432666D01*
X201849Y432648D01*
X201886Y432641D01*
X201925D01*
X201929D01*
X201933D01*
X201955D01*
X201984Y432648D01*
X202024Y432655D01*
X202067Y432670D01*
X202115Y432688D01*
X202162Y432717D01*
X202206Y432757D01*
X202209Y432761D01*
X202224Y432779D01*
X202242Y432804D01*
X202264Y432837D01*
X202282Y432881D01*
X202300Y432932D01*
X202315Y432990D01*
X202319Y433056D01*
Y433085D01*
X202311Y433118D01*
X202304Y433161D01*
X202290Y433209D01*
X202271Y433256D01*
X202242Y433307D01*
X202206Y433354D01*
X202202Y433358D01*
X202184Y433372D01*
X202158Y433394D01*
X202122Y433420D01*
X202075Y433445D01*
X202016Y433471D01*
X201947Y433493D01*
X201867Y433507D01*
X201922Y433816D01*
X201925D01*
X201936Y433813D01*
X201951Y433809D01*
X201973Y433806D01*
X201998Y433798D01*
X202027Y433787D01*
X202097Y433766D01*
X202177Y433729D01*
X202257Y433685D01*
X202333Y433631D01*
X202402Y433562D01*
X202406Y433558D01*
X202410Y433551D01*
X202417Y433540D01*
X202428Y433525D01*
X202442Y433507D01*
X202457Y433482D01*
X202471Y433456D01*
X202490Y433423D01*
X202519Y433351D01*
X202548Y433267D01*
X202566Y433169D01*
X202573Y433118D01*
Y433027D01*
X202570Y432986D01*
X202562Y432939D01*
X202552Y432881D01*
X202533Y432815D01*
X202512Y432750D01*
X202482Y432684D01*
Y432681D01*
X202479Y432677D01*
X202468Y432655D01*
X202446Y432622D01*
X202421Y432586D01*
X202384Y432542D01*
X202344Y432499D01*
X202297Y432455D01*
X202242Y432419D01*
X202235Y432415D01*
X202217Y432404D01*
X202184Y432389D01*
X202144Y432371D01*
X202097Y432353D01*
X202042Y432339D01*
X201980Y432328D01*
X201918Y432324D01*
X201911D01*
X201889D01*
X201860Y432328D01*
X201820Y432335D01*
X201773Y432346D01*
X201722Y432364D01*
X201671Y432386D01*
X201620Y432415D01*
X201612Y432419D01*
X201598Y432430D01*
X201572Y432451D01*
X201543Y432481D01*
X201511Y432517D01*
X201474Y432561D01*
X201441Y432612D01*
X201409Y432674D01*
Y432670D01*
X201405Y432663D01*
X201401Y432652D01*
X201398Y432637D01*
X201383Y432597D01*
X201361Y432546D01*
X201332Y432488D01*
X201296Y432430D01*
X201249Y432375D01*
X201194Y432324D01*
X201187Y432320D01*
X201165Y432306D01*
X201128Y432284D01*
X201081Y432262D01*
X201023Y432240D01*
X200954Y432219D01*
X200874Y432204D01*
X200786Y432200D01*
X200782D01*
X200772D01*
X200753D01*
X200732Y432204D01*
X200703Y432207D01*
X200670Y432215D01*
X200633Y432222D01*
X200593Y432229D01*
X200506Y432259D01*
X200459Y432280D01*
X200415Y432302D01*
X200368Y432331D01*
X200320Y432364D01*
X200273Y432401D01*
X200229Y432444D01*
X200226Y432448D01*
X200218Y432455D01*
X200207Y432470D01*
X200193Y432488D01*
X200175Y432510D01*
X200156Y432539D01*
X200135Y432572D01*
X200116Y432612D01*
X200095Y432652D01*
X200073Y432699D01*
X200055Y432746D01*
X200036Y432801D01*
X200022Y432859D01*
X200011Y432921D01*
X200004Y432983D01*
X200000Y433052D01*
Y433085D01*
X200004Y433107D01*
X200007Y433136D01*
X200011Y433169D01*
X200018Y433205D01*
X200025Y433245D01*
X200047Y433332D01*
X200084Y433423D01*
X200106Y433471D01*
X200131Y433514D01*
X200164Y433558D01*
X200197Y433602D01*
X200200Y433605D01*
X200207Y433613D01*
X200218Y433624D01*
X200233Y433634D01*
X200251Y433653D01*
X200277Y433671D01*
X200302Y433693D01*
X200335Y433714D01*
X200371Y433736D01*
X200408Y433758D01*
X200495Y433798D01*
X200597Y433831D01*
X200652Y433842D01*
X200710Y433849D01*
X200750Y433540D01*
D02*
G37*
G36*
X194519Y432804D02*
Y432553D01*
X192888D01*
Y432211D01*
X192604D01*
Y432553D01*
X192000D01*
Y432863D01*
X192604D01*
Y433958D01*
X192888D01*
X194519Y432804D01*
D02*
G37*
G36*
X178627Y427602D02*
X178659Y427599D01*
X178700Y427595D01*
X178740Y427592D01*
X178787Y427581D01*
X178885Y427559D01*
X178994Y427526D01*
X179049Y427504D01*
X179100Y427479D01*
X179151Y427446D01*
X179202Y427413D01*
X179206Y427410D01*
X179213Y427406D01*
X179227Y427395D01*
X179245Y427377D01*
X179264Y427359D01*
X179289Y427333D01*
X179315Y427304D01*
X179344Y427275D01*
X179373Y427239D01*
X179402Y427195D01*
X179435Y427151D01*
X179464Y427104D01*
X179489Y427049D01*
X179518Y426995D01*
X179540Y426936D01*
X179562Y426871D01*
X179235Y426794D01*
Y426798D01*
X179231Y426805D01*
X179224Y426820D01*
X179216Y426838D01*
X179209Y426860D01*
X179198Y426889D01*
X179169Y426947D01*
X179133Y427013D01*
X179089Y427078D01*
X179034Y427140D01*
X178976Y427195D01*
X178969Y427202D01*
X178947Y427217D01*
X178911Y427235D01*
X178863Y427260D01*
X178801Y427282D01*
X178732Y427304D01*
X178649Y427319D01*
X178558Y427322D01*
X178528D01*
X178510Y427319D01*
X178485D01*
X178456Y427315D01*
X178386Y427304D01*
X178310Y427289D01*
X178230Y427264D01*
X178146Y427228D01*
X178070Y427180D01*
X178066D01*
X178062Y427173D01*
X178037Y427155D01*
X178004Y427126D01*
X177964Y427082D01*
X177917Y427027D01*
X177873Y426966D01*
X177833Y426889D01*
X177797Y426805D01*
Y426802D01*
X177793Y426794D01*
X177789Y426784D01*
X177786Y426765D01*
X177779Y426744D01*
X177771Y426718D01*
X177760Y426656D01*
X177746Y426583D01*
X177731Y426503D01*
X177724Y426416D01*
X177720Y426321D01*
Y426318D01*
Y426307D01*
Y426289D01*
Y426267D01*
X177724Y426241D01*
Y426208D01*
X177728Y426172D01*
X177731Y426132D01*
X177742Y426045D01*
X177760Y425950D01*
X177782Y425855D01*
X177811Y425761D01*
Y425757D01*
X177815Y425750D01*
X177822Y425739D01*
X177830Y425721D01*
X177851Y425677D01*
X177884Y425626D01*
X177924Y425568D01*
X177975Y425506D01*
X178033Y425451D01*
X178103Y425400D01*
X178106D01*
X178113Y425397D01*
X178124Y425389D01*
X178139Y425382D01*
X178157Y425375D01*
X178179Y425364D01*
X178230Y425342D01*
X178296Y425320D01*
X178368Y425302D01*
X178448Y425287D01*
X178532Y425284D01*
X178558D01*
X178579Y425287D01*
X178605D01*
X178630Y425291D01*
X178696Y425306D01*
X178772Y425324D01*
X178849Y425353D01*
X178929Y425393D01*
X178969Y425415D01*
X179005Y425444D01*
X179009Y425448D01*
X179013Y425451D01*
X179024Y425462D01*
X179038Y425473D01*
X179053Y425491D01*
X179071Y425513D01*
X179093Y425535D01*
X179111Y425564D01*
X179133Y425597D01*
X179158Y425633D01*
X179180Y425670D01*
X179202Y425713D01*
X179220Y425761D01*
X179238Y425812D01*
X179256Y425866D01*
X179271Y425924D01*
X179606Y425841D01*
Y425837D01*
X179602Y425823D01*
X179595Y425801D01*
X179584Y425772D01*
X179573Y425739D01*
X179559Y425699D01*
X179540Y425655D01*
X179518Y425608D01*
X179468Y425506D01*
X179402Y425404D01*
X179362Y425353D01*
X179322Y425302D01*
X179278Y425258D01*
X179227Y425215D01*
X179224Y425211D01*
X179216Y425204D01*
X179198Y425197D01*
X179180Y425182D01*
X179151Y425164D01*
X179122Y425146D01*
X179082Y425127D01*
X179042Y425109D01*
X178994Y425087D01*
X178943Y425069D01*
X178889Y425051D01*
X178831Y425033D01*
X178769Y425018D01*
X178703Y425011D01*
X178634Y425004D01*
X178561Y425000D01*
X178521D01*
X178492Y425004D01*
X178459D01*
X178419Y425007D01*
X178375Y425014D01*
X178325Y425022D01*
X178219Y425040D01*
X178110Y425069D01*
X178001Y425109D01*
X177950Y425135D01*
X177899Y425164D01*
X177895Y425167D01*
X177888Y425171D01*
X177873Y425182D01*
X177859Y425197D01*
X177837Y425211D01*
X177811Y425233D01*
X177782Y425258D01*
X177753Y425287D01*
X177724Y425320D01*
X177691Y425353D01*
X177626Y425437D01*
X177564Y425535D01*
X177509Y425644D01*
Y425648D01*
X177502Y425659D01*
X177498Y425677D01*
X177487Y425699D01*
X177480Y425728D01*
X177469Y425764D01*
X177455Y425804D01*
X177444Y425848D01*
X177433Y425895D01*
X177418Y425950D01*
X177400Y426063D01*
X177385Y426190D01*
X177378Y426321D01*
Y426325D01*
Y426339D01*
Y426361D01*
X177382Y426387D01*
Y426423D01*
X177385Y426460D01*
X177389Y426507D01*
X177396Y426554D01*
X177415Y426660D01*
X177440Y426776D01*
X177477Y426893D01*
X177527Y427006D01*
X177531Y427009D01*
X177535Y427020D01*
X177542Y427035D01*
X177557Y427053D01*
X177571Y427078D01*
X177589Y427107D01*
X177637Y427173D01*
X177699Y427246D01*
X177771Y427319D01*
X177855Y427391D01*
X177953Y427453D01*
X177957Y427457D01*
X177968Y427461D01*
X177982Y427468D01*
X178001Y427479D01*
X178030Y427490D01*
X178059Y427501D01*
X178095Y427515D01*
X178135Y427530D01*
X178179Y427544D01*
X178226Y427559D01*
X178328Y427581D01*
X178445Y427599D01*
X178565Y427606D01*
X178601D01*
X178627Y427602D01*
D02*
G37*
G36*
X181055Y425044D02*
X180745D01*
Y427013D01*
X180742Y427009D01*
X180723Y426995D01*
X180701Y426973D01*
X180665Y426947D01*
X180625Y426915D01*
X180574Y426878D01*
X180516Y426838D01*
X180450Y426798D01*
X180447D01*
X180443Y426794D01*
X180421Y426780D01*
X180385Y426762D01*
X180341Y426740D01*
X180290Y426714D01*
X180236Y426689D01*
X180181Y426663D01*
X180126Y426642D01*
Y426940D01*
X180130D01*
X180137Y426947D01*
X180152Y426951D01*
X180170Y426962D01*
X180192Y426973D01*
X180217Y426987D01*
X180279Y427024D01*
X180352Y427064D01*
X180425Y427115D01*
X180501Y427173D01*
X180578Y427235D01*
X180581Y427239D01*
X180585Y427242D01*
X180596Y427253D01*
X180611Y427264D01*
X180643Y427300D01*
X180687Y427344D01*
X180731Y427395D01*
X180778Y427453D01*
X180818Y427512D01*
X180854Y427573D01*
X181055D01*
Y425044D01*
D02*
G37*
G36*
X182722Y427570D02*
X182751Y427566D01*
X182784Y427563D01*
X182820Y427559D01*
X182856Y427548D01*
X182944Y427526D01*
X183031Y427493D01*
X183075Y427471D01*
X183118Y427446D01*
X183159Y427413D01*
X183199Y427381D01*
X183202Y427377D01*
X183206Y427373D01*
X183217Y427362D01*
X183231Y427348D01*
X183246Y427326D01*
X183264Y427304D01*
X183300Y427249D01*
X183337Y427180D01*
X183370Y427100D01*
X183395Y427009D01*
X183399Y426962D01*
X183402Y426911D01*
Y426907D01*
Y426904D01*
Y426882D01*
X183399Y426849D01*
X183391Y426809D01*
X183380Y426758D01*
X183362Y426707D01*
X183341Y426656D01*
X183308Y426605D01*
X183304Y426598D01*
X183290Y426583D01*
X183268Y426561D01*
X183239Y426532D01*
X183199Y426500D01*
X183151Y426467D01*
X183097Y426434D01*
X183031Y426405D01*
X183035D01*
X183042Y426401D01*
X183053Y426398D01*
X183068Y426390D01*
X183111Y426372D01*
X183162Y426347D01*
X183217Y426310D01*
X183275Y426270D01*
X183330Y426219D01*
X183380Y426161D01*
Y426158D01*
X183384Y426154D01*
X183399Y426132D01*
X183421Y426096D01*
X183442Y426048D01*
X183464Y425990D01*
X183486Y425921D01*
X183501Y425844D01*
X183504Y425761D01*
Y425757D01*
Y425746D01*
Y425728D01*
X183501Y425706D01*
X183497Y425681D01*
X183493Y425648D01*
X183486Y425611D01*
X183475Y425571D01*
X183450Y425488D01*
X183431Y425440D01*
X183406Y425397D01*
X183380Y425349D01*
X183351Y425306D01*
X183315Y425262D01*
X183275Y425218D01*
X183271Y425215D01*
X183264Y425207D01*
X183253Y425197D01*
X183235Y425186D01*
X183210Y425167D01*
X183184Y425149D01*
X183151Y425131D01*
X183115Y425109D01*
X183075Y425087D01*
X183028Y425069D01*
X182976Y425051D01*
X182925Y425033D01*
X182867Y425022D01*
X182805Y425011D01*
X182744Y425004D01*
X182674Y425000D01*
X182638D01*
X182613Y425004D01*
X182580Y425007D01*
X182543Y425011D01*
X182503Y425018D01*
X182460Y425029D01*
X182361Y425055D01*
X182310Y425073D01*
X182263Y425091D01*
X182212Y425116D01*
X182161Y425146D01*
X182114Y425178D01*
X182070Y425218D01*
X182067Y425222D01*
X182059Y425229D01*
X182048Y425240D01*
X182034Y425258D01*
X182019Y425280D01*
X181997Y425306D01*
X181979Y425335D01*
X181957Y425371D01*
X181936Y425408D01*
X181917Y425451D01*
X181881Y425542D01*
X181866Y425597D01*
X181855Y425652D01*
X181848Y425710D01*
X181844Y425768D01*
Y425772D01*
Y425779D01*
Y425794D01*
X181848Y425808D01*
Y425830D01*
X181852Y425855D01*
X181859Y425914D01*
X181874Y425979D01*
X181895Y426045D01*
X181928Y426114D01*
X181968Y426179D01*
Y426183D01*
X181975Y426187D01*
X181990Y426205D01*
X182019Y426234D01*
X182059Y426270D01*
X182110Y426307D01*
X182172Y426347D01*
X182241Y426379D01*
X182325Y426405D01*
X182321D01*
X182318Y426409D01*
X182307Y426412D01*
X182292Y426419D01*
X182259Y426434D01*
X182216Y426456D01*
X182168Y426485D01*
X182121Y426521D01*
X182077Y426561D01*
X182037Y426605D01*
X182034Y426613D01*
X182023Y426627D01*
X182008Y426656D01*
X181994Y426693D01*
X181975Y426740D01*
X181961Y426794D01*
X181950Y426856D01*
X181946Y426922D01*
Y426926D01*
Y426933D01*
Y426947D01*
X181950Y426969D01*
X181954Y426991D01*
X181957Y427020D01*
X181972Y427082D01*
X181994Y427155D01*
X182030Y427231D01*
X182052Y427271D01*
X182077Y427311D01*
X182110Y427348D01*
X182143Y427384D01*
X182147Y427388D01*
X182154Y427391D01*
X182165Y427402D01*
X182179Y427413D01*
X182198Y427428D01*
X182223Y427442D01*
X182252Y427461D01*
X182281Y427479D01*
X182318Y427497D01*
X182358Y427515D01*
X182401Y427530D01*
X182449Y427544D01*
X182551Y427566D01*
X182609Y427570D01*
X182667Y427573D01*
X182700D01*
X182722Y427570D01*
D02*
G37*
G36*
X137768Y414119D02*
X137797Y414115D01*
X137830Y414108D01*
X137867Y414101D01*
X137907Y414093D01*
X137994Y414064D01*
X138041Y414042D01*
X138085Y414020D01*
X138132Y413991D01*
X138180Y413959D01*
X138227Y413922D01*
X138271Y413878D01*
X138274Y413875D01*
X138282Y413868D01*
X138293Y413853D01*
X138307Y413835D01*
X138325Y413813D01*
X138344Y413784D01*
X138365Y413751D01*
X138383Y413711D01*
X138405Y413671D01*
X138427Y413624D01*
X138445Y413576D01*
X138464Y413522D01*
X138478Y413464D01*
X138489Y413402D01*
X138496Y413340D01*
X138500Y413271D01*
Y413238D01*
X138496Y413216D01*
X138493Y413187D01*
X138489Y413154D01*
X138482Y413118D01*
X138475Y413078D01*
X138453Y412990D01*
X138416Y412899D01*
X138394Y412852D01*
X138369Y412808D01*
X138336Y412765D01*
X138303Y412721D01*
X138300Y412717D01*
X138293Y412710D01*
X138282Y412699D01*
X138267Y412688D01*
X138249Y412670D01*
X138223Y412652D01*
X138198Y412630D01*
X138165Y412608D01*
X138129Y412586D01*
X138092Y412565D01*
X138005Y412525D01*
X137903Y412492D01*
X137848Y412481D01*
X137790Y412473D01*
X137750Y412783D01*
X137754D01*
X137761Y412786D01*
X137776Y412790D01*
X137794Y412794D01*
X137816Y412797D01*
X137841Y412805D01*
X137896Y412823D01*
X137961Y412848D01*
X138023Y412881D01*
X138081Y412918D01*
X138132Y412961D01*
X138136Y412968D01*
X138151Y412983D01*
X138169Y413012D01*
X138187Y413049D01*
X138209Y413092D01*
X138227Y413147D01*
X138242Y413209D01*
X138245Y413274D01*
Y413296D01*
X138242Y413311D01*
X138238Y413351D01*
X138227Y413402D01*
X138209Y413460D01*
X138183Y413522D01*
X138147Y413584D01*
X138096Y413642D01*
X138089Y413649D01*
X138067Y413667D01*
X138034Y413689D01*
X137990Y413718D01*
X137936Y413748D01*
X137874Y413769D01*
X137801Y413788D01*
X137721Y413795D01*
X137717D01*
X137710D01*
X137699D01*
X137685Y413791D01*
X137645Y413788D01*
X137597Y413777D01*
X137539Y413762D01*
X137481Y413737D01*
X137423Y413700D01*
X137368Y413653D01*
X137361Y413646D01*
X137346Y413627D01*
X137324Y413598D01*
X137299Y413558D01*
X137273Y413507D01*
X137251Y413445D01*
X137237Y413376D01*
X137230Y413300D01*
Y413267D01*
X137233Y413242D01*
X137237Y413209D01*
X137244Y413172D01*
X137251Y413129D01*
X137262Y413081D01*
X136989Y413118D01*
Y413136D01*
X136993Y413151D01*
Y413198D01*
X136986Y413238D01*
X136978Y413285D01*
X136968Y413340D01*
X136949Y413402D01*
X136924Y413460D01*
X136891Y413522D01*
Y413525D01*
X136888Y413529D01*
X136873Y413547D01*
X136847Y413573D01*
X136815Y413602D01*
X136767Y413631D01*
X136713Y413657D01*
X136651Y413675D01*
X136615Y413682D01*
X136574D01*
X136571D01*
X136567D01*
X136545D01*
X136516Y413675D01*
X136476Y413667D01*
X136433Y413653D01*
X136385Y413635D01*
X136338Y413606D01*
X136294Y413565D01*
X136291Y413562D01*
X136276Y413544D01*
X136258Y413518D01*
X136236Y413485D01*
X136218Y413442D01*
X136199Y413391D01*
X136185Y413333D01*
X136181Y413267D01*
Y413238D01*
X136189Y413205D01*
X136196Y413162D01*
X136211Y413114D01*
X136229Y413067D01*
X136258Y413016D01*
X136294Y412968D01*
X136298Y412965D01*
X136316Y412950D01*
X136342Y412928D01*
X136378Y412903D01*
X136425Y412878D01*
X136484Y412852D01*
X136553Y412830D01*
X136633Y412816D01*
X136578Y412506D01*
X136574D01*
X136564Y412510D01*
X136549Y412514D01*
X136527Y412517D01*
X136502Y412525D01*
X136473Y412535D01*
X136403Y412557D01*
X136323Y412594D01*
X136243Y412637D01*
X136167Y412692D01*
X136098Y412761D01*
X136094Y412765D01*
X136090Y412772D01*
X136083Y412783D01*
X136072Y412797D01*
X136058Y412816D01*
X136043Y412841D01*
X136029Y412867D01*
X136010Y412899D01*
X135981Y412972D01*
X135952Y413056D01*
X135934Y413154D01*
X135926Y413205D01*
Y413296D01*
X135930Y413336D01*
X135938Y413383D01*
X135948Y413442D01*
X135967Y413507D01*
X135988Y413573D01*
X136018Y413638D01*
Y413642D01*
X136021Y413646D01*
X136032Y413667D01*
X136054Y413700D01*
X136079Y413737D01*
X136116Y413780D01*
X136156Y413824D01*
X136203Y413868D01*
X136258Y413904D01*
X136265Y413908D01*
X136283Y413919D01*
X136316Y413933D01*
X136356Y413951D01*
X136403Y413970D01*
X136458Y413984D01*
X136520Y413995D01*
X136582Y413999D01*
X136589D01*
X136611D01*
X136640Y413995D01*
X136680Y413988D01*
X136727Y413977D01*
X136778Y413959D01*
X136829Y413937D01*
X136880Y413908D01*
X136888Y413904D01*
X136902Y413893D01*
X136927Y413871D01*
X136957Y413842D01*
X136989Y413806D01*
X137026Y413762D01*
X137059Y413711D01*
X137091Y413649D01*
Y413653D01*
X137095Y413660D01*
X137099Y413671D01*
X137102Y413686D01*
X137117Y413726D01*
X137139Y413777D01*
X137168Y413835D01*
X137204Y413893D01*
X137251Y413948D01*
X137306Y413999D01*
X137313Y414002D01*
X137335Y414017D01*
X137372Y414039D01*
X137419Y414060D01*
X137477Y414082D01*
X137546Y414104D01*
X137626Y414119D01*
X137714Y414122D01*
X137717D01*
X137728D01*
X137747D01*
X137768Y414119D01*
D02*
G37*
G36*
X153480Y411607D02*
Y411603D01*
Y411588D01*
Y411570D01*
Y411545D01*
X153477Y411512D01*
Y411476D01*
X153473Y411432D01*
X153469Y411388D01*
X153458Y411290D01*
X153444Y411188D01*
X153422Y411090D01*
X153407Y411042D01*
X153393Y410999D01*
Y410995D01*
X153389Y410988D01*
X153382Y410977D01*
X153375Y410962D01*
X153353Y410922D01*
X153320Y410871D01*
X153276Y410813D01*
X153225Y410755D01*
X153160Y410693D01*
X153080Y410638D01*
X153076D01*
X153069Y410631D01*
X153058Y410627D01*
X153040Y410616D01*
X153018Y410605D01*
X152989Y410595D01*
X152960Y410584D01*
X152923Y410569D01*
X152883Y410555D01*
X152840Y410544D01*
X152792Y410533D01*
X152738Y410522D01*
X152683Y410514D01*
X152625Y410507D01*
X152494Y410500D01*
X152461D01*
X152435Y410504D01*
X152406D01*
X152370Y410507D01*
X152330Y410511D01*
X152290Y410514D01*
X152199Y410529D01*
X152101Y410551D01*
X152006Y410580D01*
X151915Y410620D01*
X151911D01*
X151904Y410627D01*
X151893Y410635D01*
X151878Y410642D01*
X151839Y410671D01*
X151791Y410711D01*
X151737Y410762D01*
X151686Y410820D01*
X151635Y410893D01*
X151595Y410973D01*
Y410977D01*
X151591Y410984D01*
X151587Y410999D01*
X151580Y411017D01*
X151573Y411039D01*
X151566Y411068D01*
X151555Y411101D01*
X151547Y411141D01*
X151540Y411184D01*
X151529Y411232D01*
X151522Y411282D01*
X151514Y411337D01*
X151507Y411399D01*
X151504Y411465D01*
X151500Y411534D01*
Y411607D01*
Y413062D01*
X151835D01*
Y411607D01*
Y411603D01*
Y411592D01*
Y411574D01*
Y411552D01*
X151839Y411526D01*
Y411494D01*
X151842Y411424D01*
X151849Y411344D01*
X151860Y411264D01*
X151875Y411188D01*
X151882Y411155D01*
X151893Y411122D01*
X151897Y411115D01*
X151904Y411097D01*
X151922Y411071D01*
X151944Y411035D01*
X151970Y410999D01*
X152006Y410959D01*
X152050Y410919D01*
X152101Y410886D01*
X152108Y410882D01*
X152126Y410871D01*
X152159Y410860D01*
X152202Y410846D01*
X152253Y410827D01*
X152319Y410817D01*
X152388Y410806D01*
X152465Y410802D01*
X152501D01*
X152523Y410806D01*
X152556D01*
X152588Y410809D01*
X152668Y410824D01*
X152756Y410842D01*
X152840Y410871D01*
X152920Y410911D01*
X152956Y410937D01*
X152989Y410966D01*
X152992Y410969D01*
X152996Y410973D01*
X153003Y410984D01*
X153014Y410999D01*
X153025Y411021D01*
X153040Y411042D01*
X153054Y411075D01*
X153069Y411108D01*
X153083Y411148D01*
X153094Y411195D01*
X153109Y411250D01*
X153120Y411308D01*
X153131Y411374D01*
X153138Y411443D01*
X153145Y411523D01*
Y411607D01*
Y413062D01*
X153480D01*
Y411607D01*
D02*
G37*
G36*
X138456Y411367D02*
X136487D01*
X136491Y411363D01*
X136505Y411345D01*
X136527Y411323D01*
X136553Y411287D01*
X136585Y411247D01*
X136622Y411196D01*
X136662Y411138D01*
X136702Y411072D01*
Y411068D01*
X136706Y411065D01*
X136720Y411043D01*
X136738Y411007D01*
X136760Y410963D01*
X136786Y410912D01*
X136811Y410857D01*
X136837Y410803D01*
X136858Y410748D01*
X136560D01*
Y410752D01*
X136553Y410759D01*
X136549Y410774D01*
X136538Y410792D01*
X136527Y410814D01*
X136513Y410839D01*
X136476Y410901D01*
X136436Y410974D01*
X136385Y411047D01*
X136327Y411123D01*
X136265Y411200D01*
X136261Y411203D01*
X136258Y411207D01*
X136247Y411218D01*
X136236Y411232D01*
X136199Y411265D01*
X136156Y411309D01*
X136105Y411352D01*
X136047Y411400D01*
X135988Y411440D01*
X135926Y411476D01*
Y411676D01*
X138456D01*
Y411367D01*
D02*
G37*
G36*
X154783Y413070D02*
X154812Y413066D01*
X154845Y413062D01*
X154882Y413059D01*
X154918Y413048D01*
X155005Y413026D01*
X155093Y412993D01*
X155136Y412971D01*
X155180Y412946D01*
X155220Y412913D01*
X155260Y412881D01*
X155264Y412877D01*
X155267Y412873D01*
X155278Y412862D01*
X155293Y412848D01*
X155307Y412826D01*
X155326Y412804D01*
X155362Y412749D01*
X155398Y412680D01*
X155431Y412600D01*
X155457Y412509D01*
X155460Y412462D01*
X155464Y412411D01*
Y412407D01*
Y412404D01*
Y412382D01*
X155460Y412349D01*
X155453Y412309D01*
X155442Y412258D01*
X155424Y412207D01*
X155402Y412156D01*
X155369Y412105D01*
X155366Y412098D01*
X155351Y412083D01*
X155329Y412062D01*
X155300Y412032D01*
X155260Y412000D01*
X155213Y411967D01*
X155158Y411934D01*
X155093Y411905D01*
X155096D01*
X155104Y411901D01*
X155114Y411898D01*
X155129Y411890D01*
X155173Y411872D01*
X155224Y411847D01*
X155278Y411810D01*
X155336Y411770D01*
X155391Y411719D01*
X155442Y411661D01*
Y411657D01*
X155446Y411654D01*
X155460Y411632D01*
X155482Y411596D01*
X155504Y411548D01*
X155526Y411490D01*
X155548Y411421D01*
X155562Y411344D01*
X155566Y411261D01*
Y411257D01*
Y411246D01*
Y411228D01*
X155562Y411206D01*
X155559Y411181D01*
X155555Y411148D01*
X155548Y411111D01*
X155537Y411071D01*
X155511Y410988D01*
X155493Y410940D01*
X155468Y410897D01*
X155442Y410849D01*
X155413Y410806D01*
X155377Y410762D01*
X155336Y410718D01*
X155333Y410715D01*
X155326Y410707D01*
X155315Y410697D01*
X155297Y410686D01*
X155271Y410667D01*
X155245Y410649D01*
X155213Y410631D01*
X155176Y410609D01*
X155136Y410587D01*
X155089Y410569D01*
X155038Y410551D01*
X154987Y410533D01*
X154929Y410522D01*
X154867Y410511D01*
X154805Y410504D01*
X154736Y410500D01*
X154700D01*
X154674Y410504D01*
X154641Y410507D01*
X154605Y410511D01*
X154565Y410518D01*
X154521Y410529D01*
X154423Y410555D01*
X154372Y410573D01*
X154325Y410591D01*
X154274Y410616D01*
X154223Y410646D01*
X154175Y410678D01*
X154132Y410718D01*
X154128Y410722D01*
X154121Y410729D01*
X154110Y410740D01*
X154095Y410758D01*
X154081Y410780D01*
X154059Y410806D01*
X154041Y410835D01*
X154019Y410871D01*
X153997Y410908D01*
X153979Y410951D01*
X153942Y411042D01*
X153928Y411097D01*
X153917Y411152D01*
X153910Y411210D01*
X153906Y411268D01*
Y411272D01*
Y411279D01*
Y411294D01*
X153910Y411308D01*
Y411330D01*
X153913Y411355D01*
X153921Y411414D01*
X153935Y411479D01*
X153957Y411545D01*
X153990Y411614D01*
X154030Y411679D01*
Y411683D01*
X154037Y411687D01*
X154052Y411705D01*
X154081Y411734D01*
X154121Y411770D01*
X154172Y411807D01*
X154234Y411847D01*
X154303Y411879D01*
X154386Y411905D01*
X154383D01*
X154379Y411909D01*
X154368Y411912D01*
X154354Y411919D01*
X154321Y411934D01*
X154277Y411956D01*
X154230Y411985D01*
X154183Y412021D01*
X154139Y412062D01*
X154099Y412105D01*
X154095Y412113D01*
X154084Y412127D01*
X154070Y412156D01*
X154055Y412193D01*
X154037Y412240D01*
X154023Y412294D01*
X154012Y412356D01*
X154008Y412422D01*
Y412426D01*
Y412433D01*
Y412447D01*
X154012Y412469D01*
X154015Y412491D01*
X154019Y412520D01*
X154033Y412582D01*
X154055Y412655D01*
X154092Y412731D01*
X154113Y412771D01*
X154139Y412811D01*
X154172Y412848D01*
X154204Y412884D01*
X154208Y412888D01*
X154215Y412891D01*
X154226Y412902D01*
X154241Y412913D01*
X154259Y412928D01*
X154285Y412942D01*
X154314Y412961D01*
X154343Y412979D01*
X154379Y412997D01*
X154419Y413015D01*
X154463Y413030D01*
X154510Y413044D01*
X154612Y413066D01*
X154670Y413070D01*
X154729Y413073D01*
X154761D01*
X154783Y413070D01*
D02*
G37*
G36*
X137677Y410224D02*
X137699Y410217D01*
X137728Y410206D01*
X137761Y410195D01*
X137801Y410180D01*
X137845Y410162D01*
X137892Y410140D01*
X137994Y410089D01*
X138096Y410024D01*
X138147Y409984D01*
X138198Y409944D01*
X138242Y409900D01*
X138285Y409849D01*
X138289Y409845D01*
X138296Y409838D01*
X138303Y409820D01*
X138318Y409802D01*
X138336Y409773D01*
X138354Y409743D01*
X138373Y409703D01*
X138391Y409663D01*
X138413Y409616D01*
X138431Y409565D01*
X138449Y409511D01*
X138467Y409452D01*
X138482Y409390D01*
X138489Y409325D01*
X138496Y409256D01*
X138500Y409183D01*
Y409143D01*
X138496Y409114D01*
Y409081D01*
X138493Y409041D01*
X138486Y408997D01*
X138478Y408946D01*
X138460Y408841D01*
X138431Y408732D01*
X138391Y408622D01*
X138365Y408571D01*
X138336Y408521D01*
X138333Y408517D01*
X138329Y408509D01*
X138318Y408495D01*
X138303Y408480D01*
X138289Y408459D01*
X138267Y408433D01*
X138242Y408404D01*
X138213Y408375D01*
X138180Y408346D01*
X138147Y408313D01*
X138063Y408248D01*
X137965Y408186D01*
X137856Y408131D01*
X137852D01*
X137841Y408124D01*
X137823Y408120D01*
X137801Y408109D01*
X137772Y408102D01*
X137736Y408091D01*
X137696Y408076D01*
X137652Y408066D01*
X137605Y408055D01*
X137550Y408040D01*
X137437Y408022D01*
X137310Y408007D01*
X137179Y408000D01*
X137175D01*
X137161D01*
X137139D01*
X137113Y408004D01*
X137077D01*
X137040Y408007D01*
X136993Y408011D01*
X136946Y408018D01*
X136840Y408036D01*
X136724Y408062D01*
X136607Y408098D01*
X136494Y408149D01*
X136491Y408153D01*
X136480Y408156D01*
X136465Y408164D01*
X136447Y408178D01*
X136422Y408193D01*
X136392Y408211D01*
X136327Y408258D01*
X136254Y408320D01*
X136181Y408393D01*
X136109Y408477D01*
X136047Y408575D01*
X136043Y408579D01*
X136039Y408590D01*
X136032Y408604D01*
X136021Y408622D01*
X136010Y408651D01*
X135999Y408681D01*
X135985Y408717D01*
X135970Y408757D01*
X135956Y408801D01*
X135941Y408848D01*
X135919Y408950D01*
X135901Y409066D01*
X135894Y409187D01*
Y409223D01*
X135897Y409248D01*
X135901Y409281D01*
X135905Y409321D01*
X135908Y409361D01*
X135919Y409409D01*
X135941Y409507D01*
X135974Y409616D01*
X135996Y409671D01*
X136021Y409722D01*
X136054Y409773D01*
X136087Y409824D01*
X136090Y409827D01*
X136094Y409834D01*
X136105Y409849D01*
X136123Y409867D01*
X136141Y409886D01*
X136167Y409911D01*
X136196Y409936D01*
X136225Y409966D01*
X136261Y409995D01*
X136305Y410024D01*
X136349Y410056D01*
X136396Y410086D01*
X136451Y410111D01*
X136505Y410140D01*
X136564Y410162D01*
X136629Y410184D01*
X136706Y409856D01*
X136702D01*
X136695Y409853D01*
X136680Y409845D01*
X136662Y409838D01*
X136640Y409831D01*
X136611Y409820D01*
X136553Y409791D01*
X136487Y409754D01*
X136422Y409711D01*
X136360Y409656D01*
X136305Y409598D01*
X136298Y409591D01*
X136283Y409569D01*
X136265Y409532D01*
X136240Y409485D01*
X136218Y409423D01*
X136196Y409354D01*
X136181Y409270D01*
X136178Y409179D01*
Y409150D01*
X136181Y409132D01*
Y409106D01*
X136185Y409077D01*
X136196Y409008D01*
X136211Y408932D01*
X136236Y408852D01*
X136272Y408768D01*
X136320Y408692D01*
Y408688D01*
X136327Y408684D01*
X136345Y408659D01*
X136374Y408626D01*
X136418Y408586D01*
X136473Y408539D01*
X136534Y408495D01*
X136611Y408455D01*
X136695Y408419D01*
X136698D01*
X136706Y408415D01*
X136716Y408411D01*
X136735Y408408D01*
X136757Y408400D01*
X136782Y408393D01*
X136844Y408382D01*
X136917Y408368D01*
X136997Y408353D01*
X137084Y408346D01*
X137179Y408342D01*
X137182D01*
X137193D01*
X137212D01*
X137233D01*
X137259Y408346D01*
X137292D01*
X137328Y408349D01*
X137368Y408353D01*
X137455Y408364D01*
X137550Y408382D01*
X137645Y408404D01*
X137739Y408433D01*
X137743D01*
X137750Y408437D01*
X137761Y408444D01*
X137779Y408451D01*
X137823Y408473D01*
X137874Y408506D01*
X137932Y408546D01*
X137994Y408597D01*
X138049Y408655D01*
X138100Y408724D01*
Y408728D01*
X138103Y408735D01*
X138110Y408746D01*
X138118Y408761D01*
X138125Y408779D01*
X138136Y408801D01*
X138158Y408852D01*
X138180Y408917D01*
X138198Y408990D01*
X138213Y409070D01*
X138216Y409154D01*
Y409179D01*
X138213Y409201D01*
Y409227D01*
X138209Y409252D01*
X138194Y409318D01*
X138176Y409394D01*
X138147Y409471D01*
X138107Y409551D01*
X138085Y409591D01*
X138056Y409627D01*
X138052Y409631D01*
X138049Y409634D01*
X138038Y409645D01*
X138027Y409660D01*
X138009Y409674D01*
X137987Y409693D01*
X137965Y409714D01*
X137936Y409733D01*
X137903Y409754D01*
X137867Y409780D01*
X137830Y409802D01*
X137787Y409824D01*
X137739Y409842D01*
X137688Y409860D01*
X137634Y409878D01*
X137575Y409893D01*
X137659Y410228D01*
X137663D01*
X137677Y410224D01*
D02*
G37*
G36*
X165387Y407915D02*
X165423D01*
X165460Y407911D01*
X165507Y407908D01*
X165554Y407901D01*
X165660Y407882D01*
X165776Y407857D01*
X165893Y407821D01*
X166006Y407769D01*
X166009Y407766D01*
X166020Y407762D01*
X166035Y407755D01*
X166053Y407740D01*
X166078Y407726D01*
X166107Y407708D01*
X166173Y407660D01*
X166246Y407598D01*
X166319Y407526D01*
X166391Y407442D01*
X166453Y407344D01*
X166457Y407340D01*
X166461Y407329D01*
X166468Y407315D01*
X166479Y407296D01*
X166490Y407267D01*
X166501Y407238D01*
X166515Y407202D01*
X166530Y407162D01*
X166544Y407118D01*
X166559Y407071D01*
X166581Y406969D01*
X166599Y406852D01*
X166606Y406732D01*
Y406696D01*
X166603Y406670D01*
X166599Y406637D01*
X166595Y406598D01*
X166592Y406557D01*
X166581Y406510D01*
X166559Y406412D01*
X166526Y406303D01*
X166504Y406248D01*
X166479Y406197D01*
X166446Y406146D01*
X166413Y406095D01*
X166410Y406091D01*
X166406Y406084D01*
X166395Y406070D01*
X166377Y406051D01*
X166359Y406033D01*
X166333Y406008D01*
X166304Y405982D01*
X166275Y405953D01*
X166239Y405924D01*
X166195Y405895D01*
X166151Y405862D01*
X166104Y405833D01*
X166049Y405808D01*
X165995Y405779D01*
X165936Y405757D01*
X165871Y405735D01*
X165795Y406062D01*
X165798D01*
X165805Y406066D01*
X165820Y406073D01*
X165838Y406081D01*
X165860Y406088D01*
X165889Y406099D01*
X165947Y406128D01*
X166013Y406164D01*
X166078Y406208D01*
X166140Y406263D01*
X166195Y406321D01*
X166202Y406328D01*
X166217Y406350D01*
X166235Y406386D01*
X166260Y406434D01*
X166282Y406496D01*
X166304Y406565D01*
X166319Y406648D01*
X166322Y406739D01*
Y406769D01*
X166319Y406787D01*
Y406812D01*
X166315Y406841D01*
X166304Y406911D01*
X166289Y406987D01*
X166264Y407067D01*
X166228Y407151D01*
X166180Y407227D01*
Y407231D01*
X166173Y407234D01*
X166155Y407260D01*
X166126Y407293D01*
X166082Y407333D01*
X166027Y407380D01*
X165966Y407424D01*
X165889Y407464D01*
X165805Y407500D01*
X165802D01*
X165795Y407504D01*
X165784Y407508D01*
X165765Y407511D01*
X165744Y407518D01*
X165718Y407526D01*
X165656Y407537D01*
X165583Y407551D01*
X165503Y407566D01*
X165416Y407573D01*
X165321Y407577D01*
X165318D01*
X165307D01*
X165288D01*
X165267D01*
X165241Y407573D01*
X165208D01*
X165172Y407569D01*
X165132Y407566D01*
X165045Y407555D01*
X164950Y407537D01*
X164855Y407515D01*
X164761Y407486D01*
X164757D01*
X164750Y407482D01*
X164739Y407475D01*
X164721Y407467D01*
X164677Y407446D01*
X164626Y407413D01*
X164568Y407373D01*
X164506Y407322D01*
X164451Y407264D01*
X164400Y407194D01*
Y407191D01*
X164397Y407184D01*
X164389Y407173D01*
X164382Y407158D01*
X164375Y407140D01*
X164364Y407118D01*
X164342Y407067D01*
X164320Y407001D01*
X164302Y406929D01*
X164287Y406849D01*
X164284Y406765D01*
Y406739D01*
X164287Y406718D01*
Y406692D01*
X164291Y406667D01*
X164306Y406601D01*
X164324Y406525D01*
X164353Y406448D01*
X164393Y406368D01*
X164415Y406328D01*
X164444Y406292D01*
X164448Y406288D01*
X164451Y406284D01*
X164462Y406274D01*
X164473Y406259D01*
X164491Y406244D01*
X164513Y406226D01*
X164535Y406204D01*
X164564Y406186D01*
X164597Y406164D01*
X164633Y406139D01*
X164670Y406117D01*
X164713Y406095D01*
X164761Y406077D01*
X164812Y406059D01*
X164866Y406040D01*
X164925Y406026D01*
X164841Y405691D01*
X164837D01*
X164823Y405695D01*
X164801Y405702D01*
X164772Y405713D01*
X164739Y405724D01*
X164699Y405738D01*
X164655Y405757D01*
X164608Y405779D01*
X164506Y405829D01*
X164404Y405895D01*
X164353Y405935D01*
X164302Y405975D01*
X164258Y406019D01*
X164215Y406070D01*
X164211Y406073D01*
X164204Y406081D01*
X164197Y406099D01*
X164182Y406117D01*
X164164Y406146D01*
X164146Y406175D01*
X164127Y406215D01*
X164109Y406255D01*
X164087Y406303D01*
X164069Y406354D01*
X164051Y406408D01*
X164033Y406466D01*
X164018Y406528D01*
X164011Y406594D01*
X164004Y406663D01*
X164000Y406736D01*
Y406776D01*
X164004Y406805D01*
Y406838D01*
X164007Y406878D01*
X164014Y406921D01*
X164022Y406972D01*
X164040Y407078D01*
X164069Y407187D01*
X164109Y407296D01*
X164135Y407347D01*
X164164Y407398D01*
X164167Y407402D01*
X164171Y407409D01*
X164182Y407424D01*
X164197Y407438D01*
X164211Y407460D01*
X164233Y407486D01*
X164258Y407515D01*
X164287Y407544D01*
X164320Y407573D01*
X164353Y407606D01*
X164437Y407671D01*
X164535Y407733D01*
X164644Y407788D01*
X164648D01*
X164659Y407795D01*
X164677Y407799D01*
X164699Y407810D01*
X164728Y407817D01*
X164764Y407828D01*
X164804Y407842D01*
X164848Y407853D01*
X164895Y407864D01*
X164950Y407879D01*
X165063Y407897D01*
X165190Y407911D01*
X165321Y407919D01*
X165325D01*
X165340D01*
X165361D01*
X165387Y407915D01*
D02*
G37*
G36*
X482241Y405769D02*
X480272D01*
X480275Y405765D01*
X480290Y405747D01*
X480312Y405725D01*
X480337Y405689D01*
X480370Y405649D01*
X480407Y405598D01*
X480447Y405539D01*
X480487Y405474D01*
Y405470D01*
X480490Y405467D01*
X480505Y405445D01*
X480523Y405408D01*
X480545Y405365D01*
X480570Y405314D01*
X480596Y405259D01*
X480621Y405204D01*
X480643Y405150D01*
X480345D01*
Y405154D01*
X480337Y405161D01*
X480334Y405175D01*
X480323Y405194D01*
X480312Y405215D01*
X480297Y405241D01*
X480261Y405303D01*
X480221Y405376D01*
X480170Y405448D01*
X480112Y405525D01*
X480050Y405601D01*
X480046Y405605D01*
X480043Y405609D01*
X480032Y405619D01*
X480021Y405634D01*
X479984Y405667D01*
X479941Y405711D01*
X479890Y405754D01*
X479831Y405801D01*
X479773Y405841D01*
X479711Y405878D01*
Y406078D01*
X482241D01*
Y405769D01*
D02*
G37*
G36*
X165940Y405167D02*
X165947Y405160D01*
X165951Y405145D01*
X165962Y405127D01*
X165973Y405105D01*
X165987Y405080D01*
X166024Y405018D01*
X166064Y404945D01*
X166115Y404872D01*
X166173Y404796D01*
X166235Y404719D01*
X166239Y404716D01*
X166242Y404712D01*
X166253Y404701D01*
X166264Y404686D01*
X166300Y404654D01*
X166344Y404610D01*
X166395Y404566D01*
X166453Y404519D01*
X166512Y404479D01*
X166573Y404443D01*
Y404242D01*
X164044D01*
Y404552D01*
X166013D01*
X166009Y404555D01*
X165995Y404574D01*
X165973Y404596D01*
X165947Y404632D01*
X165915Y404672D01*
X165878Y404723D01*
X165838Y404781D01*
X165798Y404847D01*
Y404850D01*
X165795Y404854D01*
X165780Y404876D01*
X165762Y404912D01*
X165740Y404956D01*
X165714Y405007D01*
X165689Y405061D01*
X165663Y405116D01*
X165642Y405171D01*
X165940D01*
Y405167D01*
D02*
G37*
G36*
X481044Y404578D02*
X481073D01*
X481142Y404575D01*
X481222Y404564D01*
X481306Y404553D01*
X481393Y404535D01*
X481480Y404513D01*
X481484D01*
X481491Y404509D01*
X481502Y404506D01*
X481517Y404502D01*
X481557Y404487D01*
X481608Y404466D01*
X481666Y404444D01*
X481724Y404415D01*
X481786Y404378D01*
X481844Y404342D01*
X481852Y404338D01*
X481870Y404324D01*
X481895Y404302D01*
X481928Y404273D01*
X481964Y404240D01*
X482001Y404200D01*
X482041Y404160D01*
X482074Y404112D01*
X482077Y404105D01*
X482088Y404091D01*
X482103Y404065D01*
X482121Y404029D01*
X482143Y403985D01*
X482161Y403934D01*
X482183Y403876D01*
X482201Y403810D01*
Y403803D01*
X482205Y403792D01*
X482208Y403781D01*
X482212Y403745D01*
X482219Y403694D01*
X482227Y403636D01*
X482234Y403567D01*
X482237Y403490D01*
X482241Y403406D01*
Y402500D01*
X479722D01*
Y403468D01*
X479726Y403534D01*
X479730Y403607D01*
X479737Y403679D01*
X479748Y403752D01*
X479759Y403814D01*
Y403818D01*
X479762Y403825D01*
Y403836D01*
X479770Y403850D01*
X479780Y403891D01*
X479799Y403941D01*
X479824Y404000D01*
X479857Y404062D01*
X479893Y404123D01*
X479941Y404182D01*
X479944Y404185D01*
X479948Y404189D01*
X479959Y404200D01*
X479970Y404214D01*
X480006Y404251D01*
X480057Y404294D01*
X480119Y404342D01*
X480192Y404393D01*
X480275Y404440D01*
X480370Y404480D01*
X480374D01*
X480381Y404484D01*
X480396Y404491D01*
X480417Y404495D01*
X480443Y404506D01*
X480472Y404513D01*
X480505Y404520D01*
X480545Y404531D01*
X480585Y404542D01*
X480632Y404549D01*
X480734Y404567D01*
X480847Y404578D01*
X480971Y404582D01*
X480974D01*
X480982D01*
X481000D01*
X481018D01*
X481044Y404578D01*
D02*
G37*
G36*
X166562Y402401D02*
Y402149D01*
X164932D01*
Y401807D01*
X164648D01*
Y402149D01*
X164044D01*
Y402459D01*
X164648D01*
Y403554D01*
X164932D01*
X166562Y402401D01*
D02*
G37*
G36*
X151662Y395814D02*
X151709Y395807D01*
X151767Y395796D01*
X151833Y395777D01*
X151898Y395756D01*
X151964Y395726D01*
X151967D01*
X151971Y395723D01*
X151993Y395712D01*
X152025Y395690D01*
X152062Y395665D01*
X152106Y395628D01*
X152149Y395588D01*
X152193Y395541D01*
X152229Y395486D01*
X152233Y395479D01*
X152244Y395461D01*
X152259Y395428D01*
X152277Y395388D01*
X152295Y395341D01*
X152309Y395286D01*
X152320Y395224D01*
X152324Y395162D01*
Y395155D01*
Y395133D01*
X152320Y395104D01*
X152313Y395064D01*
X152302Y395017D01*
X152284Y394966D01*
X152262Y394915D01*
X152233Y394864D01*
X152229Y394857D01*
X152218Y394842D01*
X152197Y394816D01*
X152167Y394787D01*
X152131Y394755D01*
X152087Y394718D01*
X152036Y394685D01*
X151975Y394653D01*
X151978D01*
X151986Y394649D01*
X151996Y394645D01*
X152011Y394642D01*
X152051Y394627D01*
X152102Y394605D01*
X152160Y394576D01*
X152218Y394540D01*
X152273Y394493D01*
X152324Y394438D01*
X152328Y394431D01*
X152342Y394409D01*
X152364Y394372D01*
X152386Y394325D01*
X152408Y394267D01*
X152430Y394198D01*
X152444Y394118D01*
X152448Y394030D01*
Y394027D01*
Y394016D01*
Y393998D01*
X152444Y393976D01*
X152441Y393947D01*
X152433Y393914D01*
X152426Y393877D01*
X152419Y393837D01*
X152390Y393750D01*
X152368Y393703D01*
X152346Y393659D01*
X152317Y393612D01*
X152284Y393564D01*
X152248Y393517D01*
X152204Y393473D01*
X152200Y393470D01*
X152193Y393462D01*
X152178Y393451D01*
X152160Y393437D01*
X152138Y393419D01*
X152109Y393401D01*
X152076Y393379D01*
X152036Y393360D01*
X151996Y393339D01*
X151949Y393317D01*
X151902Y393299D01*
X151847Y393280D01*
X151789Y393266D01*
X151727Y393255D01*
X151665Y393248D01*
X151596Y393244D01*
X151563D01*
X151541Y393248D01*
X151512Y393251D01*
X151479Y393255D01*
X151443Y393262D01*
X151403Y393269D01*
X151316Y393291D01*
X151225Y393328D01*
X151177Y393350D01*
X151134Y393375D01*
X151090Y393408D01*
X151046Y393441D01*
X151043Y393444D01*
X151035Y393451D01*
X151024Y393462D01*
X151014Y393477D01*
X150995Y393495D01*
X150977Y393521D01*
X150955Y393546D01*
X150934Y393579D01*
X150912Y393615D01*
X150890Y393652D01*
X150850Y393739D01*
X150817Y393841D01*
X150806Y393896D01*
X150799Y393954D01*
X151108Y393994D01*
Y393990D01*
X151112Y393983D01*
X151116Y393968D01*
X151119Y393950D01*
X151123Y393928D01*
X151130Y393903D01*
X151148Y393848D01*
X151174Y393783D01*
X151207Y393721D01*
X151243Y393663D01*
X151287Y393612D01*
X151294Y393608D01*
X151308Y393593D01*
X151338Y393575D01*
X151374Y393557D01*
X151418Y393535D01*
X151472Y393517D01*
X151534Y393502D01*
X151600Y393499D01*
X151621D01*
X151636Y393502D01*
X151676Y393506D01*
X151727Y393517D01*
X151785Y393535D01*
X151847Y393561D01*
X151909Y393597D01*
X151967Y393648D01*
X151975Y393655D01*
X151993Y393677D01*
X152015Y393710D01*
X152044Y393754D01*
X152073Y393808D01*
X152095Y393870D01*
X152113Y393943D01*
X152120Y394023D01*
Y394027D01*
Y394034D01*
Y394045D01*
X152117Y394059D01*
X152113Y394099D01*
X152102Y394147D01*
X152087Y394205D01*
X152062Y394263D01*
X152025Y394321D01*
X151978Y394376D01*
X151971Y394383D01*
X151953Y394398D01*
X151924Y394420D01*
X151884Y394445D01*
X151833Y394471D01*
X151771Y394493D01*
X151702Y394507D01*
X151625Y394514D01*
X151592D01*
X151567Y394511D01*
X151534Y394507D01*
X151498Y394500D01*
X151454Y394493D01*
X151407Y394482D01*
X151443Y394755D01*
X151461D01*
X151476Y394751D01*
X151523D01*
X151563Y394758D01*
X151611Y394765D01*
X151665Y394777D01*
X151727Y394795D01*
X151785Y394820D01*
X151847Y394853D01*
X151851D01*
X151854Y394857D01*
X151873Y394871D01*
X151898Y394897D01*
X151927Y394929D01*
X151956Y394977D01*
X151982Y395031D01*
X152000Y395093D01*
X152007Y395129D01*
Y395170D01*
Y395173D01*
Y395177D01*
Y395199D01*
X152000Y395228D01*
X151993Y395268D01*
X151978Y395311D01*
X151960Y395359D01*
X151931Y395406D01*
X151891Y395450D01*
X151887Y395454D01*
X151869Y395468D01*
X151844Y395486D01*
X151811Y395508D01*
X151767Y395526D01*
X151716Y395545D01*
X151658Y395559D01*
X151592Y395563D01*
X151563D01*
X151531Y395555D01*
X151487Y395548D01*
X151439Y395534D01*
X151392Y395515D01*
X151341Y395486D01*
X151294Y395450D01*
X151290Y395446D01*
X151276Y395428D01*
X151254Y395403D01*
X151228Y395366D01*
X151203Y395319D01*
X151177Y395261D01*
X151156Y395191D01*
X151141Y395111D01*
X150832Y395166D01*
Y395170D01*
X150835Y395181D01*
X150839Y395195D01*
X150842Y395217D01*
X150850Y395242D01*
X150861Y395271D01*
X150883Y395341D01*
X150919Y395421D01*
X150963Y395501D01*
X151017Y395577D01*
X151086Y395646D01*
X151090Y395650D01*
X151097Y395654D01*
X151108Y395661D01*
X151123Y395672D01*
X151141Y395687D01*
X151166Y395701D01*
X151192Y395716D01*
X151225Y395734D01*
X151297Y395763D01*
X151381Y395792D01*
X151479Y395810D01*
X151531Y395817D01*
X151621D01*
X151662Y395814D01*
D02*
G37*
G36*
X149416Y395803D02*
X149488Y395799D01*
X149561Y395792D01*
X149634Y395781D01*
X149696Y395770D01*
X149700D01*
X149707Y395766D01*
X149718D01*
X149732Y395759D01*
X149772Y395748D01*
X149823Y395730D01*
X149882Y395705D01*
X149943Y395672D01*
X150005Y395636D01*
X150064Y395588D01*
X150067Y395585D01*
X150071Y395581D01*
X150082Y395570D01*
X150096Y395559D01*
X150133Y395523D01*
X150176Y395472D01*
X150224Y395410D01*
X150275Y395337D01*
X150322Y395253D01*
X150362Y395159D01*
Y395155D01*
X150366Y395148D01*
X150373Y395133D01*
X150377Y395111D01*
X150388Y395086D01*
X150395Y395057D01*
X150402Y395024D01*
X150413Y394984D01*
X150424Y394944D01*
X150431Y394897D01*
X150449Y394795D01*
X150460Y394682D01*
X150464Y394558D01*
Y394554D01*
Y394547D01*
Y394529D01*
Y394511D01*
X150460Y394485D01*
Y394456D01*
X150457Y394387D01*
X150446Y394307D01*
X150435Y394223D01*
X150417Y394136D01*
X150395Y394049D01*
Y394045D01*
X150391Y394038D01*
X150388Y394027D01*
X150384Y394012D01*
X150369Y393972D01*
X150347Y393921D01*
X150326Y393863D01*
X150296Y393805D01*
X150260Y393743D01*
X150224Y393685D01*
X150220Y393677D01*
X150206Y393659D01*
X150184Y393634D01*
X150155Y393601D01*
X150122Y393564D01*
X150082Y393528D01*
X150042Y393488D01*
X149994Y393455D01*
X149987Y393451D01*
X149973Y393441D01*
X149947Y393426D01*
X149911Y393408D01*
X149867Y393386D01*
X149816Y393368D01*
X149758Y393346D01*
X149692Y393328D01*
X149685D01*
X149674Y393324D01*
X149663Y393320D01*
X149627Y393317D01*
X149576Y393309D01*
X149518Y393302D01*
X149448Y393295D01*
X149372Y393291D01*
X149288Y393288D01*
X148382D01*
Y395807D01*
X149350D01*
X149416Y395803D01*
D02*
G37*
G36*
X151809Y388285D02*
X151838Y388281D01*
X151874Y388278D01*
X151914Y388270D01*
X151954Y388263D01*
X152049Y388238D01*
X152144Y388201D01*
X152191Y388179D01*
X152238Y388154D01*
X152282Y388121D01*
X152322Y388085D01*
X152326Y388081D01*
X152333Y388078D01*
X152340Y388063D01*
X152355Y388048D01*
X152373Y388030D01*
X152391Y388005D01*
X152409Y387979D01*
X152431Y387947D01*
X152468Y387877D01*
X152504Y387790D01*
X152519Y387746D01*
X152526Y387695D01*
X152533Y387644D01*
X152537Y387590D01*
Y387582D01*
Y387564D01*
X152533Y387535D01*
X152530Y387495D01*
X152522Y387452D01*
X152508Y387401D01*
X152493Y387346D01*
X152471Y387291D01*
X152468Y387284D01*
X152460Y387266D01*
X152446Y387237D01*
X152424Y387197D01*
X152395Y387153D01*
X152358Y387098D01*
X152315Y387044D01*
X152264Y386982D01*
X152257Y386975D01*
X152238Y386953D01*
X152220Y386935D01*
X152202Y386916D01*
X152180Y386895D01*
X152151Y386865D01*
X152122Y386836D01*
X152085Y386804D01*
X152049Y386767D01*
X152005Y386727D01*
X151958Y386687D01*
X151907Y386640D01*
X151849Y386592D01*
X151791Y386542D01*
X151787Y386538D01*
X151780Y386531D01*
X151765Y386520D01*
X151747Y386505D01*
X151725Y386483D01*
X151700Y386461D01*
X151641Y386414D01*
X151579Y386360D01*
X151521Y386305D01*
X151470Y386258D01*
X151448Y386239D01*
X151430Y386221D01*
X151427Y386217D01*
X151416Y386207D01*
X151401Y386192D01*
X151383Y386170D01*
X151365Y386145D01*
X151343Y386119D01*
X151299Y386057D01*
X152540D01*
Y385759D01*
X150870D01*
Y385763D01*
Y385777D01*
Y385799D01*
X150873Y385828D01*
X150877Y385861D01*
X150884Y385897D01*
X150891Y385934D01*
X150906Y385974D01*
Y385977D01*
X150910Y385981D01*
X150917Y386003D01*
X150932Y386035D01*
X150953Y386079D01*
X150982Y386130D01*
X151019Y386188D01*
X151059Y386247D01*
X151110Y386309D01*
Y386312D01*
X151117Y386316D01*
X151135Y386338D01*
X151168Y386370D01*
X151215Y386418D01*
X151270Y386472D01*
X151339Y386538D01*
X151423Y386611D01*
X151514Y386687D01*
X151518Y386691D01*
X151532Y386702D01*
X151554Y386720D01*
X151579Y386742D01*
X151612Y386771D01*
X151652Y386804D01*
X151692Y386840D01*
X151740Y386880D01*
X151831Y386967D01*
X151922Y387055D01*
X151965Y387098D01*
X152005Y387142D01*
X152042Y387182D01*
X152071Y387222D01*
Y387226D01*
X152078Y387229D01*
X152085Y387240D01*
X152093Y387255D01*
X152118Y387295D01*
X152147Y387342D01*
X152173Y387401D01*
X152198Y387462D01*
X152213Y387532D01*
X152220Y387597D01*
Y387601D01*
Y387604D01*
X152216Y387626D01*
X152213Y387663D01*
X152202Y387703D01*
X152187Y387754D01*
X152162Y387805D01*
X152129Y387856D01*
X152085Y387907D01*
X152078Y387914D01*
X152060Y387928D01*
X152034Y387947D01*
X151994Y387972D01*
X151943Y387994D01*
X151885Y388016D01*
X151816Y388030D01*
X151740Y388034D01*
X151718D01*
X151703Y388030D01*
X151660Y388027D01*
X151609Y388016D01*
X151554Y388001D01*
X151492Y387976D01*
X151434Y387943D01*
X151379Y387899D01*
X151372Y387892D01*
X151357Y387874D01*
X151336Y387845D01*
X151314Y387801D01*
X151288Y387750D01*
X151266Y387684D01*
X151252Y387612D01*
X151245Y387528D01*
X150928Y387561D01*
Y387564D01*
X150932Y387575D01*
Y387593D01*
X150935Y387619D01*
X150942Y387648D01*
X150950Y387681D01*
X150961Y387721D01*
X150972Y387761D01*
X151001Y387848D01*
X151044Y387936D01*
X151070Y387979D01*
X151103Y388023D01*
X151135Y388063D01*
X151172Y388099D01*
X151175Y388103D01*
X151183Y388107D01*
X151194Y388118D01*
X151212Y388128D01*
X151234Y388143D01*
X151259Y388158D01*
X151288Y388176D01*
X151325Y388194D01*
X151365Y388212D01*
X151408Y388230D01*
X151456Y388245D01*
X151507Y388260D01*
X151561Y388270D01*
X151620Y388281D01*
X151681Y388285D01*
X151747Y388289D01*
X151783D01*
X151809Y388285D01*
D02*
G37*
G36*
X149534Y388274D02*
X149607Y388270D01*
X149679Y388263D01*
X149752Y388252D01*
X149814Y388241D01*
X149818D01*
X149825Y388238D01*
X149836D01*
X149850Y388230D01*
X149890Y388219D01*
X149941Y388201D01*
X150000Y388176D01*
X150062Y388143D01*
X150123Y388107D01*
X150182Y388059D01*
X150185Y388056D01*
X150189Y388052D01*
X150200Y388041D01*
X150214Y388030D01*
X150251Y387994D01*
X150294Y387943D01*
X150342Y387881D01*
X150393Y387808D01*
X150440Y387724D01*
X150480Y387630D01*
Y387626D01*
X150484Y387619D01*
X150491Y387604D01*
X150495Y387582D01*
X150506Y387557D01*
X150513Y387528D01*
X150520Y387495D01*
X150531Y387455D01*
X150542Y387415D01*
X150549Y387368D01*
X150567Y387266D01*
X150578Y387153D01*
X150582Y387029D01*
Y387026D01*
Y387018D01*
Y387000D01*
Y386982D01*
X150578Y386956D01*
Y386927D01*
X150575Y386858D01*
X150564Y386778D01*
X150553Y386694D01*
X150535Y386607D01*
X150513Y386520D01*
Y386516D01*
X150509Y386509D01*
X150506Y386498D01*
X150502Y386483D01*
X150487Y386443D01*
X150466Y386392D01*
X150444Y386334D01*
X150415Y386276D01*
X150378Y386214D01*
X150342Y386156D01*
X150338Y386148D01*
X150324Y386130D01*
X150302Y386105D01*
X150273Y386072D01*
X150240Y386035D01*
X150200Y385999D01*
X150160Y385959D01*
X150112Y385926D01*
X150105Y385923D01*
X150091Y385912D01*
X150065Y385897D01*
X150029Y385879D01*
X149985Y385857D01*
X149934Y385839D01*
X149876Y385817D01*
X149810Y385799D01*
X149803D01*
X149792Y385795D01*
X149781Y385792D01*
X149745Y385788D01*
X149694Y385781D01*
X149636Y385773D01*
X149566Y385766D01*
X149490Y385763D01*
X149406Y385759D01*
X148500D01*
Y388278D01*
X149468D01*
X149534Y388274D01*
D02*
G37*
G36*
X332547Y302584D02*
X332591D01*
X332638Y302580D01*
X332689Y302577D01*
X332806Y302566D01*
X332926Y302548D01*
X333042Y302526D01*
X333097Y302511D01*
X333152Y302493D01*
X333155D01*
X333162Y302490D01*
X333177Y302482D01*
X333195Y302475D01*
X333221Y302468D01*
X333246Y302453D01*
X333308Y302424D01*
X333374Y302388D01*
X333446Y302340D01*
X333512Y302286D01*
X333574Y302220D01*
Y302217D01*
X333581Y302213D01*
X333588Y302202D01*
X333596Y302187D01*
X333607Y302169D01*
X333621Y302151D01*
X333647Y302096D01*
X333672Y302031D01*
X333698Y301955D01*
X333712Y301864D01*
X333719Y301765D01*
Y301729D01*
X333716Y301703D01*
X333712Y301674D01*
X333705Y301638D01*
X333698Y301598D01*
X333687Y301554D01*
X333672Y301510D01*
X333658Y301463D01*
X333636Y301416D01*
X333610Y301368D01*
X333581Y301321D01*
X333545Y301274D01*
X333505Y301230D01*
X333461Y301190D01*
X333457Y301186D01*
X333446Y301179D01*
X333428Y301168D01*
X333399Y301150D01*
X333366Y301132D01*
X333323Y301114D01*
X333272Y301088D01*
X333213Y301066D01*
X333148Y301045D01*
X333071Y301023D01*
X332988Y301001D01*
X332893Y300983D01*
X332791Y300964D01*
X332682Y300954D01*
X332562Y300946D01*
X332435Y300942D01*
X332431D01*
X332416D01*
X332391D01*
X332362D01*
X332322Y300946D01*
X332278D01*
X332231Y300950D01*
X332176Y300954D01*
X332063Y300964D01*
X331943Y300983D01*
X331823Y301004D01*
X331768Y301019D01*
X331714Y301034D01*
X331710D01*
X331703Y301037D01*
X331688Y301045D01*
X331670Y301052D01*
X331645Y301059D01*
X331619Y301074D01*
X331557Y301103D01*
X331492Y301139D01*
X331423Y301186D01*
X331353Y301241D01*
X331295Y301307D01*
Y301310D01*
X331288Y301314D01*
X331281Y301325D01*
X331273Y301339D01*
X331259Y301358D01*
X331248Y301379D01*
X331219Y301434D01*
X331193Y301500D01*
X331168Y301576D01*
X331153Y301667D01*
X331146Y301765D01*
Y301798D01*
X331150Y301838D01*
X331157Y301885D01*
X331168Y301940D01*
X331182Y301998D01*
X331201Y302060D01*
X331230Y302118D01*
Y302122D01*
X331233Y302126D01*
X331244Y302144D01*
X331262Y302173D01*
X331288Y302209D01*
X331324Y302249D01*
X331364Y302293D01*
X331412Y302333D01*
X331466Y302373D01*
X331474Y302377D01*
X331492Y302391D01*
X331524Y302406D01*
X331572Y302431D01*
X331626Y302453D01*
X331688Y302482D01*
X331761Y302508D01*
X331841Y302530D01*
X331845D01*
X331852Y302533D01*
X331863Y302537D01*
X331881Y302540D01*
X331903Y302544D01*
X331929Y302548D01*
X331961Y302555D01*
X331998Y302559D01*
X332038Y302566D01*
X332081Y302570D01*
X332132Y302573D01*
X332183Y302580D01*
X332242Y302584D01*
X332300D01*
X332365Y302588D01*
X332435D01*
X332438D01*
X332453D01*
X332478D01*
X332507D01*
X332547Y302584D01*
D02*
G37*
G36*
X143988Y300362D02*
X144017Y300358D01*
X144050Y300351D01*
X144086Y300344D01*
X144126Y300336D01*
X144213Y300307D01*
X144261Y300285D01*
X144305Y300264D01*
X144352Y300234D01*
X144399Y300202D01*
X144447Y300165D01*
X144490Y300121D01*
X144494Y300118D01*
X144501Y300111D01*
X144512Y300096D01*
X144527Y300078D01*
X144545Y300056D01*
X144563Y300027D01*
X144585Y299994D01*
X144603Y299954D01*
X144625Y299914D01*
X144647Y299867D01*
X144665Y299819D01*
X144683Y299765D01*
X144698Y299707D01*
X144709Y299645D01*
X144716Y299583D01*
X144720Y299514D01*
Y299481D01*
X144716Y299459D01*
X144712Y299430D01*
X144709Y299397D01*
X144701Y299361D01*
X144694Y299321D01*
X144672Y299233D01*
X144636Y299142D01*
X144614Y299095D01*
X144588Y299051D01*
X144556Y299008D01*
X144523Y298964D01*
X144519Y298960D01*
X144512Y298953D01*
X144501Y298942D01*
X144486Y298931D01*
X144468Y298913D01*
X144443Y298895D01*
X144417Y298873D01*
X144385Y298851D01*
X144348Y298829D01*
X144312Y298808D01*
X144224Y298767D01*
X144123Y298735D01*
X144068Y298724D01*
X144010Y298716D01*
X143970Y299026D01*
X143973D01*
X143981Y299029D01*
X143995Y299033D01*
X144013Y299037D01*
X144035Y299040D01*
X144061Y299048D01*
X144115Y299066D01*
X144181Y299091D01*
X144243Y299124D01*
X144301Y299161D01*
X144352Y299204D01*
X144355Y299212D01*
X144370Y299226D01*
X144388Y299255D01*
X144406Y299292D01*
X144428Y299335D01*
X144447Y299390D01*
X144461Y299452D01*
X144465Y299517D01*
Y299539D01*
X144461Y299554D01*
X144457Y299594D01*
X144447Y299645D01*
X144428Y299703D01*
X144403Y299765D01*
X144366Y299827D01*
X144315Y299885D01*
X144308Y299892D01*
X144286Y299910D01*
X144254Y299932D01*
X144210Y299961D01*
X144155Y299991D01*
X144093Y300012D01*
X144021Y300030D01*
X143940Y300038D01*
X143937D01*
X143930D01*
X143919D01*
X143904Y300034D01*
X143864Y300030D01*
X143817Y300020D01*
X143758Y300005D01*
X143700Y299980D01*
X143642Y299943D01*
X143587Y299896D01*
X143580Y299888D01*
X143566Y299870D01*
X143544Y299841D01*
X143518Y299801D01*
X143493Y299750D01*
X143471Y299688D01*
X143456Y299619D01*
X143449Y299543D01*
Y299510D01*
X143453Y299484D01*
X143456Y299452D01*
X143464Y299415D01*
X143471Y299372D01*
X143482Y299324D01*
X143209Y299361D01*
Y299379D01*
X143212Y299394D01*
Y299441D01*
X143205Y299481D01*
X143198Y299528D01*
X143187Y299583D01*
X143169Y299645D01*
X143143Y299703D01*
X143111Y299765D01*
Y299768D01*
X143107Y299772D01*
X143092Y299790D01*
X143067Y299816D01*
X143034Y299845D01*
X142987Y299874D01*
X142932Y299900D01*
X142870Y299918D01*
X142834Y299925D01*
X142794D01*
X142790D01*
X142787D01*
X142765D01*
X142736Y299918D01*
X142696Y299910D01*
X142652Y299896D01*
X142605Y299878D01*
X142557Y299849D01*
X142514Y299809D01*
X142510Y299805D01*
X142495Y299787D01*
X142477Y299761D01*
X142455Y299728D01*
X142437Y299685D01*
X142419Y299634D01*
X142404Y299575D01*
X142401Y299510D01*
Y299481D01*
X142408Y299448D01*
X142415Y299404D01*
X142430Y299357D01*
X142448Y299310D01*
X142477Y299259D01*
X142514Y299212D01*
X142517Y299208D01*
X142535Y299193D01*
X142561Y299171D01*
X142597Y299146D01*
X142645Y299120D01*
X142703Y299095D01*
X142772Y299073D01*
X142852Y299059D01*
X142798Y298749D01*
X142794D01*
X142783Y298753D01*
X142768Y298757D01*
X142747Y298760D01*
X142721Y298767D01*
X142692Y298778D01*
X142623Y298800D01*
X142543Y298837D01*
X142463Y298880D01*
X142386Y298935D01*
X142317Y299004D01*
X142313Y299008D01*
X142310Y299015D01*
X142303Y299026D01*
X142292Y299040D01*
X142277Y299059D01*
X142262Y299084D01*
X142248Y299110D01*
X142230Y299142D01*
X142201Y299215D01*
X142172Y299299D01*
X142153Y299397D01*
X142146Y299448D01*
Y299539D01*
X142150Y299579D01*
X142157Y299626D01*
X142168Y299685D01*
X142186Y299750D01*
X142208Y299816D01*
X142237Y299881D01*
Y299885D01*
X142241Y299888D01*
X142252Y299910D01*
X142273Y299943D01*
X142299Y299980D01*
X142335Y300023D01*
X142375Y300067D01*
X142423Y300111D01*
X142477Y300147D01*
X142484Y300151D01*
X142503Y300162D01*
X142535Y300176D01*
X142576Y300194D01*
X142623Y300213D01*
X142677Y300227D01*
X142739Y300238D01*
X142801Y300242D01*
X142808D01*
X142830D01*
X142859Y300238D01*
X142900Y300231D01*
X142947Y300220D01*
X142998Y300202D01*
X143049Y300180D01*
X143100Y300151D01*
X143107Y300147D01*
X143122Y300136D01*
X143147Y300114D01*
X143176Y300085D01*
X143209Y300049D01*
X143245Y300005D01*
X143278Y299954D01*
X143311Y299892D01*
Y299896D01*
X143314Y299903D01*
X143318Y299914D01*
X143322Y299929D01*
X143336Y299969D01*
X143358Y300020D01*
X143387Y300078D01*
X143424Y300136D01*
X143471Y300191D01*
X143526Y300242D01*
X143533Y300245D01*
X143555Y300260D01*
X143591Y300282D01*
X143638Y300304D01*
X143697Y300325D01*
X143766Y300347D01*
X143846Y300362D01*
X143933Y300365D01*
X143937D01*
X143948D01*
X143966D01*
X143988Y300362D01*
D02*
G37*
G36*
X333676Y299840D02*
X331707D01*
X331710Y299836D01*
X331725Y299818D01*
X331747Y299796D01*
X331772Y299760D01*
X331805Y299720D01*
X331841Y299669D01*
X331881Y299610D01*
X331921Y299545D01*
Y299541D01*
X331925Y299537D01*
X331940Y299516D01*
X331958Y299479D01*
X331979Y299436D01*
X332005Y299385D01*
X332031Y299330D01*
X332056Y299275D01*
X332078Y299221D01*
X331779D01*
Y299224D01*
X331772Y299232D01*
X331768Y299246D01*
X331757Y299265D01*
X331747Y299286D01*
X331732Y299312D01*
X331696Y299374D01*
X331656Y299447D01*
X331605Y299519D01*
X331546Y299596D01*
X331485Y299672D01*
X331481Y299676D01*
X331477Y299679D01*
X331466Y299690D01*
X331455Y299705D01*
X331419Y299738D01*
X331375Y299781D01*
X331324Y299825D01*
X331266Y299872D01*
X331208Y299912D01*
X331146Y299949D01*
Y300149D01*
X333676D01*
Y299840D01*
D02*
G37*
G36*
Y298373D02*
X333152Y298042D01*
X333148D01*
X333141Y298034D01*
X333130Y298027D01*
X333115Y298016D01*
X333075Y297990D01*
X333024Y297958D01*
X332970Y297918D01*
X332911Y297878D01*
X332857Y297838D01*
X332806Y297801D01*
X332802Y297798D01*
X332788Y297787D01*
X332766Y297768D01*
X332740Y297743D01*
X332686Y297688D01*
X332660Y297659D01*
X332638Y297630D01*
X332635Y297626D01*
X332631Y297619D01*
X332624Y297605D01*
X332613Y297583D01*
X332602Y297561D01*
X332591Y297535D01*
X332573Y297477D01*
Y297474D01*
X332569Y297466D01*
Y297452D01*
X332566Y297434D01*
X332562Y297408D01*
Y297379D01*
X332558Y297339D01*
Y296909D01*
X333676D01*
Y296574D01*
X331157D01*
Y297743D01*
X331160Y297772D01*
Y297805D01*
X331164Y297881D01*
X331175Y297961D01*
X331186Y298049D01*
X331204Y298129D01*
X331215Y298169D01*
X331226Y298202D01*
Y298205D01*
X331230Y298209D01*
X331241Y298231D01*
X331255Y298264D01*
X331281Y298304D01*
X331313Y298347D01*
X331357Y298394D01*
X331408Y298438D01*
X331466Y298482D01*
X331470D01*
X331474Y298486D01*
X331495Y298500D01*
X331532Y298515D01*
X331579Y298536D01*
X331634Y298555D01*
X331699Y298573D01*
X331768Y298584D01*
X331845Y298587D01*
X331849D01*
X331856D01*
X331870D01*
X331889Y298584D01*
X331914D01*
X331940Y298580D01*
X332001Y298566D01*
X332074Y298544D01*
X332151Y298515D01*
X332227Y298471D01*
X332263Y298442D01*
X332300Y298413D01*
X332304Y298409D01*
X332307Y298406D01*
X332318Y298394D01*
X332329Y298380D01*
X332344Y298362D01*
X332358Y298340D01*
X332376Y298311D01*
X332398Y298282D01*
X332416Y298245D01*
X332435Y298205D01*
X332456Y298162D01*
X332475Y298114D01*
X332489Y298060D01*
X332507Y298005D01*
X332518Y297943D01*
X332529Y297878D01*
X332533Y297885D01*
X332540Y297900D01*
X332555Y297921D01*
X332569Y297951D01*
X332609Y298016D01*
X332635Y298049D01*
X332657Y298078D01*
X332664Y298085D01*
X332682Y298103D01*
X332711Y298132D01*
X332748Y298169D01*
X332799Y298209D01*
X332853Y298256D01*
X332919Y298304D01*
X332991Y298355D01*
X333676Y298788D01*
Y298373D01*
D02*
G37*
G36*
X144676Y298101D02*
X144152Y297770D01*
X144148D01*
X144141Y297763D01*
X144130Y297756D01*
X144115Y297745D01*
X144075Y297719D01*
X144024Y297686D01*
X143970Y297646D01*
X143911Y297606D01*
X143857Y297566D01*
X143806Y297530D01*
X143802Y297526D01*
X143788Y297515D01*
X143766Y297497D01*
X143740Y297472D01*
X143686Y297417D01*
X143660Y297388D01*
X143638Y297359D01*
X143635Y297355D01*
X143631Y297348D01*
X143624Y297333D01*
X143613Y297311D01*
X143602Y297290D01*
X143591Y297264D01*
X143573Y297206D01*
Y297202D01*
X143569Y297195D01*
Y297180D01*
X143566Y297162D01*
X143562Y297137D01*
Y297108D01*
X143558Y297067D01*
Y296638D01*
X144676D01*
Y296303D01*
X142157D01*
Y297472D01*
X142160Y297501D01*
Y297533D01*
X142164Y297610D01*
X142175Y297690D01*
X142186Y297777D01*
X142204Y297857D01*
X142215Y297898D01*
X142226Y297930D01*
Y297934D01*
X142230Y297937D01*
X142241Y297959D01*
X142255Y297992D01*
X142281Y298032D01*
X142313Y298076D01*
X142357Y298123D01*
X142408Y298167D01*
X142466Y298211D01*
X142470D01*
X142474Y298214D01*
X142495Y298229D01*
X142532Y298243D01*
X142579Y298265D01*
X142634Y298283D01*
X142699Y298302D01*
X142768Y298312D01*
X142845Y298316D01*
X142849D01*
X142856D01*
X142870D01*
X142888Y298312D01*
X142914D01*
X142939Y298309D01*
X143001Y298294D01*
X143074Y298272D01*
X143151Y298243D01*
X143227Y298200D01*
X143263Y298170D01*
X143300Y298141D01*
X143304Y298138D01*
X143307Y298134D01*
X143318Y298123D01*
X143329Y298109D01*
X143343Y298090D01*
X143358Y298069D01*
X143376Y298039D01*
X143398Y298010D01*
X143416Y297974D01*
X143435Y297934D01*
X143456Y297890D01*
X143475Y297843D01*
X143489Y297788D01*
X143507Y297734D01*
X143518Y297672D01*
X143529Y297606D01*
X143533Y297614D01*
X143540Y297628D01*
X143555Y297650D01*
X143569Y297679D01*
X143609Y297745D01*
X143635Y297777D01*
X143657Y297807D01*
X143664Y297814D01*
X143682Y297832D01*
X143711Y297861D01*
X143748Y297898D01*
X143798Y297937D01*
X143853Y297985D01*
X143919Y298032D01*
X143991Y298083D01*
X144676Y298516D01*
Y298101D01*
D02*
G37*
G36*
X143922Y225401D02*
X143944D01*
X144002Y225390D01*
X144071Y225379D01*
X144144Y225361D01*
X144224Y225336D01*
X144301Y225299D01*
X144305D01*
X144308Y225296D01*
X144319Y225288D01*
X144334Y225281D01*
X144370Y225259D01*
X144417Y225226D01*
X144468Y225186D01*
X144519Y225139D01*
X144570Y225081D01*
X144614Y225019D01*
Y225015D01*
X144617Y225012D01*
X144625Y225001D01*
X144629Y224986D01*
X144647Y224950D01*
X144665Y224902D01*
X144687Y224840D01*
X144701Y224771D01*
X144716Y224695D01*
X144720Y224611D01*
Y224593D01*
X144716Y224575D01*
Y224546D01*
X144712Y224513D01*
X144705Y224477D01*
X144694Y224433D01*
X144683Y224389D01*
X144668Y224338D01*
X144650Y224287D01*
X144629Y224236D01*
X144599Y224182D01*
X144567Y224131D01*
X144530Y224080D01*
X144486Y224029D01*
X144436Y223981D01*
X144432Y223978D01*
X144421Y223971D01*
X144406Y223960D01*
X144381Y223945D01*
X144348Y223923D01*
X144312Y223905D01*
X144264Y223883D01*
X144213Y223861D01*
X144152Y223836D01*
X144082Y223814D01*
X144006Y223796D01*
X143922Y223778D01*
X143828Y223760D01*
X143726Y223748D01*
X143616Y223741D01*
X143500Y223738D01*
X143496D01*
X143493D01*
X143482D01*
X143467D01*
X143431Y223741D01*
X143380D01*
X143322Y223745D01*
X143253Y223752D01*
X143176Y223760D01*
X143092Y223770D01*
X143009Y223785D01*
X142918Y223803D01*
X142830Y223825D01*
X142743Y223850D01*
X142659Y223883D01*
X142579Y223920D01*
X142503Y223960D01*
X142437Y224007D01*
X142434Y224011D01*
X142426Y224018D01*
X142412Y224032D01*
X142390Y224051D01*
X142368Y224073D01*
X142346Y224102D01*
X142317Y224138D01*
X142292Y224174D01*
X142266Y224218D01*
X142237Y224265D01*
X142215Y224320D01*
X142190Y224375D01*
X142172Y224436D01*
X142157Y224502D01*
X142150Y224571D01*
X142146Y224644D01*
Y224673D01*
X142150Y224695D01*
Y224720D01*
X142153Y224749D01*
X142168Y224819D01*
X142186Y224895D01*
X142215Y224975D01*
X142259Y225055D01*
X142284Y225095D01*
X142313Y225132D01*
X142317Y225135D01*
X142321Y225139D01*
X142332Y225150D01*
X142342Y225161D01*
X142361Y225179D01*
X142383Y225194D01*
X142434Y225234D01*
X142499Y225274D01*
X142579Y225310D01*
X142670Y225343D01*
X142772Y225365D01*
X142798Y225055D01*
X142794D01*
X142790Y225052D01*
X142768Y225048D01*
X142736Y225037D01*
X142696Y225023D01*
X142652Y225008D01*
X142608Y224986D01*
X142568Y224961D01*
X142535Y224935D01*
X142528Y224928D01*
X142514Y224913D01*
X142492Y224888D01*
X142466Y224851D01*
X142445Y224804D01*
X142423Y224753D01*
X142408Y224691D01*
X142401Y224626D01*
Y224600D01*
X142404Y224571D01*
X142412Y224538D01*
X142423Y224495D01*
X142437Y224451D01*
X142455Y224407D01*
X142484Y224364D01*
X142488Y224356D01*
X142503Y224338D01*
X142528Y224313D01*
X142565Y224280D01*
X142608Y224244D01*
X142659Y224203D01*
X142725Y224167D01*
X142798Y224131D01*
X142801D01*
X142808Y224127D01*
X142819Y224124D01*
X142834Y224116D01*
X142856Y224113D01*
X142881Y224105D01*
X142910Y224098D01*
X142947Y224091D01*
X142987Y224080D01*
X143031Y224073D01*
X143078Y224065D01*
X143129Y224062D01*
X143187Y224054D01*
X143245Y224051D01*
X143311Y224047D01*
X143376D01*
X143373Y224051D01*
X143351Y224065D01*
X143322Y224091D01*
X143285Y224124D01*
X143242Y224160D01*
X143202Y224207D01*
X143161Y224258D01*
X143125Y224316D01*
Y224320D01*
X143122Y224324D01*
X143111Y224345D01*
X143100Y224378D01*
X143081Y224422D01*
X143067Y224473D01*
X143056Y224531D01*
X143045Y224593D01*
X143041Y224659D01*
Y224688D01*
X143045Y224710D01*
X143049Y224739D01*
X143052Y224768D01*
X143060Y224804D01*
X143070Y224840D01*
X143096Y224924D01*
X143114Y224968D01*
X143140Y225012D01*
X143165Y225055D01*
X143194Y225103D01*
X143231Y225146D01*
X143271Y225186D01*
X143274Y225190D01*
X143282Y225197D01*
X143293Y225208D01*
X143311Y225219D01*
X143336Y225237D01*
X143362Y225255D01*
X143394Y225274D01*
X143431Y225296D01*
X143471Y225317D01*
X143515Y225336D01*
X143566Y225354D01*
X143616Y225372D01*
X143671Y225383D01*
X143733Y225394D01*
X143795Y225401D01*
X143860Y225405D01*
X143864D01*
X143871D01*
X143882D01*
X143901D01*
X143922Y225401D01*
D02*
G37*
G36*
X332486Y225637D02*
X332533D01*
X332587Y225633D01*
X332642Y225626D01*
X332766Y225615D01*
X332897Y225597D01*
X333021Y225571D01*
X333083Y225553D01*
X333137Y225535D01*
X333141D01*
X333148Y225531D01*
X333162Y225524D01*
X333184Y225517D01*
X333206Y225506D01*
X333235Y225491D01*
X333297Y225455D01*
X333366Y225411D01*
X333439Y225360D01*
X333508Y225295D01*
X333570Y225222D01*
Y225218D01*
X333577Y225211D01*
X333585Y225200D01*
X333592Y225185D01*
X333603Y225164D01*
X333617Y225142D01*
X333632Y225113D01*
X333643Y225083D01*
X333672Y225014D01*
X333698Y224931D01*
X333712Y224840D01*
X333719Y224738D01*
Y224709D01*
X333716Y224690D01*
Y224665D01*
X333712Y224636D01*
X333698Y224567D01*
X333679Y224490D01*
X333650Y224410D01*
X333610Y224330D01*
X333585Y224290D01*
X333556Y224254D01*
X333552Y224250D01*
X333548Y224246D01*
X333538Y224235D01*
X333526Y224224D01*
X333508Y224210D01*
X333487Y224192D01*
X333436Y224155D01*
X333370Y224119D01*
X333290Y224082D01*
X333199Y224053D01*
X333093Y224032D01*
X333068Y224330D01*
X333071D01*
X333079Y224334D01*
X333086D01*
X333101Y224337D01*
X333141Y224348D01*
X333184Y224363D01*
X333235Y224381D01*
X333286Y224407D01*
X333334Y224436D01*
X333374Y224472D01*
X333377Y224476D01*
X333388Y224490D01*
X333403Y224516D01*
X333417Y224545D01*
X333436Y224585D01*
X333450Y224632D01*
X333461Y224687D01*
X333465Y224745D01*
Y224770D01*
X333461Y224796D01*
X333457Y224829D01*
X333450Y224869D01*
X333439Y224909D01*
X333425Y224953D01*
X333403Y224992D01*
X333399Y224996D01*
X333392Y225011D01*
X333377Y225032D01*
X333355Y225054D01*
X333330Y225083D01*
X333301Y225113D01*
X333268Y225142D01*
X333228Y225171D01*
X333224Y225174D01*
X333206Y225182D01*
X333181Y225196D01*
X333148Y225211D01*
X333104Y225229D01*
X333053Y225247D01*
X332995Y225266D01*
X332930Y225284D01*
X332926D01*
X332922Y225287D01*
X332911D01*
X332897Y225291D01*
X332860Y225298D01*
X332813Y225309D01*
X332755Y225317D01*
X332693Y225324D01*
X332624Y225327D01*
X332551Y225331D01*
X332547D01*
X332537D01*
X332518D01*
X332489D01*
X332496Y225327D01*
X332515Y225313D01*
X332540Y225291D01*
X332576Y225266D01*
X332613Y225229D01*
X332653Y225185D01*
X332693Y225134D01*
X332729Y225076D01*
X332733Y225069D01*
X332744Y225047D01*
X332758Y225014D01*
X332773Y224974D01*
X332791Y224920D01*
X332806Y224862D01*
X332817Y224796D01*
X332820Y224727D01*
Y224698D01*
X332817Y224676D01*
X332813Y224647D01*
X332809Y224618D01*
X332802Y224581D01*
X332791Y224545D01*
X332766Y224461D01*
X332748Y224417D01*
X332726Y224374D01*
X332700Y224326D01*
X332667Y224283D01*
X332635Y224239D01*
X332595Y224199D01*
X332591Y224195D01*
X332584Y224188D01*
X332573Y224181D01*
X332555Y224166D01*
X332529Y224148D01*
X332504Y224130D01*
X332471Y224112D01*
X332435Y224093D01*
X332395Y224072D01*
X332351Y224053D01*
X332300Y224035D01*
X332249Y224017D01*
X332191Y224002D01*
X332129Y223995D01*
X332067Y223988D01*
X331998Y223984D01*
X331994D01*
X331979D01*
X331961D01*
X331936Y223988D01*
X331903Y223991D01*
X331863Y223995D01*
X331823Y224002D01*
X331776Y224013D01*
X331681Y224039D01*
X331630Y224057D01*
X331575Y224079D01*
X331524Y224104D01*
X331477Y224137D01*
X331426Y224170D01*
X331383Y224210D01*
X331379Y224214D01*
X331372Y224221D01*
X331361Y224232D01*
X331346Y224250D01*
X331328Y224272D01*
X331306Y224301D01*
X331288Y224330D01*
X331262Y224366D01*
X331241Y224403D01*
X331222Y224447D01*
X331182Y224545D01*
X331168Y224596D01*
X331157Y224654D01*
X331150Y224712D01*
X331146Y224774D01*
Y224800D01*
X331150Y224818D01*
Y224836D01*
X331153Y224862D01*
X331164Y224923D01*
X331179Y224992D01*
X331204Y225069D01*
X331237Y225145D01*
X331281Y225222D01*
Y225225D01*
X331288Y225229D01*
X331295Y225240D01*
X331306Y225255D01*
X331335Y225291D01*
X331375Y225338D01*
X331430Y225386D01*
X331495Y225440D01*
X331572Y225488D01*
X331659Y225531D01*
X331663D01*
X331670Y225535D01*
X331685Y225542D01*
X331703Y225549D01*
X331728Y225557D01*
X331761Y225568D01*
X331798Y225575D01*
X331838Y225586D01*
X331885Y225597D01*
X331940Y225608D01*
X331998Y225615D01*
X332060Y225622D01*
X332129Y225629D01*
X332202Y225637D01*
X332282Y225640D01*
X332365D01*
X332369D01*
X332387D01*
X332413D01*
X332446D01*
X332486Y225637D01*
D02*
G37*
G36*
X333676Y223373D02*
X333152Y223042D01*
X333148D01*
X333141Y223034D01*
X333130Y223027D01*
X333115Y223016D01*
X333075Y222990D01*
X333024Y222958D01*
X332970Y222918D01*
X332911Y222878D01*
X332857Y222838D01*
X332806Y222801D01*
X332802Y222798D01*
X332788Y222787D01*
X332766Y222768D01*
X332740Y222743D01*
X332686Y222688D01*
X332660Y222659D01*
X332638Y222630D01*
X332635Y222626D01*
X332631Y222619D01*
X332624Y222605D01*
X332613Y222583D01*
X332602Y222561D01*
X332591Y222535D01*
X332573Y222477D01*
Y222474D01*
X332569Y222466D01*
Y222452D01*
X332566Y222434D01*
X332562Y222408D01*
Y222379D01*
X332558Y222339D01*
Y221909D01*
X333676D01*
Y221574D01*
X331157D01*
Y222743D01*
X331160Y222772D01*
Y222805D01*
X331164Y222881D01*
X331175Y222961D01*
X331186Y223049D01*
X331204Y223129D01*
X331215Y223169D01*
X331226Y223202D01*
Y223205D01*
X331230Y223209D01*
X331241Y223231D01*
X331255Y223264D01*
X331281Y223304D01*
X331313Y223347D01*
X331357Y223394D01*
X331408Y223438D01*
X331466Y223482D01*
X331470D01*
X331474Y223486D01*
X331495Y223500D01*
X331532Y223515D01*
X331579Y223536D01*
X331634Y223555D01*
X331699Y223573D01*
X331768Y223584D01*
X331845Y223587D01*
X331849D01*
X331856D01*
X331870D01*
X331889Y223584D01*
X331914D01*
X331940Y223580D01*
X332001Y223566D01*
X332074Y223544D01*
X332151Y223515D01*
X332227Y223471D01*
X332263Y223442D01*
X332300Y223413D01*
X332304Y223409D01*
X332307Y223406D01*
X332318Y223394D01*
X332329Y223380D01*
X332344Y223362D01*
X332358Y223340D01*
X332376Y223311D01*
X332398Y223282D01*
X332416Y223245D01*
X332435Y223205D01*
X332456Y223162D01*
X332475Y223114D01*
X332489Y223060D01*
X332507Y223005D01*
X332518Y222943D01*
X332529Y222878D01*
X332533Y222885D01*
X332540Y222900D01*
X332555Y222921D01*
X332569Y222951D01*
X332609Y223016D01*
X332635Y223049D01*
X332657Y223078D01*
X332664Y223085D01*
X332682Y223103D01*
X332711Y223132D01*
X332748Y223169D01*
X332799Y223209D01*
X332853Y223256D01*
X332919Y223304D01*
X332992Y223355D01*
X333676Y223788D01*
Y223373D01*
D02*
G37*
G36*
X144676Y223141D02*
X144152Y222809D01*
X144148D01*
X144141Y222802D01*
X144130Y222795D01*
X144115Y222784D01*
X144075Y222759D01*
X144024Y222726D01*
X143970Y222686D01*
X143911Y222646D01*
X143857Y222606D01*
X143806Y222569D01*
X143802Y222566D01*
X143788Y222555D01*
X143766Y222536D01*
X143740Y222511D01*
X143686Y222456D01*
X143660Y222427D01*
X143638Y222398D01*
X143635Y222394D01*
X143631Y222387D01*
X143624Y222373D01*
X143613Y222351D01*
X143602Y222329D01*
X143591Y222304D01*
X143573Y222245D01*
Y222242D01*
X143569Y222234D01*
Y222220D01*
X143566Y222201D01*
X143562Y222176D01*
Y222147D01*
X143558Y222107D01*
Y221677D01*
X144676D01*
Y221342D01*
X142157D01*
Y222511D01*
X142160Y222540D01*
Y222573D01*
X142164Y222649D01*
X142175Y222729D01*
X142186Y222817D01*
X142204Y222897D01*
X142215Y222937D01*
X142226Y222970D01*
Y222973D01*
X142230Y222977D01*
X142241Y222999D01*
X142255Y223031D01*
X142281Y223072D01*
X142313Y223115D01*
X142357Y223163D01*
X142408Y223206D01*
X142466Y223250D01*
X142470D01*
X142474Y223253D01*
X142495Y223268D01*
X142532Y223283D01*
X142579Y223305D01*
X142634Y223323D01*
X142699Y223341D01*
X142768Y223352D01*
X142845Y223355D01*
X142849D01*
X142856D01*
X142870D01*
X142888Y223352D01*
X142914D01*
X142939Y223348D01*
X143001Y223334D01*
X143074Y223312D01*
X143151Y223283D01*
X143227Y223239D01*
X143263Y223210D01*
X143300Y223181D01*
X143304Y223177D01*
X143307Y223173D01*
X143318Y223163D01*
X143329Y223148D01*
X143343Y223130D01*
X143358Y223108D01*
X143376Y223079D01*
X143398Y223050D01*
X143416Y223013D01*
X143435Y222973D01*
X143456Y222930D01*
X143475Y222882D01*
X143489Y222828D01*
X143507Y222773D01*
X143518Y222711D01*
X143529Y222646D01*
X143533Y222653D01*
X143540Y222668D01*
X143555Y222689D01*
X143569Y222718D01*
X143609Y222784D01*
X143635Y222817D01*
X143657Y222846D01*
X143664Y222853D01*
X143682Y222871D01*
X143711Y222900D01*
X143748Y222937D01*
X143798Y222977D01*
X143853Y223024D01*
X143919Y223072D01*
X143991Y223123D01*
X144676Y223556D01*
Y223141D01*
D02*
G37*
G36*
X333013Y150637D02*
X333039Y150633D01*
X333071Y150629D01*
X333108Y150622D01*
X333148Y150611D01*
X333232Y150586D01*
X333279Y150568D01*
X333323Y150542D01*
X333370Y150517D01*
X333414Y150488D01*
X333457Y150451D01*
X333501Y150411D01*
X333505Y150408D01*
X333512Y150400D01*
X333523Y150389D01*
X333534Y150371D01*
X333552Y150346D01*
X333570Y150320D01*
X333588Y150287D01*
X333610Y150251D01*
X333632Y150211D01*
X333650Y150164D01*
X333668Y150113D01*
X333687Y150062D01*
X333698Y150003D01*
X333709Y149942D01*
X333716Y149880D01*
X333719Y149811D01*
Y149774D01*
X333716Y149749D01*
X333712Y149716D01*
X333709Y149680D01*
X333701Y149639D01*
X333690Y149596D01*
X333665Y149497D01*
X333647Y149446D01*
X333629Y149399D01*
X333603Y149348D01*
X333574Y149297D01*
X333541Y149250D01*
X333501Y149206D01*
X333497Y149203D01*
X333490Y149195D01*
X333479Y149184D01*
X333461Y149170D01*
X333439Y149155D01*
X333414Y149134D01*
X333385Y149115D01*
X333348Y149093D01*
X333312Y149072D01*
X333268Y149053D01*
X333177Y149017D01*
X333122Y149002D01*
X333068Y148992D01*
X333010Y148984D01*
X332951Y148981D01*
X332948D01*
X332941D01*
X332926D01*
X332911Y148984D01*
X332890D01*
X332864Y148988D01*
X332806Y148995D01*
X332740Y149010D01*
X332675Y149032D01*
X332606Y149064D01*
X332540Y149104D01*
X332537D01*
X332533Y149112D01*
X332515Y149126D01*
X332486Y149155D01*
X332449Y149195D01*
X332413Y149246D01*
X332373Y149308D01*
X332340Y149377D01*
X332314Y149461D01*
Y149457D01*
X332311Y149454D01*
X332307Y149443D01*
X332300Y149428D01*
X332285Y149396D01*
X332263Y149352D01*
X332234Y149305D01*
X332198Y149257D01*
X332158Y149214D01*
X332114Y149173D01*
X332107Y149170D01*
X332092Y149159D01*
X332063Y149144D01*
X332027Y149130D01*
X331979Y149112D01*
X331925Y149097D01*
X331863Y149086D01*
X331798Y149083D01*
X331794D01*
X331787D01*
X331772D01*
X331750Y149086D01*
X331728Y149090D01*
X331699Y149093D01*
X331637Y149108D01*
X331565Y149130D01*
X331488Y149166D01*
X331448Y149188D01*
X331408Y149214D01*
X331372Y149246D01*
X331335Y149279D01*
X331332Y149283D01*
X331328Y149290D01*
X331317Y149301D01*
X331306Y149316D01*
X331292Y149334D01*
X331277Y149359D01*
X331259Y149388D01*
X331241Y149417D01*
X331222Y149454D01*
X331204Y149494D01*
X331190Y149538D01*
X331175Y149585D01*
X331153Y149687D01*
X331150Y149745D01*
X331146Y149803D01*
Y149836D01*
X331150Y149858D01*
X331153Y149887D01*
X331157Y149920D01*
X331160Y149956D01*
X331171Y149993D01*
X331193Y150080D01*
X331226Y150167D01*
X331248Y150211D01*
X331273Y150255D01*
X331306Y150295D01*
X331339Y150335D01*
X331343Y150338D01*
X331346Y150342D01*
X331357Y150353D01*
X331372Y150367D01*
X331394Y150382D01*
X331415Y150400D01*
X331470Y150437D01*
X331539Y150473D01*
X331619Y150506D01*
X331710Y150531D01*
X331757Y150535D01*
X331808Y150539D01*
X331812D01*
X331816D01*
X331838D01*
X331870Y150535D01*
X331910Y150528D01*
X331961Y150517D01*
X332012Y150498D01*
X332063Y150477D01*
X332114Y150444D01*
X332121Y150440D01*
X332136Y150426D01*
X332158Y150404D01*
X332187Y150375D01*
X332220Y150335D01*
X332253Y150287D01*
X332285Y150233D01*
X332314Y150167D01*
Y150171D01*
X332318Y150178D01*
X332322Y150189D01*
X332329Y150204D01*
X332347Y150247D01*
X332373Y150298D01*
X332409Y150353D01*
X332449Y150411D01*
X332500Y150466D01*
X332558Y150517D01*
X332562D01*
X332566Y150520D01*
X332587Y150535D01*
X332624Y150557D01*
X332671Y150579D01*
X332729Y150600D01*
X332799Y150622D01*
X332875Y150637D01*
X332959Y150640D01*
X332962D01*
X332973D01*
X332991D01*
X333013Y150637D01*
D02*
G37*
G36*
X140981Y150559D02*
X140988Y150551D01*
X141003Y150537D01*
X141024Y150522D01*
X141050Y150500D01*
X141079Y150471D01*
X141115Y150442D01*
X141159Y150409D01*
X141203Y150377D01*
X141254Y150337D01*
X141312Y150296D01*
X141370Y150257D01*
X141436Y150213D01*
X141505Y150169D01*
X141581Y150126D01*
X141658Y150082D01*
X141662Y150078D01*
X141676Y150071D01*
X141698Y150060D01*
X141731Y150042D01*
X141771Y150023D01*
X141814Y150002D01*
X141865Y149976D01*
X141924Y149951D01*
X141989Y149922D01*
X142055Y149889D01*
X142128Y149860D01*
X142204Y149831D01*
X142360Y149772D01*
X142528Y149718D01*
X142532D01*
X142542Y149714D01*
X142561Y149711D01*
X142582Y149703D01*
X142612Y149696D01*
X142648Y149689D01*
X142688Y149678D01*
X142732Y149671D01*
X142783Y149660D01*
X142837Y149649D01*
X142954Y149630D01*
X143081Y149612D01*
X143219Y149601D01*
Y149285D01*
X143216D01*
X143205D01*
X143190D01*
X143168Y149288D01*
X143139D01*
X143103Y149292D01*
X143063Y149295D01*
X143019Y149299D01*
X142968Y149306D01*
X142917Y149314D01*
X142856Y149325D01*
X142794Y149336D01*
X142728Y149346D01*
X142655Y149361D01*
X142506Y149398D01*
X142502D01*
X142488Y149401D01*
X142466Y149408D01*
X142433Y149419D01*
X142397Y149430D01*
X142353Y149445D01*
X142302Y149459D01*
X142248Y149481D01*
X142186Y149503D01*
X142124Y149525D01*
X141985Y149579D01*
X141840Y149645D01*
X141694Y149718D01*
X141691Y149721D01*
X141676Y149729D01*
X141658Y149740D01*
X141629Y149754D01*
X141596Y149772D01*
X141556Y149798D01*
X141512Y149823D01*
X141465Y149852D01*
X141359Y149922D01*
X141250Y149994D01*
X141137Y150078D01*
X141032Y150165D01*
Y148932D01*
X140733D01*
Y150562D01*
X140977D01*
X140981Y150559D01*
D02*
G37*
G36*
X333676Y148373D02*
X333152Y148041D01*
X333148D01*
X333141Y148034D01*
X333130Y148027D01*
X333115Y148016D01*
X333075Y147991D01*
X333024Y147958D01*
X332970Y147918D01*
X332911Y147878D01*
X332857Y147838D01*
X332806Y147801D01*
X332802Y147798D01*
X332788Y147787D01*
X332766Y147768D01*
X332740Y147743D01*
X332686Y147688D01*
X332660Y147659D01*
X332638Y147630D01*
X332635Y147626D01*
X332631Y147619D01*
X332624Y147605D01*
X332613Y147583D01*
X332602Y147561D01*
X332591Y147536D01*
X332573Y147477D01*
Y147474D01*
X332569Y147466D01*
Y147452D01*
X332566Y147434D01*
X332562Y147408D01*
Y147379D01*
X332558Y147339D01*
Y146909D01*
X333676D01*
Y146575D01*
X331157D01*
Y147743D01*
X331160Y147772D01*
Y147805D01*
X331164Y147881D01*
X331175Y147961D01*
X331186Y148049D01*
X331204Y148129D01*
X331215Y148169D01*
X331226Y148202D01*
Y148205D01*
X331230Y148209D01*
X331241Y148231D01*
X331255Y148264D01*
X331281Y148304D01*
X331313Y148347D01*
X331357Y148395D01*
X331408Y148438D01*
X331466Y148482D01*
X331470D01*
X331474Y148486D01*
X331495Y148500D01*
X331532Y148515D01*
X331579Y148537D01*
X331634Y148555D01*
X331699Y148573D01*
X331768Y148584D01*
X331845Y148588D01*
X331849D01*
X331856D01*
X331870D01*
X331889Y148584D01*
X331914D01*
X331940Y148580D01*
X332001Y148566D01*
X332074Y148544D01*
X332151Y148515D01*
X332227Y148471D01*
X332263Y148442D01*
X332300Y148413D01*
X332304Y148409D01*
X332307Y148406D01*
X332318Y148395D01*
X332329Y148380D01*
X332344Y148362D01*
X332358Y148340D01*
X332376Y148311D01*
X332398Y148282D01*
X332416Y148245D01*
X332435Y148205D01*
X332456Y148162D01*
X332475Y148114D01*
X332489Y148060D01*
X332507Y148005D01*
X332518Y147943D01*
X332529Y147878D01*
X332533Y147885D01*
X332540Y147899D01*
X332555Y147921D01*
X332569Y147950D01*
X332609Y148016D01*
X332635Y148049D01*
X332657Y148078D01*
X332664Y148085D01*
X332682Y148103D01*
X332711Y148133D01*
X332748Y148169D01*
X332799Y148209D01*
X332853Y148256D01*
X332919Y148304D01*
X332991Y148354D01*
X333676Y148788D01*
Y148373D01*
D02*
G37*
G36*
X143219Y148298D02*
X142695Y147967D01*
X142692D01*
X142684Y147960D01*
X142674Y147952D01*
X142659Y147942D01*
X142619Y147916D01*
X142568Y147883D01*
X142513Y147843D01*
X142455Y147803D01*
X142401Y147763D01*
X142350Y147727D01*
X142346Y147723D01*
X142331Y147712D01*
X142309Y147694D01*
X142284Y147669D01*
X142229Y147614D01*
X142204Y147585D01*
X142182Y147556D01*
X142178Y147552D01*
X142175Y147545D01*
X142167Y147530D01*
X142157Y147508D01*
X142146Y147486D01*
X142135Y147461D01*
X142116Y147403D01*
Y147399D01*
X142113Y147392D01*
Y147377D01*
X142109Y147359D01*
X142106Y147334D01*
Y147304D01*
X142102Y147264D01*
Y146835D01*
X143219D01*
Y146500D01*
X140701D01*
Y147669D01*
X140704Y147698D01*
Y147730D01*
X140708Y147807D01*
X140719Y147887D01*
X140730Y147974D01*
X140748Y148054D01*
X140759Y148094D01*
X140770Y148127D01*
Y148131D01*
X140773Y148134D01*
X140784Y148156D01*
X140799Y148189D01*
X140824Y148229D01*
X140857Y148273D01*
X140901Y148320D01*
X140952Y148364D01*
X141010Y148407D01*
X141014D01*
X141017Y148411D01*
X141039Y148426D01*
X141076Y148440D01*
X141123Y148462D01*
X141177Y148480D01*
X141243Y148498D01*
X141312Y148509D01*
X141388Y148513D01*
X141392D01*
X141400D01*
X141414D01*
X141432Y148509D01*
X141458D01*
X141483Y148506D01*
X141545Y148491D01*
X141618Y148469D01*
X141694Y148440D01*
X141771Y148397D01*
X141807Y148367D01*
X141843Y148338D01*
X141847Y148335D01*
X141851Y148331D01*
X141862Y148320D01*
X141873Y148305D01*
X141887Y148287D01*
X141902Y148265D01*
X141920Y148236D01*
X141942Y148207D01*
X141960Y148171D01*
X141978Y148131D01*
X142000Y148087D01*
X142018Y148040D01*
X142033Y147985D01*
X142051Y147931D01*
X142062Y147869D01*
X142073Y147803D01*
X142077Y147810D01*
X142084Y147825D01*
X142098Y147847D01*
X142113Y147876D01*
X142153Y147942D01*
X142178Y147974D01*
X142200Y148003D01*
X142208Y148011D01*
X142226Y148029D01*
X142255Y148058D01*
X142291Y148094D01*
X142342Y148134D01*
X142397Y148182D01*
X142462Y148229D01*
X142535Y148280D01*
X143219Y148713D01*
Y148298D01*
D02*
G37*
%LPC*%
G36*
X202282Y437886D02*
X201449D01*
Y437136D01*
X201452Y437092D01*
X201456Y437042D01*
X201460Y436983D01*
X201467Y436925D01*
X201478Y436867D01*
X201492Y436816D01*
X201496Y436808D01*
X201503Y436794D01*
X201514Y436772D01*
X201529Y436743D01*
X201551Y436710D01*
X201576Y436678D01*
X201609Y436645D01*
X201645Y436619D01*
X201649Y436616D01*
X201663Y436608D01*
X201685Y436597D01*
X201714Y436583D01*
X201747Y436572D01*
X201783Y436561D01*
X201827Y436554D01*
X201871Y436550D01*
X201874D01*
X201878D01*
X201900Y436554D01*
X201933Y436557D01*
X201976Y436565D01*
X202020Y436583D01*
X202071Y436605D01*
X202118Y436637D01*
X202166Y436681D01*
X202169Y436688D01*
X202184Y436707D01*
X202202Y436736D01*
X202224Y436783D01*
X202246Y436838D01*
X202264Y436910D01*
X202279Y436994D01*
X202282Y437092D01*
Y437886D01*
D02*
G37*
G36*
X194239D02*
X193405D01*
Y437136D01*
X193409Y437092D01*
X193412Y437042D01*
X193416Y436983D01*
X193423Y436925D01*
X193434Y436867D01*
X193449Y436816D01*
X193452Y436808D01*
X193460Y436794D01*
X193471Y436772D01*
X193485Y436743D01*
X193507Y436710D01*
X193532Y436678D01*
X193565Y436645D01*
X193602Y436619D01*
X193605Y436616D01*
X193620Y436608D01*
X193642Y436597D01*
X193671Y436583D01*
X193703Y436572D01*
X193740Y436561D01*
X193783Y436554D01*
X193827Y436550D01*
X193831D01*
X193834D01*
X193856Y436554D01*
X193889Y436557D01*
X193933Y436565D01*
X193976Y436583D01*
X194027Y436605D01*
X194075Y436637D01*
X194122Y436681D01*
X194126Y436688D01*
X194140Y436707D01*
X194158Y436736D01*
X194180Y436783D01*
X194202Y436838D01*
X194220Y436910D01*
X194235Y436994D01*
X194239Y437092D01*
Y437886D01*
D02*
G37*
G36*
X192888Y433656D02*
Y432863D01*
X194017D01*
X192888Y433656D01*
D02*
G37*
G36*
X182674Y427319D02*
X182645D01*
X182613Y427311D01*
X182569Y427304D01*
X182521Y427289D01*
X182471Y427271D01*
X182423Y427242D01*
X182376Y427202D01*
X182372Y427199D01*
X182358Y427184D01*
X182340Y427158D01*
X182321Y427126D01*
X182299Y427086D01*
X182281Y427038D01*
X182267Y426987D01*
X182263Y426929D01*
Y426926D01*
Y426922D01*
X182267Y426900D01*
X182270Y426867D01*
X182278Y426827D01*
X182292Y426780D01*
X182310Y426733D01*
X182340Y426682D01*
X182376Y426638D01*
X182379Y426634D01*
X182398Y426620D01*
X182423Y426602D01*
X182456Y426583D01*
X182500Y426561D01*
X182551Y426543D01*
X182609Y426529D01*
X182674Y426525D01*
X182682D01*
X182703Y426529D01*
X182736Y426532D01*
X182780Y426540D01*
X182827Y426554D01*
X182875Y426572D01*
X182925Y426602D01*
X182969Y426638D01*
X182973Y426642D01*
X182987Y426660D01*
X183006Y426682D01*
X183028Y426714D01*
X183049Y426754D01*
X183068Y426802D01*
X183082Y426856D01*
X183086Y426915D01*
Y426918D01*
Y426922D01*
Y426944D01*
X183078Y426976D01*
X183071Y427016D01*
X183057Y427060D01*
X183035Y427107D01*
X183006Y427155D01*
X182966Y427202D01*
X182962Y427206D01*
X182944Y427220D01*
X182918Y427239D01*
X182886Y427260D01*
X182842Y427282D01*
X182794Y427300D01*
X182736Y427315D01*
X182674Y427319D01*
D02*
G37*
G36*
X182664Y426274D02*
X182642D01*
X182627Y426270D01*
X182587Y426267D01*
X182536Y426256D01*
X182478Y426238D01*
X182420Y426212D01*
X182358Y426176D01*
X182303Y426128D01*
X182296Y426121D01*
X182281Y426103D01*
X182259Y426070D01*
X182234Y426030D01*
X182205Y425976D01*
X182183Y425914D01*
X182168Y425844D01*
X182161Y425768D01*
Y425761D01*
Y425746D01*
X182165Y425721D01*
X182168Y425688D01*
X182176Y425648D01*
X182187Y425604D01*
X182201Y425561D01*
X182219Y425513D01*
X182223Y425510D01*
X182230Y425491D01*
X182245Y425469D01*
X182267Y425444D01*
X182292Y425411D01*
X182325Y425379D01*
X182361Y425349D01*
X182405Y425320D01*
X182412Y425317D01*
X182427Y425309D01*
X182452Y425298D01*
X182485Y425287D01*
X182525Y425277D01*
X182572Y425266D01*
X182623Y425258D01*
X182674Y425255D01*
X182696D01*
X182711Y425258D01*
X182755Y425262D01*
X182805Y425273D01*
X182864Y425291D01*
X182925Y425313D01*
X182984Y425349D01*
X183042Y425397D01*
X183049Y425404D01*
X183064Y425422D01*
X183089Y425455D01*
X183115Y425495D01*
X183140Y425546D01*
X183166Y425608D01*
X183180Y425681D01*
X183188Y425757D01*
Y425761D01*
Y425768D01*
Y425779D01*
X183184Y425794D01*
X183180Y425834D01*
X183169Y425888D01*
X183151Y425943D01*
X183126Y426005D01*
X183089Y426066D01*
X183038Y426125D01*
X183031Y426132D01*
X183013Y426147D01*
X182980Y426172D01*
X182937Y426201D01*
X182882Y426227D01*
X182816Y426252D01*
X182744Y426267D01*
X182664Y426274D01*
D02*
G37*
G36*
X154736Y412819D02*
X154707D01*
X154674Y412811D01*
X154630Y412804D01*
X154583Y412789D01*
X154532Y412771D01*
X154485Y412742D01*
X154437Y412702D01*
X154434Y412699D01*
X154419Y412684D01*
X154401Y412659D01*
X154383Y412626D01*
X154361Y412586D01*
X154343Y412538D01*
X154328Y412487D01*
X154325Y412429D01*
Y412426D01*
Y412422D01*
X154328Y412400D01*
X154332Y412367D01*
X154339Y412327D01*
X154354Y412280D01*
X154372Y412233D01*
X154401Y412182D01*
X154437Y412138D01*
X154441Y412134D01*
X154459Y412120D01*
X154485Y412102D01*
X154517Y412083D01*
X154561Y412062D01*
X154612Y412043D01*
X154670Y412029D01*
X154736Y412025D01*
X154743D01*
X154765Y412029D01*
X154798Y412032D01*
X154841Y412040D01*
X154889Y412054D01*
X154936Y412072D01*
X154987Y412102D01*
X155031Y412138D01*
X155034Y412142D01*
X155049Y412160D01*
X155067Y412182D01*
X155089Y412214D01*
X155111Y412254D01*
X155129Y412302D01*
X155144Y412356D01*
X155147Y412415D01*
Y412418D01*
Y412422D01*
Y412444D01*
X155140Y412476D01*
X155133Y412516D01*
X155118Y412560D01*
X155096Y412607D01*
X155067Y412655D01*
X155027Y412702D01*
X155024Y412706D01*
X155005Y412720D01*
X154980Y412739D01*
X154947Y412760D01*
X154903Y412782D01*
X154856Y412800D01*
X154798Y412815D01*
X154736Y412819D01*
D02*
G37*
G36*
X154725Y411774D02*
X154703D01*
X154689Y411770D01*
X154649Y411767D01*
X154598Y411756D01*
X154539Y411738D01*
X154481Y411712D01*
X154419Y411676D01*
X154365Y411628D01*
X154357Y411621D01*
X154343Y411603D01*
X154321Y411570D01*
X154296Y411530D01*
X154266Y411476D01*
X154244Y411414D01*
X154230Y411344D01*
X154223Y411268D01*
Y411261D01*
Y411246D01*
X154226Y411221D01*
X154230Y411188D01*
X154237Y411148D01*
X154248Y411104D01*
X154263Y411060D01*
X154281Y411013D01*
X154285Y411010D01*
X154292Y410991D01*
X154306Y410969D01*
X154328Y410944D01*
X154354Y410911D01*
X154386Y410879D01*
X154423Y410849D01*
X154467Y410820D01*
X154474Y410817D01*
X154488Y410809D01*
X154514Y410798D01*
X154547Y410787D01*
X154587Y410777D01*
X154634Y410766D01*
X154685Y410758D01*
X154736Y410755D01*
X154758D01*
X154772Y410758D01*
X154816Y410762D01*
X154867Y410773D01*
X154925Y410791D01*
X154987Y410813D01*
X155045Y410849D01*
X155104Y410897D01*
X155111Y410904D01*
X155125Y410922D01*
X155151Y410955D01*
X155176Y410995D01*
X155202Y411046D01*
X155227Y411108D01*
X155242Y411181D01*
X155249Y411257D01*
Y411261D01*
Y411268D01*
Y411279D01*
X155245Y411294D01*
X155242Y411334D01*
X155231Y411388D01*
X155213Y411443D01*
X155187Y411505D01*
X155151Y411566D01*
X155100Y411625D01*
X155093Y411632D01*
X155074Y411647D01*
X155042Y411672D01*
X154998Y411701D01*
X154943Y411727D01*
X154878Y411752D01*
X154805Y411767D01*
X154725Y411774D01*
D02*
G37*
G36*
X480964Y404240D02*
X480960D01*
X480945D01*
X480927D01*
X480898Y404236D01*
X480865D01*
X480829Y404233D01*
X480785Y404229D01*
X480741Y404225D01*
X480643Y404207D01*
X480541Y404185D01*
X480447Y404153D01*
X480399Y404131D01*
X480359Y404109D01*
X480356D01*
X480348Y404102D01*
X480337Y404094D01*
X480323Y404087D01*
X480286Y404058D01*
X480243Y404022D01*
X480195Y403974D01*
X480148Y403920D01*
X480108Y403858D01*
X480075Y403792D01*
X480072Y403785D01*
X480068Y403767D01*
X480057Y403734D01*
X480046Y403687D01*
X480039Y403628D01*
X480028Y403556D01*
X480024Y403512D01*
Y403465D01*
X480021Y403417D01*
Y402835D01*
X481943D01*
Y403432D01*
X481939Y403457D01*
X481935Y403512D01*
X481932Y403574D01*
X481924Y403639D01*
X481914Y403705D01*
X481899Y403759D01*
X481895Y403767D01*
X481892Y403785D01*
X481881Y403810D01*
X481866Y403843D01*
X481844Y403880D01*
X481822Y403916D01*
X481797Y403952D01*
X481768Y403989D01*
X481761Y403992D01*
X481746Y404007D01*
X481721Y404029D01*
X481684Y404054D01*
X481637Y404083D01*
X481582Y404116D01*
X481520Y404145D01*
X481451Y404171D01*
X481448D01*
X481440Y404174D01*
X481429Y404178D01*
X481415Y404182D01*
X481397Y404185D01*
X481371Y404193D01*
X481346Y404200D01*
X481317Y404207D01*
X481244Y404218D01*
X481160Y404229D01*
X481065Y404236D01*
X480964Y404240D01*
D02*
G37*
G36*
X164932Y403252D02*
Y402459D01*
X166060D01*
X164932Y403252D01*
D02*
G37*
G36*
X149299Y395508D02*
X148717D01*
Y393586D01*
X149314D01*
X149339Y393590D01*
X149394Y393593D01*
X149456Y393597D01*
X149521Y393604D01*
X149587Y393615D01*
X149641Y393630D01*
X149649Y393634D01*
X149667Y393637D01*
X149692Y393648D01*
X149725Y393663D01*
X149761Y393685D01*
X149798Y393706D01*
X149834Y393732D01*
X149871Y393761D01*
X149874Y393768D01*
X149889Y393783D01*
X149911Y393808D01*
X149936Y393845D01*
X149965Y393892D01*
X149998Y393947D01*
X150027Y394008D01*
X150053Y394078D01*
Y394081D01*
X150056Y394089D01*
X150060Y394099D01*
X150064Y394114D01*
X150067Y394132D01*
X150075Y394158D01*
X150082Y394183D01*
X150089Y394212D01*
X150100Y394285D01*
X150111Y394369D01*
X150118Y394463D01*
X150122Y394565D01*
Y394569D01*
Y394584D01*
Y394602D01*
X150118Y394631D01*
Y394664D01*
X150115Y394700D01*
X150111Y394744D01*
X150107Y394787D01*
X150089Y394886D01*
X150067Y394988D01*
X150034Y395082D01*
X150013Y395129D01*
X149991Y395170D01*
Y395173D01*
X149984Y395181D01*
X149976Y395191D01*
X149969Y395206D01*
X149940Y395242D01*
X149903Y395286D01*
X149856Y395333D01*
X149802Y395381D01*
X149740Y395421D01*
X149674Y395454D01*
X149667Y395457D01*
X149649Y395461D01*
X149616Y395472D01*
X149568Y395483D01*
X149510Y395490D01*
X149437Y395501D01*
X149394Y395504D01*
X149346D01*
X149299Y395508D01*
D02*
G37*
G36*
X149417Y387979D02*
X148835D01*
Y386057D01*
X149432D01*
X149457Y386061D01*
X149512Y386065D01*
X149574Y386068D01*
X149639Y386076D01*
X149705Y386087D01*
X149759Y386101D01*
X149767Y386105D01*
X149785Y386108D01*
X149810Y386119D01*
X149843Y386134D01*
X149880Y386156D01*
X149916Y386177D01*
X149952Y386203D01*
X149989Y386232D01*
X149992Y386239D01*
X150007Y386254D01*
X150029Y386279D01*
X150054Y386316D01*
X150083Y386363D01*
X150116Y386418D01*
X150145Y386480D01*
X150171Y386549D01*
Y386552D01*
X150174Y386560D01*
X150178Y386571D01*
X150182Y386585D01*
X150185Y386603D01*
X150193Y386629D01*
X150200Y386654D01*
X150207Y386683D01*
X150218Y386756D01*
X150229Y386840D01*
X150236Y386935D01*
X150240Y387036D01*
Y387040D01*
Y387055D01*
Y387073D01*
X150236Y387102D01*
Y387135D01*
X150233Y387171D01*
X150229Y387215D01*
X150225Y387259D01*
X150207Y387357D01*
X150185Y387459D01*
X150153Y387553D01*
X150131Y387601D01*
X150109Y387641D01*
Y387644D01*
X150102Y387652D01*
X150094Y387663D01*
X150087Y387677D01*
X150058Y387714D01*
X150022Y387757D01*
X149974Y387805D01*
X149920Y387852D01*
X149858Y387892D01*
X149792Y387925D01*
X149785Y387928D01*
X149767Y387932D01*
X149734Y387943D01*
X149687Y387954D01*
X149628Y387961D01*
X149556Y387972D01*
X149512Y387976D01*
X149465D01*
X149417Y387979D01*
D02*
G37*
G36*
X332547Y302271D02*
X332435D01*
X332431D01*
X332427D01*
X332409D01*
X332376D01*
X332333Y302268D01*
X332285D01*
X332227Y302264D01*
X332165Y302260D01*
X332096Y302253D01*
X331958Y302235D01*
X331889Y302224D01*
X331823Y302209D01*
X331761Y302195D01*
X331703Y302173D01*
X331652Y302151D01*
X331608Y302126D01*
X331605D01*
X331601Y302118D01*
X331590Y302111D01*
X331575Y302100D01*
X331543Y302067D01*
X331503Y302027D01*
X331466Y301973D01*
X331434Y301911D01*
X331419Y301878D01*
X331408Y301842D01*
X331404Y301802D01*
X331401Y301762D01*
Y301740D01*
X331404Y301725D01*
X331412Y301685D01*
X331423Y301638D01*
X331444Y301583D01*
X331477Y301525D01*
X331499Y301496D01*
X331521Y301467D01*
X331550Y301441D01*
X331583Y301416D01*
X331586D01*
X331594Y301409D01*
X331608Y301401D01*
X331626Y301390D01*
X331656Y301379D01*
X331688Y301365D01*
X331728Y301354D01*
X331776Y301339D01*
X331830Y301325D01*
X331892Y301310D01*
X331961Y301296D01*
X332038Y301285D01*
X332125Y301274D01*
X332220Y301267D01*
X332322Y301263D01*
X332435Y301259D01*
X332442D01*
X332460D01*
X332493D01*
X332536Y301263D01*
X332584D01*
X332642Y301267D01*
X332704Y301270D01*
X332769Y301277D01*
X332911Y301296D01*
X332980Y301307D01*
X333046Y301321D01*
X333108Y301336D01*
X333166Y301358D01*
X333217Y301379D01*
X333261Y301405D01*
X333264D01*
X333268Y301412D01*
X333294Y301430D01*
X333326Y301463D01*
X333363Y301503D01*
X333399Y301558D01*
X333432Y301620D01*
X333457Y301689D01*
X333461Y301725D01*
X333465Y301765D01*
Y301787D01*
X333461Y301802D01*
X333454Y301838D01*
X333439Y301889D01*
X333414Y301944D01*
X333377Y302005D01*
X333355Y302034D01*
X333326Y302064D01*
X333297Y302093D01*
X333261Y302122D01*
X333257D01*
X333250Y302129D01*
X333239Y302136D01*
X333221Y302144D01*
X333195Y302158D01*
X333162Y302169D01*
X333126Y302184D01*
X333082Y302198D01*
X333028Y302209D01*
X332970Y302224D01*
X332900Y302238D01*
X332828Y302249D01*
X332740Y302257D01*
X332649Y302264D01*
X332547Y302271D01*
D02*
G37*
G36*
X331849Y298245D02*
X331845D01*
X331841D01*
X331819Y298242D01*
X331787Y298238D01*
X331743Y298231D01*
X331699Y298213D01*
X331648Y298191D01*
X331601Y298158D01*
X331554Y298114D01*
X331550Y298107D01*
X331535Y298089D01*
X331517Y298060D01*
X331495Y298012D01*
X331474Y297958D01*
X331455Y297885D01*
X331441Y297801D01*
X331437Y297703D01*
Y296909D01*
X332271D01*
Y297659D01*
X332267Y297703D01*
X332263Y297754D01*
X332260Y297812D01*
X332253Y297870D01*
X332242Y297929D01*
X332227Y297980D01*
X332223Y297987D01*
X332216Y298001D01*
X332205Y298023D01*
X332191Y298052D01*
X332169Y298085D01*
X332143Y298118D01*
X332111Y298151D01*
X332074Y298176D01*
X332070Y298180D01*
X332056Y298187D01*
X332034Y298198D01*
X332005Y298213D01*
X331972Y298223D01*
X331936Y298234D01*
X331892Y298242D01*
X331849Y298245D01*
D02*
G37*
G36*
X142849Y297974D02*
X142845D01*
X142841D01*
X142819Y297970D01*
X142787Y297967D01*
X142743Y297959D01*
X142699Y297941D01*
X142648Y297919D01*
X142601Y297886D01*
X142554Y297843D01*
X142550Y297836D01*
X142535Y297817D01*
X142517Y297788D01*
X142495Y297741D01*
X142474Y297686D01*
X142455Y297614D01*
X142441Y297530D01*
X142437Y297432D01*
Y296638D01*
X143271D01*
Y297388D01*
X143267Y297432D01*
X143263Y297482D01*
X143260Y297541D01*
X143253Y297599D01*
X143242Y297657D01*
X143227Y297708D01*
X143223Y297715D01*
X143216Y297730D01*
X143205Y297752D01*
X143191Y297781D01*
X143169Y297814D01*
X143143Y297847D01*
X143111Y297879D01*
X143074Y297905D01*
X143070Y297908D01*
X143056Y297916D01*
X143034Y297927D01*
X143005Y297941D01*
X142972Y297952D01*
X142936Y297963D01*
X142892Y297970D01*
X142849Y297974D01*
D02*
G37*
G36*
X143879Y225088D02*
X143875D01*
X143868D01*
X143853D01*
X143835Y225084D01*
X143813D01*
X143788Y225081D01*
X143729Y225070D01*
X143664Y225055D01*
X143595Y225030D01*
X143529Y224993D01*
X143467Y224946D01*
X143460Y224939D01*
X143442Y224921D01*
X143420Y224891D01*
X143391Y224851D01*
X143362Y224800D01*
X143340Y224742D01*
X143322Y224673D01*
X143314Y224597D01*
Y224575D01*
X143318Y224560D01*
X143322Y224524D01*
X143333Y224473D01*
X143351Y224418D01*
X143380Y224356D01*
X143416Y224298D01*
X143467Y224240D01*
X143475Y224233D01*
X143493Y224218D01*
X143526Y224193D01*
X143573Y224167D01*
X143628Y224142D01*
X143697Y224116D01*
X143773Y224102D01*
X143860Y224094D01*
X143868D01*
X143886D01*
X143919Y224098D01*
X143959Y224102D01*
X144006Y224109D01*
X144057Y224124D01*
X144112Y224138D01*
X144166Y224160D01*
X144174Y224164D01*
X144192Y224174D01*
X144217Y224189D01*
X144250Y224211D01*
X144283Y224236D01*
X144323Y224269D01*
X144355Y224306D01*
X144388Y224349D01*
X144392Y224356D01*
X144399Y224371D01*
X144414Y224396D01*
X144425Y224429D01*
X144439Y224466D01*
X144454Y224509D01*
X144461Y224557D01*
X144465Y224608D01*
Y224626D01*
X144461Y224640D01*
X144457Y224677D01*
X144447Y224724D01*
X144425Y224775D01*
X144399Y224833D01*
X144359Y224891D01*
X144337Y224921D01*
X144308Y224946D01*
X144305D01*
X144301Y224953D01*
X144279Y224968D01*
X144243Y224990D01*
X144195Y225019D01*
X144133Y225044D01*
X144061Y225066D01*
X143977Y225081D01*
X143879Y225088D01*
D02*
G37*
G36*
X331983Y225298D02*
X331979D01*
X331972D01*
X331958D01*
X331940Y225295D01*
X331914D01*
X331889Y225291D01*
X331830Y225280D01*
X331761Y225266D01*
X331688Y225240D01*
X331619Y225204D01*
X331557Y225156D01*
X331554D01*
X331550Y225149D01*
X331532Y225131D01*
X331506Y225102D01*
X331477Y225062D01*
X331452Y225011D01*
X331426Y224953D01*
X331408Y224887D01*
X331401Y224851D01*
Y224792D01*
X331404Y224778D01*
X331408Y224738D01*
X331423Y224690D01*
X331441Y224632D01*
X331474Y224570D01*
X331514Y224508D01*
X331543Y224479D01*
X331572Y224450D01*
X331575D01*
X331579Y224443D01*
X331590Y224436D01*
X331601Y224428D01*
X331637Y224403D01*
X331688Y224377D01*
X331750Y224348D01*
X331827Y224323D01*
X331914Y224308D01*
X332009Y224301D01*
X332012D01*
X332020D01*
X332031D01*
X332049Y224305D01*
X332070D01*
X332092Y224308D01*
X332147Y224319D01*
X332209Y224337D01*
X332274Y224359D01*
X332340Y224396D01*
X332398Y224443D01*
X332405Y224450D01*
X332420Y224468D01*
X332446Y224501D01*
X332471Y224541D01*
X332500Y224596D01*
X332525Y224658D01*
X332540Y224727D01*
X332547Y224803D01*
Y224825D01*
X332544Y224840D01*
X332540Y224880D01*
X332529Y224927D01*
X332511Y224985D01*
X332486Y225044D01*
X332449Y225102D01*
X332398Y225156D01*
X332391Y225164D01*
X332369Y225178D01*
X332336Y225200D01*
X332289Y225229D01*
X332231Y225255D01*
X332161Y225276D01*
X332078Y225291D01*
X331983Y225298D01*
D02*
G37*
G36*
X331849Y223245D02*
X331845D01*
X331841D01*
X331819Y223242D01*
X331787Y223238D01*
X331743Y223231D01*
X331699Y223213D01*
X331648Y223191D01*
X331601Y223158D01*
X331554Y223114D01*
X331550Y223107D01*
X331536Y223089D01*
X331517Y223060D01*
X331495Y223012D01*
X331474Y222958D01*
X331455Y222885D01*
X331441Y222801D01*
X331437Y222703D01*
Y221909D01*
X332271D01*
Y222659D01*
X332267Y222703D01*
X332263Y222754D01*
X332260Y222812D01*
X332253Y222870D01*
X332242Y222929D01*
X332227Y222980D01*
X332223Y222987D01*
X332216Y223001D01*
X332205Y223023D01*
X332191Y223052D01*
X332169Y223085D01*
X332143Y223118D01*
X332111Y223151D01*
X332074Y223176D01*
X332070Y223180D01*
X332056Y223187D01*
X332034Y223198D01*
X332005Y223213D01*
X331972Y223223D01*
X331936Y223234D01*
X331892Y223242D01*
X331849Y223245D01*
D02*
G37*
G36*
X142849Y223013D02*
X142845D01*
X142841D01*
X142819Y223010D01*
X142787Y223006D01*
X142743Y222999D01*
X142699Y222980D01*
X142648Y222959D01*
X142601Y222926D01*
X142554Y222882D01*
X142550Y222875D01*
X142535Y222857D01*
X142517Y222828D01*
X142495Y222780D01*
X142474Y222726D01*
X142455Y222653D01*
X142441Y222569D01*
X142437Y222471D01*
Y221677D01*
X143271D01*
Y222427D01*
X143267Y222471D01*
X143263Y222522D01*
X143260Y222580D01*
X143253Y222638D01*
X143242Y222697D01*
X143227Y222748D01*
X143223Y222755D01*
X143216Y222769D01*
X143205Y222791D01*
X143191Y222820D01*
X143169Y222853D01*
X143143Y222886D01*
X143111Y222919D01*
X143074Y222944D01*
X143070Y222948D01*
X143056Y222955D01*
X143034Y222966D01*
X143005Y222980D01*
X142972Y222991D01*
X142936Y223002D01*
X142892Y223010D01*
X142849Y223013D01*
D02*
G37*
G36*
X331805Y150222D02*
X331801D01*
X331798D01*
X331776D01*
X331743Y150215D01*
X331703Y150207D01*
X331659Y150193D01*
X331612Y150171D01*
X331565Y150142D01*
X331517Y150102D01*
X331514Y150098D01*
X331499Y150080D01*
X331481Y150054D01*
X331459Y150022D01*
X331437Y149978D01*
X331419Y149931D01*
X331404Y149872D01*
X331401Y149811D01*
Y149781D01*
X331408Y149749D01*
X331415Y149705D01*
X331430Y149658D01*
X331448Y149607D01*
X331477Y149559D01*
X331517Y149512D01*
X331521Y149508D01*
X331535Y149494D01*
X331561Y149476D01*
X331594Y149457D01*
X331634Y149436D01*
X331681Y149417D01*
X331732Y149403D01*
X331790Y149399D01*
X331794D01*
X331798D01*
X331819Y149403D01*
X331852Y149407D01*
X331892Y149414D01*
X331940Y149428D01*
X331987Y149446D01*
X332038Y149476D01*
X332081Y149512D01*
X332085Y149516D01*
X332100Y149534D01*
X332118Y149559D01*
X332136Y149592D01*
X332158Y149636D01*
X332176Y149687D01*
X332191Y149745D01*
X332194Y149811D01*
Y149818D01*
X332191Y149840D01*
X332187Y149872D01*
X332180Y149916D01*
X332165Y149963D01*
X332147Y150011D01*
X332118Y150062D01*
X332081Y150105D01*
X332078Y150109D01*
X332060Y150124D01*
X332038Y150142D01*
X332005Y150164D01*
X331965Y150185D01*
X331918Y150204D01*
X331863Y150218D01*
X331805Y150222D01*
D02*
G37*
G36*
X332962Y150324D02*
X332959D01*
X332951D01*
X332941D01*
X332926Y150320D01*
X332886Y150317D01*
X332831Y150306D01*
X332777Y150287D01*
X332715Y150262D01*
X332653Y150225D01*
X332595Y150174D01*
X332587Y150167D01*
X332573Y150149D01*
X332547Y150116D01*
X332518Y150073D01*
X332493Y150018D01*
X332467Y149952D01*
X332453Y149880D01*
X332445Y149800D01*
Y149778D01*
X332449Y149763D01*
X332453Y149723D01*
X332464Y149672D01*
X332482Y149614D01*
X332507Y149556D01*
X332544Y149494D01*
X332591Y149439D01*
X332598Y149432D01*
X332616Y149417D01*
X332649Y149396D01*
X332689Y149370D01*
X332744Y149341D01*
X332806Y149319D01*
X332875Y149305D01*
X332951Y149297D01*
X332959D01*
X332973D01*
X332999Y149301D01*
X333032Y149305D01*
X333071Y149312D01*
X333115Y149323D01*
X333159Y149337D01*
X333206Y149355D01*
X333210Y149359D01*
X333228Y149366D01*
X333250Y149381D01*
X333275Y149403D01*
X333308Y149428D01*
X333341Y149461D01*
X333370Y149497D01*
X333399Y149541D01*
X333403Y149548D01*
X333410Y149563D01*
X333421Y149589D01*
X333432Y149621D01*
X333443Y149661D01*
X333454Y149709D01*
X333461Y149760D01*
X333465Y149811D01*
Y149832D01*
X333461Y149847D01*
X333457Y149891D01*
X333447Y149942D01*
X333428Y150000D01*
X333406Y150062D01*
X333370Y150120D01*
X333323Y150178D01*
X333315Y150185D01*
X333297Y150200D01*
X333264Y150225D01*
X333224Y150251D01*
X333173Y150276D01*
X333112Y150302D01*
X333039Y150317D01*
X332962Y150324D01*
D02*
G37*
G36*
X331849Y148245D02*
X331845D01*
X331841D01*
X331819Y148242D01*
X331787Y148238D01*
X331743Y148231D01*
X331699Y148213D01*
X331648Y148191D01*
X331601Y148158D01*
X331554Y148114D01*
X331550Y148107D01*
X331535Y148089D01*
X331517Y148060D01*
X331495Y148012D01*
X331474Y147958D01*
X331455Y147885D01*
X331441Y147801D01*
X331437Y147703D01*
Y146909D01*
X332271D01*
Y147659D01*
X332267Y147703D01*
X332263Y147754D01*
X332260Y147812D01*
X332253Y147870D01*
X332242Y147929D01*
X332227Y147980D01*
X332223Y147987D01*
X332216Y148001D01*
X332205Y148023D01*
X332191Y148052D01*
X332169Y148085D01*
X332143Y148118D01*
X332111Y148151D01*
X332074Y148176D01*
X332070Y148180D01*
X332056Y148187D01*
X332034Y148198D01*
X332005Y148213D01*
X331972Y148223D01*
X331936Y148234D01*
X331892Y148242D01*
X331849Y148245D01*
D02*
G37*
G36*
X141392Y148171D02*
X141388D01*
X141385D01*
X141363Y148167D01*
X141330Y148163D01*
X141287Y148156D01*
X141243Y148138D01*
X141192Y148116D01*
X141145Y148083D01*
X141097Y148040D01*
X141094Y148032D01*
X141079Y148014D01*
X141061Y147985D01*
X141039Y147938D01*
X141017Y147883D01*
X140999Y147810D01*
X140984Y147727D01*
X140981Y147628D01*
Y146835D01*
X141814D01*
Y147585D01*
X141811Y147628D01*
X141807Y147679D01*
X141804Y147738D01*
X141796Y147796D01*
X141785Y147854D01*
X141771Y147905D01*
X141767Y147912D01*
X141760Y147927D01*
X141749Y147949D01*
X141734Y147978D01*
X141712Y148011D01*
X141687Y148043D01*
X141654Y148076D01*
X141618Y148102D01*
X141614Y148105D01*
X141600Y148112D01*
X141578Y148124D01*
X141549Y148138D01*
X141516Y148149D01*
X141480Y148160D01*
X141436Y148167D01*
X141392Y148171D01*
D02*
G37*
%LPD*%
D13*
X357189Y492980D02*
X380811D01*
X357189Y478020D02*
X380811D01*
Y492980D01*
X357189Y478020D02*
Y492980D01*
X352268Y478000D02*
Y493000D01*
X385732D01*
Y478000D02*
Y493000D01*
X352268Y478000D02*
X385732D01*
D14*
X186189Y397460D02*
Y406540D01*
X168054D02*
X186189D01*
X168054Y397460D02*
Y406540D01*
Y397460D02*
X186189D01*
X137161Y397922D02*
X159602D01*
Y390048D02*
Y397922D01*
X137161Y390048D02*
X159602D01*
X137161D02*
Y397922D01*
X137279Y382563D02*
Y390437D01*
Y382563D02*
X159721D01*
Y390437D01*
X137279D02*
X159721D01*
X477563Y391280D02*
X485437D01*
Y413721D01*
X477563D02*
X485437D01*
X477563Y391280D02*
Y413721D01*
X195839Y430724D02*
Y445717D01*
X188161Y430724D02*
X195839D01*
X188161D02*
Y445717D01*
X195839D01*
X203839Y430724D02*
Y445717D01*
X196161Y430724D02*
X203839D01*
X196161D02*
Y445717D01*
X203839D01*
X134055Y399027D02*
Y416973D01*
X142945D01*
Y399027D02*
Y416973D01*
X134055Y399027D02*
X142945D01*
X168445Y398946D02*
Y416892D01*
X159555Y398946D02*
X168445D01*
X159555D02*
Y416892D01*
X168445D01*
X168311Y429540D02*
X186446D01*
Y420460D02*
Y429540D01*
X168311Y420460D02*
X186446D01*
X168311D02*
Y429540D01*
X117453Y273468D02*
Y319138D01*
X170504D01*
Y273468D02*
Y319138D01*
X117453Y273468D02*
X170504D01*
X117453Y198508D02*
Y244177D01*
X170504D01*
Y198508D02*
Y244177D01*
X117453Y198508D02*
X170504D01*
X115953Y123665D02*
Y169335D01*
X169004D01*
Y123665D02*
Y169335D01*
X115953Y123665D02*
X169004D01*
X306453Y123740D02*
Y169409D01*
X359504D01*
Y123740D02*
Y169409D01*
X306453Y123740D02*
X359504D01*
X306453Y198740D02*
Y244409D01*
X359504D01*
Y198740D02*
Y244409D01*
X306453Y198740D02*
X359504D01*
X306453Y273740D02*
Y319409D01*
X359504D01*
Y273740D02*
Y319409D01*
X306453Y273740D02*
X359504D01*
X144020Y416799D02*
X158980D01*
Y404201D02*
Y416799D01*
X144020Y404201D02*
X158980D01*
X144020D02*
Y416799D01*
X183421Y398850D02*
Y405150D01*
X170823D02*
X183421D01*
X170823Y398850D02*
Y405150D01*
Y398850D02*
X183421D01*
X141689Y397528D02*
X155075D01*
Y390442D02*
Y397528D01*
X141689Y390442D02*
X155075D01*
X141689D02*
Y397528D01*
X141807Y382957D02*
Y390043D01*
Y382957D02*
X155193D01*
Y390043D01*
X141807D02*
X155193D01*
X477957Y395807D02*
X485043D01*
Y409193D01*
X477957D02*
X485043D01*
X477957Y395807D02*
Y409193D01*
X195150Y431922D02*
Y444520D01*
X188850Y431922D02*
X195150D01*
X188850D02*
Y444520D01*
X195150D01*
X203150Y431922D02*
Y444520D01*
X196850Y431922D02*
X203150D01*
X196850D02*
Y444520D01*
X203150D01*
X135350Y401701D02*
Y414299D01*
X141650D01*
Y401701D02*
Y414299D01*
X135350Y401701D02*
X141650D01*
X167150Y401619D02*
Y414218D01*
X160850Y401619D02*
X167150D01*
X160850D02*
Y414218D01*
X167150D01*
X171079Y428150D02*
X183677D01*
Y421850D02*
Y428150D01*
X171079Y421850D02*
X183677D01*
X171079D02*
Y428150D01*
X117847Y276618D02*
Y315988D01*
X161153D01*
Y276618D02*
Y315988D01*
X117847Y276618D02*
X161153D01*
X117847Y201658D02*
Y241028D01*
X161153D01*
Y201658D02*
Y241028D01*
X117847Y201658D02*
X161153D01*
X116347Y126815D02*
Y166185D01*
X159653D01*
Y126815D02*
Y166185D01*
X116347Y126815D02*
X159653D01*
X306846Y126890D02*
Y166260D01*
X350153D01*
Y126890D02*
Y166260D01*
X306846Y126890D02*
X350153D01*
X306846Y201889D02*
Y241260D01*
X350153D01*
Y201889D02*
Y241260D01*
X306846Y201889D02*
X350153D01*
X306846Y276889D02*
Y316260D01*
X350153D01*
Y276889D02*
Y316260D01*
X306846Y276889D02*
X350153D01*
X148153Y416405D02*
X154847D01*
Y404595D02*
Y416405D01*
X148153Y404595D02*
X154847D01*
X148153D02*
Y416405D01*
X186189Y397460D02*
Y406540D01*
X168054D02*
X186189D01*
X168054Y397460D02*
Y406540D01*
Y397460D02*
X186189D01*
X137161Y397922D02*
X159602D01*
Y390048D02*
Y397922D01*
X137161Y390048D02*
X159602D01*
X137161D02*
Y397922D01*
X137279Y382563D02*
Y390437D01*
Y382563D02*
X159721D01*
Y390437D01*
X137279D02*
X159721D01*
X477563Y391280D02*
X485437D01*
Y413721D01*
X477563D02*
X485437D01*
X477563Y391280D02*
Y413721D01*
X195839Y430724D02*
Y445717D01*
X188161Y430724D02*
X195839D01*
X188161D02*
Y445717D01*
X195839D01*
X203839Y430724D02*
Y445717D01*
X196161Y430724D02*
X203839D01*
X196161D02*
Y445717D01*
X203839D01*
X134055Y399027D02*
Y416973D01*
X142945D01*
Y399027D02*
Y416973D01*
X134055Y399027D02*
X142945D01*
X168445Y398946D02*
Y416892D01*
X159555Y398946D02*
X168445D01*
X159555D02*
Y416892D01*
X168445D01*
X168311Y429540D02*
X186446D01*
Y420460D02*
Y429540D01*
X168311Y420460D02*
X186446D01*
X168311D02*
Y429540D01*
X117453Y273468D02*
Y319138D01*
X170504D01*
Y273468D02*
Y319138D01*
X117453Y273468D02*
X170504D01*
X117453Y198508D02*
Y244177D01*
X170504D01*
Y198508D02*
Y244177D01*
X117453Y198508D02*
X170504D01*
X115953Y123665D02*
Y169335D01*
X169004D01*
Y123665D02*
Y169335D01*
X115953Y123665D02*
X169004D01*
X306453Y123740D02*
Y169409D01*
X359504D01*
Y123740D02*
Y169409D01*
X306453Y123740D02*
X359504D01*
X306453Y198740D02*
Y244409D01*
X359504D01*
Y198740D02*
Y244409D01*
X306453Y198740D02*
X359504D01*
X306453Y273740D02*
Y319409D01*
X359504D01*
Y273740D02*
Y319409D01*
X306453Y273740D02*
X359504D01*
X144020Y416799D02*
X158980D01*
Y404201D02*
Y416799D01*
X144020Y404201D02*
X158980D01*
X144020D02*
Y416799D01*
X186189Y397460D02*
Y406540D01*
X168054D02*
X186189D01*
X168054Y397460D02*
Y406540D01*
Y397460D02*
X186189D01*
X137161Y397922D02*
X159602D01*
Y390048D02*
Y397922D01*
X137161Y390048D02*
X159602D01*
X137161D02*
Y397922D01*
X137279Y382563D02*
Y390437D01*
Y382563D02*
X159721D01*
Y390437D01*
X137279D02*
X159721D01*
X477563Y391280D02*
X485437D01*
Y413721D01*
X477563D02*
X485437D01*
X477563Y391280D02*
Y413721D01*
X195839Y430724D02*
Y445717D01*
X188161Y430724D02*
X195839D01*
X188161D02*
Y445717D01*
X195839D01*
X203839Y430724D02*
Y445717D01*
X196161Y430724D02*
X203839D01*
X196161D02*
Y445717D01*
X203839D01*
X134055Y399027D02*
Y416973D01*
X142945D01*
Y399027D02*
Y416973D01*
X134055Y399027D02*
X142945D01*
X168445Y398946D02*
Y416892D01*
X159555Y398946D02*
X168445D01*
X159555D02*
Y416892D01*
X168445D01*
X168311Y429540D02*
X186446D01*
Y420460D02*
Y429540D01*
X168311Y420460D02*
X186446D01*
X168311D02*
Y429540D01*
X117453Y273468D02*
Y319138D01*
X170504D01*
Y273468D02*
Y319138D01*
X117453Y273468D02*
X170504D01*
X117453Y198508D02*
Y244177D01*
X170504D01*
Y198508D02*
Y244177D01*
X117453Y198508D02*
X170504D01*
X115953Y123665D02*
Y169335D01*
X169004D01*
Y123665D02*
Y169335D01*
X115953Y123665D02*
X169004D01*
X306453Y123740D02*
Y169409D01*
X359504D01*
Y123740D02*
Y169409D01*
X306453Y123740D02*
X359504D01*
X306453Y198740D02*
Y244409D01*
X359504D01*
Y198740D02*
Y244409D01*
X306453Y198740D02*
X359504D01*
X306453Y273740D02*
Y319409D01*
X359504D01*
Y273740D02*
Y319409D01*
X306453Y273740D02*
X359504D01*
X144020Y416799D02*
X158980D01*
Y404201D02*
Y416799D01*
X144020Y404201D02*
X158980D01*
X144020D02*
Y416799D01*
X181185Y409291D02*
Y416772D01*
X172130D02*
X181185D01*
X172130Y409291D02*
Y416772D01*
Y409291D02*
X181185D01*
D16*
X99791Y499717D02*
X166720D01*
X258713Y496248D02*
X310287D01*
X182567D02*
X234142D01*
X406673Y499764D02*
X435807D01*
X196701Y405732D02*
X196437Y406716D01*
X195717Y407437D01*
X194732Y407701D01*
X193748Y407437D01*
X193027Y406716D01*
X192764Y405732D01*
X193027Y404748D01*
X193748Y404028D01*
X194732Y403764D01*
X195717Y404028D01*
X196437Y404748D01*
X196701Y405732D01*
X438610Y456142D02*
X438346Y457126D01*
X437626Y457846D01*
X436642Y458110D01*
X435658Y457846D01*
X434937Y457126D01*
X434673Y456142D01*
X434937Y455158D01*
X435658Y454437D01*
X436642Y454173D01*
X437626Y454437D01*
X438346Y455158D01*
X438610Y456142D01*
X185752Y421898D02*
X192248D01*
X185752Y409102D02*
X192248D01*
X185752D02*
Y421898D01*
X192248Y409102D02*
Y421898D01*
X188986Y306343D02*
X208671D01*
X188986Y286658D02*
X208671D01*
X188986D02*
Y306343D01*
X208671Y286658D02*
Y306343D01*
X188986Y231725D02*
X208671D01*
X188986Y212040D02*
X208671D01*
X188986D02*
Y231725D01*
X208671Y212040D02*
Y231725D01*
X189253Y156105D02*
X208938D01*
X189253Y136420D02*
X208938D01*
X189253D02*
Y156105D01*
X208938Y136420D02*
Y156105D01*
X376043Y139807D02*
Y153193D01*
X368957Y139807D02*
Y153193D01*
X376043D01*
X368957Y139807D02*
X376043D01*
X397671Y136732D02*
Y156417D01*
X377986Y136732D02*
Y156417D01*
Y136732D02*
X397671D01*
X377986Y156417D02*
X397671D01*
X376508Y214911D02*
Y228297D01*
X369422Y214911D02*
Y228297D01*
X376508D01*
X369422Y214911D02*
X376508D01*
X397782Y211732D02*
Y231417D01*
X378097Y211732D02*
Y231417D01*
Y211732D02*
X397782D01*
X378097Y231417D02*
X397782D01*
X109555Y436724D02*
Y499717D01*
Y436724D02*
X156957D01*
Y499717D01*
X109555D02*
X156957D01*
X258713Y460815D02*
X310287D01*
X258713D02*
Y500185D01*
X310287Y460815D02*
Y500185D01*
X258713D02*
X310287D01*
X289520Y456484D02*
Y460815D01*
X287354Y456484D02*
X289520D01*
X287354D02*
Y460815D01*
X297197Y456484D02*
Y460815D01*
Y456484D02*
X299362D01*
Y460815D01*
X279480Y456484D02*
Y460815D01*
Y456484D02*
X281646D01*
Y460815D01*
X269638Y456484D02*
Y460815D01*
Y456484D02*
X271803D01*
Y460815D01*
X310287Y463374D02*
X316980D01*
Y469279D01*
X310287D02*
X316980D01*
X310287Y493295D02*
X316980D01*
Y487390D02*
Y493295D01*
X310287Y487390D02*
X316980D01*
X252020Y493295D02*
X258713D01*
X252020Y487390D02*
Y493295D01*
Y487390D02*
X258713D01*
X252020Y469279D02*
X258713D01*
X252020Y463374D02*
Y469279D01*
Y463374D02*
X258713D01*
X182567Y460815D02*
X234142D01*
X182567D02*
Y500185D01*
X234142Y460815D02*
Y500185D01*
X182567D02*
X234142D01*
X213374Y456484D02*
Y460815D01*
X211209Y456484D02*
X213374D01*
X211209D02*
Y460815D01*
X221051Y456484D02*
Y460815D01*
Y456484D02*
X223217D01*
Y460815D01*
X203335Y456484D02*
Y460815D01*
Y456484D02*
X205500D01*
Y460815D01*
X193492Y456484D02*
Y460815D01*
Y456484D02*
X195658D01*
Y460815D01*
X234142Y463374D02*
X240835D01*
Y469279D01*
X234142D02*
X240835D01*
X234142Y493295D02*
X240835D01*
Y487390D02*
Y493295D01*
X234142Y487390D02*
X240835D01*
X175874Y493295D02*
X182567D01*
X175874Y487390D02*
Y493295D01*
Y487390D02*
X182567D01*
X175874Y469279D02*
X182567D01*
X175874Y463374D02*
Y469279D01*
Y463374D02*
X182567D01*
X214811Y402189D02*
Y425811D01*
X191189Y402189D02*
Y425811D01*
X214811D01*
X191189Y402189D02*
X214811D01*
X237500Y369500D02*
Y409500D01*
X247500Y369500D02*
Y409500D01*
X237500Y369500D02*
X247500D01*
X237500Y409500D02*
X247500D01*
X406673Y482835D02*
X435807D01*
Y502559D01*
X406673Y482835D02*
Y502559D01*
X405492Y504429D02*
X406181Y504921D01*
X407657Y502559D01*
X405492Y504429D02*
X406673Y502559D01*
X435807D02*
X436988Y504429D01*
X434823Y502559D02*
X436299Y504921D01*
X436988Y504429D01*
X408484Y504921D02*
X433996D01*
X408484Y502559D02*
Y504921D01*
X407657Y502559D02*
X408484D01*
X433996D02*
Y504921D01*
Y502559D02*
X434823D01*
X393252Y494508D02*
X399748D01*
X393252Y481713D02*
X399748D01*
X393252D02*
Y494508D01*
X399748Y481713D02*
Y494508D01*
X442252Y495508D02*
X448748D01*
X442252Y482713D02*
X448748D01*
X442252D02*
Y495508D01*
X448748Y482713D02*
Y495508D01*
X397782Y286732D02*
Y306417D01*
X378097Y286732D02*
Y306417D01*
Y286732D02*
X397782D01*
X378097Y306417D02*
X397782D01*
X376278Y289834D02*
Y303220D01*
X369191Y289834D02*
Y303220D01*
X376278D01*
X369191Y289834D02*
X376278D01*
X367500Y339598D02*
X397500D01*
X367500Y349402D02*
X397500D01*
Y339598D02*
Y349402D01*
X367500Y339598D02*
Y349402D01*
X192819Y394228D02*
X195181D01*
Y391079D02*
Y394228D01*
X192819Y391079D02*
X195181D01*
X192819D02*
Y394228D01*
X196319D02*
X198681D01*
Y391079D02*
Y394228D01*
X196319Y391079D02*
X198681D01*
X196319D02*
Y394228D01*
X400815Y420315D02*
Y459685D01*
X440185Y420315D02*
Y459685D01*
X400815Y420315D02*
X440185D01*
X400815Y459685D02*
X440185D01*
X359957Y429193D02*
X367043D01*
X359957Y415807D02*
X367043D01*
Y429193D01*
X359957Y415807D02*
Y429193D01*
X371551Y414059D02*
Y458941D01*
X390449Y414059D02*
Y458941D01*
X371551D02*
X390449D01*
X371551Y414059D02*
X390449D01*
X337252Y389000D02*
Y399000D01*
X378748D01*
Y389000D02*
Y399000D01*
X337252Y389000D02*
X378748D01*
X348500Y386402D02*
X378500D01*
X348500Y376598D02*
X378500D01*
X348500D02*
Y386402D01*
X378500Y376598D02*
Y386402D01*
X142102Y373915D02*
Y380411D01*
X154898Y373915D02*
Y380411D01*
X142102D02*
X154898D01*
X142102Y373915D02*
X154898D01*
X468752Y408898D02*
X475248D01*
X468752Y396102D02*
X475248D01*
Y408898D01*
X468752Y396102D02*
Y408898D01*
X401500Y469500D02*
Y479500D01*
X441500Y469500D02*
Y479500D01*
X401500D02*
X441500D01*
X401500Y469500D02*
X441500D01*
X388957Y472807D02*
X396043D01*
X388957Y486193D02*
X396043D01*
X388957Y472807D02*
Y486193D01*
X396043Y472807D02*
Y486193D01*
X370886Y469252D02*
X383681D01*
X370886Y475748D02*
X383681D01*
Y469252D02*
Y475748D01*
X370886Y469252D02*
Y475748D01*
X179764Y289729D02*
X186851D01*
X179764Y303115D02*
X186851D01*
X179764Y289729D02*
Y303115D01*
X186851Y289729D02*
Y303115D01*
X179937Y215116D02*
X187024D01*
X179937Y228502D02*
X187024D01*
X179937Y215116D02*
Y228502D01*
X187024Y215116D02*
Y228502D01*
X179959Y139882D02*
X187046D01*
X179959Y153268D02*
X187046D01*
X179959Y139882D02*
Y153268D01*
X187046Y139882D02*
Y153268D01*
X464693Y436957D02*
Y444043D01*
X451307Y436957D02*
Y444043D01*
Y436957D02*
X464693D01*
X451307Y444043D02*
X464693D01*
Y445957D02*
Y453043D01*
X451307Y445957D02*
Y453043D01*
Y445957D02*
X464693D01*
X451307Y453043D02*
X464693D01*
Y454957D02*
Y462043D01*
X451307Y454957D02*
Y462043D01*
Y454957D02*
X464693D01*
X451307Y462043D02*
X464693D01*
X367043Y438807D02*
Y452193D01*
X359957Y438807D02*
Y452193D01*
X367043D01*
X359957Y438807D02*
X367043D01*
X403291Y190866D02*
Y252283D01*
X464709D01*
Y190866D02*
Y252283D01*
X403291Y190866D02*
X464709D01*
X366444Y113598D02*
X396444D01*
X366444Y123402D02*
X396444D01*
Y113598D02*
Y123402D01*
X366444Y113598D02*
Y123402D01*
X124457Y401307D02*
X131543D01*
X124457Y414693D02*
X131543D01*
X124457Y401307D02*
Y414693D01*
X131543Y401307D02*
Y414693D01*
X112957Y401307D02*
X120043D01*
X112957Y414693D02*
X120043D01*
X112957Y401307D02*
Y414693D01*
X120043Y401307D02*
Y414693D01*
X101457Y401402D02*
X108543D01*
X101457Y414787D02*
X108543D01*
X101457Y401402D02*
Y414787D01*
X108543Y401402D02*
Y414787D01*
X141799Y420854D02*
Y424004D01*
X139437D02*
X141799D01*
X139437Y420854D02*
Y424004D01*
Y420854D02*
X141799D01*
X136681Y420925D02*
Y424075D01*
X134319D02*
X136681D01*
X134319Y420925D02*
Y424075D01*
Y420925D02*
X136681D01*
X189319Y391079D02*
Y394228D01*
Y391079D02*
X191681D01*
Y394228D01*
X189319D02*
X191681D01*
X199819Y391079D02*
Y394228D01*
Y391079D02*
X202181D01*
Y394228D01*
X199819D02*
X202181D01*
X203681Y381079D02*
Y384228D01*
X201319D02*
X203681D01*
X201319Y381079D02*
Y384228D01*
Y381079D02*
X203681D01*
X213681D02*
Y384228D01*
X211319D02*
X213681D01*
X211319Y381079D02*
Y384228D01*
Y381079D02*
X213681D01*
X230319Y380925D02*
Y384075D01*
Y380925D02*
X232681D01*
Y384075D01*
X230319D02*
X232681D01*
X230319Y391079D02*
Y394228D01*
Y391079D02*
X232681D01*
Y394228D01*
X230319D02*
X232681D01*
X227500Y368500D02*
Y378500D01*
X187500Y368500D02*
Y378500D01*
Y368500D02*
X227500D01*
X187500Y378500D02*
X227500D01*
X170992Y392748D02*
X183787D01*
X170992Y386252D02*
X183787D01*
X170992D02*
Y392748D01*
X183787Y386252D02*
Y392748D01*
X214291Y115866D02*
X275709D01*
Y177283D01*
X214291D02*
X275709D01*
X214291Y115866D02*
Y177283D01*
Y191174D02*
X275709D01*
Y252591D01*
X214291D02*
X275709D01*
X214291Y191174D02*
Y252591D01*
Y265791D02*
X275709D01*
Y327209D01*
X214291D02*
X275709D01*
X214291Y265791D02*
Y327209D01*
X403291Y115866D02*
Y177283D01*
X464709D01*
Y115866D02*
Y177283D01*
X403291Y115866D02*
X464709D01*
X403291Y265866D02*
Y327283D01*
X464709D01*
Y265866D02*
Y327283D01*
X403291Y265866D02*
X464709D01*
X177600Y114098D02*
X207600D01*
X177600Y123902D02*
X207600D01*
Y114098D02*
Y123902D01*
X177600Y114098D02*
Y123902D01*
X177000Y339598D02*
X207000D01*
X177000Y349402D02*
X207000D01*
Y339598D02*
Y349402D01*
X177000Y339598D02*
Y349402D01*
X127432D02*
X157432D01*
X127432Y339598D02*
X157432D01*
X127432D02*
Y349402D01*
X157432Y339598D02*
Y349402D01*
X234500Y339598D02*
X264500D01*
X234500Y349402D02*
X264500D01*
Y339598D02*
Y349402D01*
X234500Y339598D02*
Y349402D01*
X483402Y435000D02*
Y465000D01*
X473598Y435000D02*
Y465000D01*
X483402D01*
X473598Y435000D02*
X483402D01*
X466902Y401500D02*
Y431500D01*
X457098Y401500D02*
Y431500D01*
X466902D01*
X457098Y401500D02*
X466902D01*
X425000Y385598D02*
X455000D01*
X425000Y395402D02*
X455000D01*
Y385598D02*
Y395402D01*
X425000Y385598D02*
Y395402D01*
X416500Y339598D02*
X446500D01*
X416500Y349402D02*
X446500D01*
Y339598D02*
Y349402D01*
X416500Y339598D02*
Y349402D01*
X345902Y415000D02*
Y445000D01*
X336098Y415000D02*
Y445000D01*
X345902D01*
X336098Y415000D02*
X345902D01*
X310500Y349402D02*
X340500D01*
X310500Y339598D02*
X340500D01*
X310500D02*
Y349402D01*
X340500Y339598D02*
Y349402D01*
X384500Y395402D02*
X414500D01*
X384500Y385598D02*
X414500D01*
X384500D02*
Y395402D01*
X414500Y385598D02*
Y395402D01*
X176657Y411909D02*
Y414153D01*
X175535Y413031D02*
X177779D01*
X189000Y413531D02*
Y417469D01*
X187031Y415500D02*
X190969D01*
X198828Y294531D02*
Y298468D01*
X196860Y296500D02*
X200797D01*
X198828Y219914D02*
Y223851D01*
X196860Y221882D02*
X200797D01*
X199096Y144294D02*
Y148231D01*
X197127Y146262D02*
X201064D01*
X370532Y146500D02*
X374468D01*
X372500Y144532D02*
Y148468D01*
X385860Y146575D02*
X389797D01*
X387828Y144606D02*
Y148543D01*
X370996Y221604D02*
X374933D01*
X372965Y219636D02*
Y223573D01*
X385971Y221575D02*
X389908D01*
X387940Y219606D02*
Y223543D01*
X133256Y434756D02*
Y438693D01*
X131287Y436724D02*
X135224D01*
X201031Y414000D02*
X204969D01*
X203000Y412032D02*
Y415969D01*
X396500Y486142D02*
Y490079D01*
X394531Y488110D02*
X398468D01*
X445500Y487142D02*
Y491079D01*
X443532Y489110D02*
X447469D01*
X385971Y296575D02*
X389908D01*
X387940Y294606D02*
Y298543D01*
X370766Y296527D02*
X374703D01*
X372734Y294559D02*
Y298496D01*
X380532Y344500D02*
X384469D01*
X382500Y342531D02*
Y346468D01*
X193016Y392653D02*
X194984D01*
X194000Y391669D02*
Y393638D01*
X196516Y392653D02*
X198484D01*
X197500Y391669D02*
Y393638D01*
X418532Y440000D02*
X422469D01*
X420500Y438031D02*
Y441968D01*
X363500Y420532D02*
Y424469D01*
X361531Y422500D02*
X365469D01*
X381000Y434531D02*
Y438469D01*
X379031Y436500D02*
X382968D01*
X361531Y381500D02*
X365469D01*
X363500Y379532D02*
Y383469D01*
X146531Y377163D02*
X150469D01*
X148500Y375194D02*
Y379131D01*
X472000Y400531D02*
Y404468D01*
X470031Y402500D02*
X473969D01*
X392500Y477531D02*
Y481468D01*
X390531Y479500D02*
X394468D01*
X377284Y470532D02*
Y474469D01*
X375315Y472500D02*
X379252D01*
X183307Y294454D02*
Y298391D01*
X181339Y296422D02*
X185276D01*
X183481Y219841D02*
Y223778D01*
X181512Y221809D02*
X185449D01*
X183503Y144606D02*
Y148543D01*
X181534Y146575D02*
X185471D01*
X456032Y440500D02*
X459969D01*
X458000Y438531D02*
Y442469D01*
X456032Y449500D02*
X459969D01*
X458000Y447532D02*
Y451469D01*
X456032Y458500D02*
X459969D01*
X458000Y456531D02*
Y460468D01*
X361531Y445500D02*
X365469D01*
X363500Y443532D02*
Y447469D01*
X432031Y221575D02*
X435968D01*
X434000Y219606D02*
Y223543D01*
X379475Y118500D02*
X383412D01*
X381444Y116532D02*
Y120468D01*
X128000Y406032D02*
Y409969D01*
X126031Y408000D02*
X129969D01*
X116500Y406032D02*
Y409969D01*
X114532Y408000D02*
X118468D01*
X105000Y406126D02*
Y410063D01*
X103032Y408095D02*
X106968D01*
X140618Y421445D02*
Y423413D01*
X139634Y422429D02*
X141602D01*
X135500Y421516D02*
Y423484D01*
X134516Y422500D02*
X136484D01*
X190500Y391669D02*
Y393638D01*
X189516Y392653D02*
X191484D01*
X201000Y391669D02*
Y393638D01*
X200016Y392653D02*
X201984D01*
X202500Y381669D02*
Y383638D01*
X201516Y382653D02*
X203484D01*
X212500Y381669D02*
Y383638D01*
X211516Y382653D02*
X213484D01*
X231500Y381516D02*
Y383484D01*
X230516Y382500D02*
X232484D01*
X231500Y391669D02*
Y393638D01*
X230516Y392653D02*
X232484D01*
X177390Y387531D02*
Y391469D01*
X175421Y389500D02*
X179358D01*
X245000Y144606D02*
Y148543D01*
X243032Y146575D02*
X246969D01*
X245000Y219914D02*
Y223851D01*
X243032Y221882D02*
X246969D01*
X245000Y294531D02*
Y298468D01*
X243032Y296500D02*
X246969D01*
X432031Y146575D02*
X435968D01*
X434000Y144606D02*
Y148543D01*
X432031Y296575D02*
X435968D01*
X434000Y294606D02*
Y298543D01*
X190631Y119000D02*
X194568D01*
X192600Y117032D02*
Y120968D01*
X190032Y344500D02*
X193968D01*
X192000Y342531D02*
Y346468D01*
X140464Y344500D02*
X144401D01*
X142432Y342531D02*
Y346468D01*
X247532Y344500D02*
X251468D01*
X249500Y342531D02*
Y346468D01*
X478500Y448032D02*
Y451968D01*
X476532Y450000D02*
X480469D01*
X462000Y414532D02*
Y418469D01*
X460032Y416500D02*
X463969D01*
X438031Y390500D02*
X441968D01*
X440000Y388531D02*
Y392469D01*
X429531Y344500D02*
X433468D01*
X431500Y342531D02*
Y346468D01*
X341000Y428031D02*
Y431968D01*
X339032Y430000D02*
X342969D01*
X323532Y344500D02*
X327468D01*
X325500Y342531D02*
Y346468D01*
X397532Y390500D02*
X401469D01*
X399500Y388531D02*
Y392469D01*
X177122Y400032D02*
Y403968D01*
X175153Y402000D02*
X179090D01*
X146413Y393985D02*
X150350D01*
X148382Y392017D02*
Y395954D01*
X148500Y384531D02*
Y388469D01*
X146531Y386500D02*
X150469D01*
X479531Y402500D02*
X483468D01*
X481500Y400531D02*
Y404468D01*
X192000Y436252D02*
Y440189D01*
X190032Y438221D02*
X193968D01*
X200000Y436252D02*
Y440189D01*
X198031Y438221D02*
X201969D01*
X138500Y406032D02*
Y409969D01*
X136531Y408000D02*
X140469D01*
X164000Y405950D02*
Y409887D01*
X162031Y407919D02*
X165969D01*
X175410Y425000D02*
X179347D01*
X177378Y423032D02*
Y426968D01*
X139500Y294335D02*
Y298272D01*
X137531Y296303D02*
X141469D01*
X139500Y219374D02*
Y223311D01*
X137531Y221342D02*
X141469D01*
X138000Y144532D02*
Y148468D01*
X136031Y146500D02*
X139969D01*
X328500Y144606D02*
Y148543D01*
X326532Y146575D02*
X330469D01*
X328500Y219606D02*
Y223543D01*
X326532Y221575D02*
X330469D01*
X328500Y294606D02*
Y298543D01*
X326532Y296575D02*
X330469D01*
X149531Y410500D02*
X153469D01*
X151500Y408532D02*
Y412468D01*
D17*
X292374Y493531D02*
X291346D01*
X291003Y493416D01*
X290889Y493302D01*
X290774Y493074D01*
Y492731D01*
X290889Y492502D01*
X291003Y492388D01*
X291346Y492274D01*
X292374D01*
Y494673D01*
X288523Y492845D02*
X288638Y492617D01*
X288866Y492388D01*
X289095Y492274D01*
X289552D01*
X289780Y492388D01*
X290009Y492617D01*
X290123Y492845D01*
X290237Y493188D01*
Y493759D01*
X290123Y494102D01*
X290009Y494331D01*
X289780Y494559D01*
X289552Y494673D01*
X289095D01*
X288866Y494559D01*
X288638Y494331D01*
X288523Y494102D01*
X287849Y492274D02*
Y494673D01*
Y492274D02*
X286821D01*
X286478Y492388D01*
X286364Y492502D01*
X286250Y492731D01*
Y492959D01*
X286364Y493188D01*
X286478Y493302D01*
X286821Y493416D01*
X287849D02*
X286821D01*
X286478Y493531D01*
X286364Y493645D01*
X286250Y493873D01*
Y494216D01*
X286364Y494445D01*
X286478Y494559D01*
X286821Y494673D01*
X287849D01*
X282342Y492274D02*
X283827D01*
Y494673D01*
X282342D01*
X283827Y493416D02*
X282913D01*
X280571Y492274D02*
Y494673D01*
Y493416D02*
X280799Y493188D01*
X281028Y493074D01*
X281371D01*
X281599Y493188D01*
X281828Y493416D01*
X281942Y493759D01*
Y493988D01*
X281828Y494331D01*
X281599Y494559D01*
X281371Y494673D01*
X281028D01*
X280799Y494559D01*
X280571Y494331D01*
X278560Y493074D02*
Y494902D01*
X278674Y495245D01*
X278788Y495359D01*
X279017Y495473D01*
X279360D01*
X279588Y495359D01*
X278560Y493416D02*
X278788Y493188D01*
X279017Y493074D01*
X279360D01*
X279588Y493188D01*
X279817Y493416D01*
X279931Y493759D01*
Y493988D01*
X279817Y494331D01*
X279588Y494559D01*
X279360Y494673D01*
X279017D01*
X278788Y494559D01*
X278560Y494331D01*
X277920Y493759D02*
X276549D01*
Y493531D01*
X276663Y493302D01*
X276777Y493188D01*
X277006Y493074D01*
X277349D01*
X277577Y493188D01*
X277806Y493416D01*
X277920Y493759D01*
Y493988D01*
X277806Y494331D01*
X277577Y494559D01*
X277349Y494673D01*
X277006D01*
X276777Y494559D01*
X276549Y494331D01*
X216228Y493531D02*
X215200D01*
X214857Y493416D01*
X214743Y493302D01*
X214629Y493074D01*
Y492731D01*
X214743Y492502D01*
X214857Y492388D01*
X215200Y492274D01*
X216228D01*
Y494673D01*
X212378Y492845D02*
X212492Y492617D01*
X212720Y492388D01*
X212949Y492274D01*
X213406D01*
X213635Y492388D01*
X213863Y492617D01*
X213977Y492845D01*
X214092Y493188D01*
Y493759D01*
X213977Y494102D01*
X213863Y494331D01*
X213635Y494559D01*
X213406Y494673D01*
X212949D01*
X212720Y494559D01*
X212492Y494331D01*
X212378Y494102D01*
X211704Y492274D02*
Y494673D01*
Y492274D02*
X210675D01*
X210332Y492388D01*
X210218Y492502D01*
X210104Y492731D01*
Y492959D01*
X210218Y493188D01*
X210332Y493302D01*
X210675Y493416D01*
X211704D02*
X210675D01*
X210332Y493531D01*
X210218Y493645D01*
X210104Y493873D01*
Y494216D01*
X210218Y494445D01*
X210332Y494559D01*
X210675Y494673D01*
X211704D01*
X206196Y492274D02*
X207682D01*
Y494673D01*
X206196D01*
X207682Y493416D02*
X206768D01*
X204425Y492274D02*
Y494673D01*
Y493416D02*
X204654Y493188D01*
X204882Y493074D01*
X205225D01*
X205453Y493188D01*
X205682Y493416D01*
X205796Y493759D01*
Y493988D01*
X205682Y494331D01*
X205453Y494559D01*
X205225Y494673D01*
X204882D01*
X204654Y494559D01*
X204425Y494331D01*
X202414Y493074D02*
Y494902D01*
X202528Y495245D01*
X202643Y495359D01*
X202871Y495473D01*
X203214D01*
X203443Y495359D01*
X202414Y493416D02*
X202643Y493188D01*
X202871Y493074D01*
X203214D01*
X203443Y493188D01*
X203671Y493416D01*
X203785Y493759D01*
Y493988D01*
X203671Y494331D01*
X203443Y494559D01*
X203214Y494673D01*
X202871D01*
X202643Y494559D01*
X202414Y494331D01*
X201774Y493759D02*
X200403D01*
Y493531D01*
X200517Y493302D01*
X200632Y493188D01*
X200860Y493074D01*
X201203D01*
X201431Y493188D01*
X201660Y493416D01*
X201774Y493759D01*
Y493988D01*
X201660Y494331D01*
X201431Y494559D01*
X201203Y494673D01*
X200860D01*
X200632Y494559D01*
X200403Y494331D01*
D18*
X425571Y501640D02*
X424885D01*
X424657Y501564D01*
X424581Y501487D01*
X424504Y501335D01*
Y501107D01*
X424581Y500954D01*
X424657Y500878D01*
X424885Y500802D01*
X425571D01*
Y502402D01*
X423004Y501183D02*
X423080Y501030D01*
X423232Y500878D01*
X423385Y500802D01*
X423689D01*
X423842Y500878D01*
X423994Y501030D01*
X424070Y501183D01*
X424146Y501411D01*
Y501792D01*
X424070Y502021D01*
X423994Y502173D01*
X423842Y502325D01*
X423689Y502402D01*
X423385D01*
X423232Y502325D01*
X423080Y502173D01*
X423004Y502021D01*
X422554Y500802D02*
Y502402D01*
Y500802D02*
X421869D01*
X421640Y500878D01*
X421564Y500954D01*
X421488Y501107D01*
Y501259D01*
X421564Y501411D01*
X421640Y501487D01*
X421869Y501564D01*
X422554D02*
X421869D01*
X421640Y501640D01*
X421564Y501716D01*
X421488Y501868D01*
Y502097D01*
X421564Y502249D01*
X421640Y502325D01*
X421869Y502402D01*
X422554D01*
X418883Y500802D02*
X419873D01*
Y502402D01*
X418883D01*
X419873Y501564D02*
X419264D01*
X417702Y500802D02*
Y502402D01*
Y501564D02*
X417854Y501411D01*
X418007Y501335D01*
X418235D01*
X418388Y501411D01*
X418540Y501564D01*
X418616Y501792D01*
Y501944D01*
X418540Y502173D01*
X418388Y502325D01*
X418235Y502402D01*
X418007D01*
X417854Y502325D01*
X417702Y502173D01*
X416361Y501335D02*
Y502554D01*
X416438Y502782D01*
X416514Y502859D01*
X416666Y502935D01*
X416895D01*
X417047Y502859D01*
X416361Y501564D02*
X416514Y501411D01*
X416666Y501335D01*
X416895D01*
X417047Y501411D01*
X417199Y501564D01*
X417275Y501792D01*
Y501944D01*
X417199Y502173D01*
X417047Y502325D01*
X416895Y502402D01*
X416666D01*
X416514Y502325D01*
X416361Y502173D01*
X415935Y501792D02*
X415021D01*
Y501640D01*
X415097Y501487D01*
X415173Y501411D01*
X415325Y501335D01*
X415554D01*
X415706Y501411D01*
X415859Y501564D01*
X415935Y501792D01*
Y501944D01*
X415859Y502173D01*
X415706Y502325D01*
X415554Y502402D01*
X415325D01*
X415173Y502325D01*
X415021Y502173D01*
D19*
X184669Y424358D02*
X193331D01*
X184669Y406642D02*
X193331D01*
X184669D02*
Y424358D01*
X193331Y406642D02*
Y424358D01*
X188592Y283508D02*
Y309492D01*
Y283508D02*
X209064D01*
Y309492D01*
X188600D02*
X209064D01*
X188592Y208890D02*
Y234874D01*
Y208890D02*
X209064D01*
Y234874D01*
X188600D02*
X209064D01*
X188860Y133270D02*
Y159255D01*
Y133270D02*
X209332D01*
Y159255D01*
X188867D02*
X209332D01*
X376437Y138823D02*
Y154177D01*
X368563Y138823D02*
Y154177D01*
X376437D01*
X368563Y138823D02*
X376437D01*
X377600Y159567D02*
X398064D01*
Y133582D02*
Y159567D01*
X377592Y133582D02*
X398064D01*
X377592D02*
Y159567D01*
X376902Y213927D02*
Y229281D01*
X369028Y213927D02*
Y229281D01*
X376902D01*
X369028Y213927D02*
X376902D01*
X377712Y234567D02*
X398176D01*
Y208582D02*
Y234567D01*
X377704Y208582D02*
X398176D01*
X377704D02*
Y234567D01*
X98925Y430425D02*
Y500110D01*
X167587D01*
X98925Y430425D02*
X167587D01*
Y500110D01*
X282531Y480500D02*
X286469D01*
X284500Y478532D02*
Y482469D01*
X206386Y480500D02*
X210323D01*
X208354Y478532D02*
Y482469D01*
X215992Y401008D02*
Y426992D01*
X190008Y401008D02*
Y426992D01*
X215992D01*
X190008Y401008D02*
X215992D01*
X242500Y387531D02*
Y391469D01*
X240531Y389500D02*
X244468D01*
X236417Y368122D02*
Y410878D01*
X248583D01*
Y368122D02*
Y410878D01*
X236417Y368122D02*
X248583D01*
X421240Y492559D02*
Y496496D01*
X419272Y494528D02*
X423209D01*
X392169Y496969D02*
X400831D01*
X392169Y479252D02*
X400831D01*
X392169D02*
Y496969D01*
X400831Y479252D02*
Y496969D01*
X441169Y497968D02*
X449831D01*
X441169Y480252D02*
X449831D01*
X441169D02*
Y497968D01*
X449831Y480252D02*
Y497968D01*
X377712Y309567D02*
X398176D01*
Y283582D02*
Y309567D01*
X377704Y283582D02*
X398176D01*
X377704D02*
Y309567D01*
X376671Y288850D02*
Y304204D01*
X368797Y288850D02*
Y304204D01*
X376671D01*
X368797Y288850D02*
X376671D01*
X367106Y339205D02*
X397894D01*
Y349795D01*
X367106Y339205D02*
Y349795D01*
X397894D01*
X192425Y395409D02*
X195575D01*
Y389898D02*
Y395409D01*
X192425Y389898D02*
X195575D01*
X192425D02*
Y395409D01*
X195925D02*
X199075D01*
Y389898D02*
Y395409D01*
X195925Y389898D02*
X199075D01*
X195925D02*
Y395409D01*
X392252Y411752D02*
Y468248D01*
X448748Y411752D02*
Y468248D01*
X392252Y411752D02*
X448748D01*
X392252Y468248D02*
X448748D01*
X358972Y431752D02*
X368028D01*
X358972Y413248D02*
X368028D01*
Y431752D01*
X358972Y413248D02*
Y431752D01*
X371158Y406579D02*
Y466421D01*
X390843D01*
X371158Y406579D02*
X390843D01*
Y466421D01*
X336366Y388114D02*
Y399886D01*
X379634D01*
Y388114D02*
Y399886D01*
X336366Y388114D02*
X379634D01*
X348106Y386795D02*
X378894D01*
X348106Y376205D02*
Y386795D01*
X378894Y376205D02*
Y386795D01*
X348106Y376205D02*
X378894D01*
X141020Y373423D02*
Y380903D01*
X155980Y373423D02*
Y380903D01*
X141020D02*
X155980D01*
X141020Y373423D02*
X155980D01*
X468260Y409980D02*
X475740D01*
X468260Y395020D02*
X475740D01*
Y409980D01*
X468260Y395020D02*
Y409980D01*
X442878Y468417D02*
Y480583D01*
X400122D02*
X442878D01*
X400122Y468417D02*
Y480583D01*
Y468417D02*
X442878D01*
X421500Y472532D02*
Y476469D01*
X419531Y474500D02*
X423468D01*
X386791Y468673D02*
X398209D01*
X386791Y490327D02*
X398209D01*
X386791Y468673D02*
Y490327D01*
X398209Y468673D02*
Y490327D01*
X369803Y468760D02*
X384764D01*
X369803Y476240D02*
X384764D01*
Y468760D02*
Y476240D01*
X369803Y468760D02*
Y476240D01*
X179370Y288745D02*
X187244D01*
X179370Y304099D02*
X187244D01*
X179370Y288745D02*
Y304099D01*
X187244Y288745D02*
Y304099D01*
X179544Y214132D02*
X187418D01*
X179544Y229486D02*
X187418D01*
X179544Y214132D02*
Y229486D01*
X187418Y214132D02*
Y229486D01*
X179566Y138897D02*
X187440D01*
X179566Y154252D02*
X187440D01*
X179566Y138897D02*
Y154252D01*
X187440Y138897D02*
Y154252D01*
X465677Y436563D02*
Y444437D01*
X450323Y436563D02*
Y444437D01*
Y436563D02*
X465677D01*
X450323Y444437D02*
X465677D01*
Y445563D02*
Y453437D01*
X450323Y445563D02*
Y453437D01*
Y445563D02*
X465677D01*
X450323Y453437D02*
X465677D01*
Y454563D02*
Y462437D01*
X450323Y454563D02*
Y462437D01*
Y454563D02*
X465677D01*
X450323Y462437D02*
X465677D01*
X368028Y436248D02*
Y454752D01*
X358972Y436248D02*
Y454752D01*
X368028D01*
X358972Y436248D02*
X368028D01*
X402898Y190472D02*
Y252677D01*
X465102D01*
Y190472D02*
Y252677D01*
X402898Y190472D02*
X465102D01*
X366050Y113205D02*
X396837D01*
Y123795D01*
X366050Y113205D02*
Y123795D01*
X396837D01*
X122291Y397173D02*
X133709D01*
X122291Y418827D02*
X133709D01*
X122291Y397173D02*
Y418827D01*
X133709Y397173D02*
Y418827D01*
X110791Y397173D02*
X122209D01*
X110791Y418827D02*
X122209D01*
X110791Y397173D02*
Y418827D01*
X122209Y397173D02*
Y418827D01*
X99291Y397268D02*
X110709D01*
X99291Y418921D02*
X110709D01*
X99291Y397268D02*
Y418921D01*
X110709Y397268D02*
Y418921D01*
X142193Y419673D02*
Y425185D01*
X139043D02*
X142193D01*
X139043Y419673D02*
Y425185D01*
Y419673D02*
X142193D01*
X137075Y419744D02*
Y425256D01*
X133925D02*
X137075D01*
X133925Y419744D02*
Y425256D01*
Y419744D02*
X137075D01*
X188925Y389898D02*
Y395409D01*
Y389898D02*
X192075D01*
Y395409D01*
X188925D02*
X192075D01*
X199425Y389898D02*
Y395409D01*
Y389898D02*
X202575D01*
Y395409D01*
X199425D02*
X202575D01*
X204075Y379898D02*
Y385409D01*
X200925D02*
X204075D01*
X200925Y379898D02*
Y385409D01*
Y379898D02*
X204075D01*
X214075D02*
Y385409D01*
X210925D02*
X214075D01*
X210925Y379898D02*
Y385409D01*
Y379898D02*
X214075D01*
X229925Y379744D02*
Y385256D01*
Y379744D02*
X233075D01*
Y385256D01*
X229925D02*
X233075D01*
X229925Y389898D02*
Y395409D01*
Y389898D02*
X233075D01*
Y395409D01*
X229925D02*
X233075D01*
X186122Y367417D02*
Y379583D01*
Y367417D02*
X228878D01*
Y379583D01*
X186122D02*
X228878D01*
X207500Y371532D02*
Y375468D01*
X205532Y373500D02*
X209469D01*
X168532Y393831D02*
X186248D01*
X168532Y385169D02*
X186248D01*
X168532D02*
Y393831D01*
X186248Y385169D02*
Y393831D01*
X213898Y115472D02*
X276102D01*
Y177677D01*
X213898D02*
X276102D01*
X213898Y115472D02*
Y177677D01*
Y190780D02*
X276102D01*
Y252984D01*
X213898D02*
X276102D01*
X213898Y190780D02*
Y252984D01*
Y265398D02*
X276102D01*
Y327602D01*
X213898D02*
X276102D01*
X213898Y265398D02*
Y327602D01*
X402898Y115472D02*
Y177677D01*
X465102D01*
Y115472D02*
Y177677D01*
X402898Y115472D02*
X465102D01*
X402898Y265472D02*
Y327677D01*
X465102D01*
Y265472D02*
Y327677D01*
X402898Y265472D02*
X465102D01*
X177206Y113705D02*
X207994D01*
Y124295D01*
X177206Y113705D02*
Y124295D01*
X207994D01*
X176606Y339205D02*
X207394D01*
Y349795D01*
X176606Y339205D02*
Y349795D01*
X207394D01*
X127039D02*
X157826D01*
X127039Y339205D02*
Y349795D01*
X157826Y339205D02*
Y349795D01*
X127039Y339205D02*
X157826D01*
X234106D02*
X264894D01*
Y349795D01*
X234106Y339205D02*
Y349795D01*
X264894D01*
X483795Y434606D02*
Y465394D01*
X473205D02*
X483795D01*
X473205Y434606D02*
X483795D01*
X473205D02*
Y465394D01*
X467295Y401106D02*
Y431894D01*
X456705D02*
X467295D01*
X456705Y401106D02*
X467295D01*
X456705D02*
Y431894D01*
X424606Y385205D02*
X455394D01*
Y395795D01*
X424606Y385205D02*
Y395795D01*
X455394D01*
X416106Y339205D02*
X446894D01*
Y349795D01*
X416106Y339205D02*
Y349795D01*
X446894D01*
X346295Y414606D02*
Y445394D01*
X335705D02*
X346295D01*
X335705Y414606D02*
X346295D01*
X335705D02*
Y445394D01*
X310106Y349795D02*
X340894D01*
X310106Y339205D02*
Y349795D01*
X340894Y339205D02*
Y349795D01*
X310106Y339205D02*
X340894D01*
X384106Y395795D02*
X414894D01*
X384106Y385205D02*
Y395795D01*
X414894Y385205D02*
Y395795D01*
X384106Y385205D02*
X414894D01*
M02*
