M48
;Layer_Color=9474304
;FILE_FORMAT=2:5
INCH,TZ
;TYPE=PLATED
T1F00S00C0.00787
T2F00S00C0.01000
T4F00S00C0.02800
T6F00S00C0.03937
T7F00S00C0.04016
T8F00S00C0.04331
T9F00S00C0.05900
T11F00S00C0.11811
;TYPE=NON_PLATED
T12F00S00C0.05512
T13F00S00C0.05906
T14F00S00C0.06700
T15F00S00C0.15700
%
T01
X203000Y414000
T02
X143000Y438500
X164500Y429000
X167500Y415500
X183030Y417470
X185425Y414016
X185500Y410000
X191000Y405500
X192484Y398422
X195000Y396023
X198303Y396769
X201831Y395331
X198000Y384500
X177500Y381000
X198000Y409000
X203000
X208042
Y414000
Y418553
X203000Y418500
X198000
Y414000
X205248Y432101
X211328Y430313
X214500Y428500
X215500Y434500
X233060Y414500
X232054Y402024
X391000Y431598
X403000Y428500
X406016Y427529
X406500Y453500
X409000Y456000
X412000Y458000
X395500Y457500
X397000Y460500
X371250Y456750
X435000Y456000
X436500Y447500
Y443500
X436077Y438551
X433000Y409000
X429000Y404104
X431144Y398096
X426500Y412500
X423604Y409618
X420000Y412500
X421884Y469643
X430131Y469869
X425000Y488793
X419191Y488686
T04
X182000Y444000
X407500Y443500
X429500Y450500
X405000Y409000
T06
X165559Y136658
Y146500
X356059Y146575
Y136732
Y156417
Y211732
Y221575
Y231417
X356059Y286732
Y296575
Y306417
X167059Y306146
Y296303
Y286461
Y231185
Y221342
Y211500
X165559Y156342
T07
X182600Y119000
X192600
X202600
X371444Y118500
X381444
X391444
X152432Y344500
X142432
X132432
X182000
X192000
X202000
X239500
X249500
X259500
X315500
X325500
X335500
X372500
X382500
X392500
X421500
X431500
X441500
X440000Y390500
X450000
X430000
X409500
X399500
X389500
X373000Y394000
X363000
X353000
X343000
X353500Y381500
X363500
X373500
X341000Y420000
Y430000
Y440000
X462000Y426500
Y416500
Y406500
X478500Y440000
Y450000
Y460000
T08
X192500Y373500
X202500
X212500
X222500
X242500Y374500
Y384500
Y394500
Y404500
X406500Y474500
X416500
X426500
X436500
T09
X235000Y131575
X424000Y131575
X414000Y156575
X424000Y206575
X414000Y231575
X424000Y281575
X414000Y306575
X225000Y306500
X235000Y281500
X225000Y231882
X235000Y206882
X225000Y156575
T11
X109000Y121500
X279000
X307000
X477000
X109000Y331500
X112500Y375000
X111500Y428500
X311500
X307000Y331500
X279000Y344500
X312500Y375000
X337500Y374500
X479500
X477000Y344500
X479500Y426500
X337500Y489500
T12
X122429Y464284
X144083
T13
X198709Y469083
X218000
X274854
X294146
T14
X245000Y126575
X434000Y126575
Y166575
Y201575
Y241575
Y276575
X245000Y276500
Y241882
Y201882
Y166575
Y316500
X434000Y316575
T15
X245000Y146575
X434000Y146575
Y221575
Y296575
X245000Y296500
Y221882
M30
